<svg width="124" height="92" viewBox="0 0 124 92" fill="none" xmlns="http://www.w3.org/2000/svg">
<path d="M39 23.4444C39 23.1566 39 22.8678 39 22.58C39.0558 22.5488 39.1031 22.5596 39.1428 22.61C39.2609 22.8785 39.2609 23.1459 39.1439 23.4144C39.1042 23.4648 39.0569 23.4745 39 23.4444Z" fill="#F7E19F"/>
<path d="M61.6605 0C61.916 0 62.1727 0 62.4283 0C62.4594 0.0547669 62.4498 0.102016 62.4004 0.140675C62.163 0.252357 61.9257 0.252357 61.6884 0.14175C61.639 0.103091 61.6293 0.0558407 61.6605 0Z" fill="#FBF2D6"/>
<path d="M39 23.4443C39.029 23.4465 39.0569 23.4465 39.0859 23.4476C39.2534 23.6119 39.2309 23.7976 39.1439 23.9888C39.1052 24.0403 39.0569 24.0511 39 24.021C39 23.8288 39 23.6366 39 23.4443Z" fill="#F8E7B4"/>
<path d="M39 24.0215C39.0279 24.0247 39.0548 24.0258 39.0827 24.0258C39.2352 24.1858 39.2352 24.3458 39.0827 24.5069C39.0548 24.5069 39.0268 24.5058 39 24.5026C39 24.3415 39 24.1815 39 24.0215Z" fill="#FAF0D1"/>
<path d="M39 21.6186C39.0279 21.6153 39.0558 21.6143 39.0838 21.6143C39.233 21.7496 39.218 21.9053 39.1428 22.0685C39.1042 22.12 39.0569 22.1297 39.0011 22.0986C39 21.9386 39 21.7786 39 21.6186Z" fill="#FAEFCE"/>
<path d="M61.6609 0C61.6609 0.0268465 61.6598 0.053693 61.6587 0.0805395C61.4987 0.235175 61.3387 0.235175 61.1787 0.0805395C61.1798 0.053693 61.1809 0.0268465 61.1809 0C61.3409 0 61.5009 0 61.6609 0Z" fill="#FCF7E8"/>
<path d="M39 22.0989C39.0279 22.0968 39.0548 22.0957 39.0827 22.0957C39.2352 22.2546 39.233 22.4146 39.087 22.5768C39.058 22.5779 39.029 22.5779 39 22.58C39 22.4189 39 22.2589 39 22.0989Z" fill="#F8E8B6"/>
<path d="M62.4314 0.0815161C62.4304 0.0546696 62.4293 0.0278231 62.4282 0.000976562C62.5882 0.000976562 62.7482 0.000976562 62.9082 0.000976562C62.9082 0.0278231 62.9093 0.0546696 62.9104 0.0815161C62.7504 0.235078 62.5914 0.235078 62.4314 0.0815161Z" fill="#FCF9ED"/>
<path d="M84.0615 29.5508C82.5763 34.512 79.7402 38.5293 75.5865 41.607C72.554 43.8535 69.1573 45.3086 65.4203 45.7886C57.1902 46.8464 50.2338 44.3024 44.6669 38.1137C42.4773 35.6804 40.9707 32.8443 40.0138 29.7151C39.9816 29.6088 39.9623 29.4981 39.9365 29.3886C40.0976 29.0718 40.4004 29.1588 40.6528 29.1577C42.7747 29.147 44.8967 29.1524 47.0186 29.1524C47.8713 29.1524 47.8702 29.1513 47.8724 28.3158C47.8745 27.5341 47.8627 26.7512 47.8788 25.9694C47.8842 25.6956 47.8949 25.4089 48.2579 25.3434C48.3513 25.3305 48.4447 25.3283 48.5381 25.3283C50.5581 25.3165 52.578 25.2897 54.5969 25.324C54.6881 25.3262 54.7805 25.3273 54.8718 25.3251C55.2219 25.2993 55.573 25.3176 55.9242 25.3144C57.0829 25.3036 56.9916 25.4282 56.9959 24.2169C56.9991 23.3063 56.9927 22.3967 56.998 21.4861C57.0023 20.6903 57.0839 20.6119 57.8775 20.6066C58.0687 20.6055 58.2609 20.5958 58.452 20.6173C58.5433 20.6195 58.6346 20.6195 58.7259 20.6205C60.7254 20.6248 62.726 20.6205 64.7255 20.6216C64.7867 20.6205 64.8469 20.6205 64.9081 20.6216C64.9983 20.6205 65.0896 20.6216 65.1798 20.6184C65.4837 20.5969 65.7876 20.5991 66.0904 20.6141C66.5683 20.6366 66.6853 20.744 66.6993 21.224C66.724 22.0713 66.7046 22.9197 66.7089 23.768C66.71 24.1202 66.7154 24.4725 66.7089 24.8236C66.7025 25.163 66.8432 25.3208 67.1922 25.3165C67.6078 25.3112 68.0233 25.2993 68.4389 25.3262C68.5302 25.3283 68.6215 25.3283 68.7117 25.3251C70.7123 25.3026 72.714 25.309 74.7146 25.3208C74.7758 25.324 74.837 25.3273 74.8982 25.3283C74.9906 25.3283 75.0818 25.3283 75.1742 25.3251C75.9216 25.3208 76.015 25.4057 76.0215 26.1305C76.029 26.9305 76.0193 27.7295 76.0247 28.5295C76.029 29.1137 76.0655 29.1534 76.6561 29.1545C78.8457 29.1588 81.0353 29.1556 83.2238 29.1567C83.415 29.1567 83.6072 29.1502 83.7973 29.1878C84.0013 29.2243 84.1194 29.3242 84.0615 29.5508Z" fill="#16A00F"/>
<path d="M84.0612 29.551C84.0365 29.1891 83.754 29.3395 83.5865 29.3384C81.2036 29.3287 78.8207 29.3191 76.4378 29.3427C75.989 29.347 75.8708 29.217 75.8859 28.7811C75.9192 27.8704 75.8762 26.9566 75.9041 26.0449C75.917 25.6271 75.83 25.4005 75.3618 25.4832C75.2705 25.4993 75.1718 25.4736 75.0762 25.4682C74.9183 25.2373 74.9709 24.9731 74.9709 24.7219C74.9677 20.6734 74.9742 16.6239 74.9634 12.5754C74.9613 11.7937 74.9119 11.0054 74.666 10.257C74.1623 8.72563 73.3204 7.50465 71.6334 7.10196C71.4261 7.05256 71.221 7.0547 71.0148 7.05363C69.0797 7.05148 67.1446 7.07833 65.2095 7.04397C63.9037 7.02034 62.9555 7.61633 62.1802 8.5914C62.1501 8.62899 62.1276 8.67194 62.0996 8.7106C61.7356 9.20672 61.611 9.20887 61.2577 8.72348C61.0129 8.38844 60.7584 8.07058 60.4233 7.80855C59.7769 7.30384 59.0606 7.06115 58.2477 7.0633C56.4082 7.06652 54.5644 7.15243 52.7313 7.03967C50.7608 6.91833 49.2939 8.4969 48.8085 9.85641C48.5658 10.5383 48.4348 11.232 48.438 11.9665C48.453 16.2233 48.4466 20.4801 48.4423 24.7369C48.4423 24.9839 48.5153 25.2566 48.2898 25.4607C48.0106 25.4628 48.0181 25.6529 48.0192 25.8559C48.0246 26.7987 48.0256 27.7416 48.0203 28.6844C48.0149 29.4232 48.1255 29.3309 47.3491 29.3319C45.05 29.3362 42.7498 29.3319 40.4506 29.3352C40.2788 29.3352 40.0984 29.2922 39.9352 29.3899C39.4498 27.7974 39.2039 26.163 39.0825 24.5071C39.0825 24.3471 39.0825 24.186 39.0825 24.026C39.0836 23.8338 39.0847 23.6405 39.0857 23.4483C39.0857 23.1583 39.0868 22.8673 39.0868 22.5774C39.0857 22.4174 39.0836 22.2574 39.0825 22.0963C39.0825 21.9352 39.0825 21.7752 39.0836 21.6141C39.4444 16.4918 41.2539 11.9537 44.6161 8.06521C48.3263 3.77406 53.0169 1.22042 58.6053 0.320525C59.4537 0.184145 60.3203 0.158373 61.1783 0.0810547C61.3383 0.0810547 61.4983 0.0810547 61.6583 0.0810547C61.916 0.0810547 62.1737 0.0810547 62.4315 0.0810547C62.5915 0.0810547 62.7504 0.0810547 62.9104 0.0810547C67.9865 0.324821 72.5386 1.9936 76.4819 5.20552C80.5593 8.52804 83.2096 12.7752 84.4059 17.9071C85.2746 21.6367 85.1791 25.3576 84.1933 29.0538C84.1492 29.2192 84.1965 29.4114 84.0612 29.551Z" fill="#F2CB56"/>
<path d="M59.765 35.692C59.765 35.0197 59.7521 34.3475 59.7715 33.6752C59.779 33.3982 59.6856 33.3262 59.4192 33.3316C58.5881 33.3466 57.7558 33.3284 56.9236 33.3423C56.6637 33.3466 56.5628 33.2876 56.5671 33.003C56.5832 31.9785 56.5821 30.9541 56.5671 29.9296C56.5628 29.659 56.6401 29.5752 56.9128 29.5817C57.6968 29.5989 58.4818 29.5548 59.2635 29.5999C59.7178 29.6268 59.7876 29.4582 59.7725 29.0619C59.7435 28.2791 59.7768 27.493 59.7575 26.7091C59.75 26.4117 59.8434 26.3279 60.1376 26.3322C61.3855 26.3472 62.6333 26.3472 63.8811 26.3322C64.17 26.329 64.2688 26.3955 64.2613 26.7005C64.2398 27.5489 64.2645 28.3972 64.2473 29.2456C64.2419 29.5183 64.3203 29.5999 64.5952 29.5946C65.4103 29.5774 66.2264 29.5999 67.0426 29.5828C67.3379 29.5763 67.4592 29.6343 67.4517 29.9683C67.4281 30.9766 67.4345 31.985 67.4496 32.9933C67.4539 33.264 67.3765 33.3499 67.1016 33.3445C66.3177 33.3273 65.5327 33.3713 64.751 33.3262C64.2989 33.2994 64.2366 33.4637 64.2452 33.86C64.2699 35.1239 64.2441 36.3889 64.2613 37.6528C64.2656 37.9632 64.185 38.0577 63.8672 38.0523C62.6354 38.033 61.4037 38.0308 60.172 38.0534C59.8176 38.0598 59.7468 37.9353 59.7586 37.6142C59.7822 36.9731 59.7661 36.332 59.765 35.692Z" fill="#FDFDFD"/>
<path d="M58.4712 20.7297C58.0578 20.7425 57.5123 20.6008 57.2642 20.8102C56.9732 21.0561 57.174 21.621 57.1675 22.0473C57.1514 23.0546 57.1482 24.0629 57.1697 25.0691C57.1772 25.4128 57.0634 25.5094 56.7348 25.4922C56.113 25.4611 55.4902 25.4664 54.8673 25.4568C54.6816 25.3 54.7084 25.0831 54.7084 24.878C54.7052 20.5267 54.7041 16.1754 54.7084 11.8241C54.7095 11.1916 54.8029 11.1003 55.4311 11.0993C56.2945 11.0971 57.1579 11.1003 58.0213 11.11C58.5195 11.1154 58.6205 11.2109 58.6226 11.7028C58.6323 14.5507 58.6291 17.3975 58.6248 20.2453C58.6248 20.4204 58.6291 20.6019 58.4712 20.7297Z" fill="#F2CB56"/>
<path d="M68.4732 25.4612C67.9792 25.4698 67.4842 25.4612 66.9913 25.4913C66.6605 25.5117 66.5531 25.4064 66.5585 25.066C66.5768 23.7731 66.5542 22.4791 66.5735 21.1851C66.5789 20.8414 66.507 20.6868 66.1311 20.7244C65.7993 20.7577 65.461 20.7308 65.126 20.7308C64.9649 20.5816 64.9842 20.3818 64.9842 20.1928C64.981 17.3944 64.9789 14.5969 64.9842 11.7985C64.9853 11.1896 65.0691 11.1112 65.6822 11.1058C66.4329 11.0994 67.1846 11.0983 67.9352 11.1058C68.5162 11.1123 68.6064 11.1982 68.6107 11.7738C68.6203 13.0205 68.6139 14.2683 68.6139 15.5151C68.6139 18.5853 68.615 21.6554 68.6117 24.7245C68.6117 24.978 68.6654 25.2443 68.4732 25.4612Z" fill="#F2CB56"/>
<path d="M48.2913 25.4584C48.2913 21.0394 48.2956 16.6205 48.2881 12.2016C48.2859 10.5682 48.7048 9.10239 49.9096 7.93618C50.5765 7.29079 51.3615 6.90098 52.3118 6.90098C54.2953 6.90205 56.2798 6.8999 58.2632 6.8999C59.4713 6.8999 60.4066 7.44972 61.1562 8.3582C61.3366 8.5762 61.4923 8.81567 61.6791 9.07125C61.9379 8.72869 62.1441 8.39042 62.419 8.10263C63.1761 7.31119 64.0771 6.88594 65.1874 6.89453C67.027 6.90849 68.8676 6.92245 70.7071 6.89131C72.5219 6.86124 73.657 7.82235 74.4506 9.33112C74.9316 10.2471 75.0712 11.2447 75.0745 12.2574C75.0852 16.6602 75.0777 21.063 75.0777 25.4659C75.0251 25.4637 74.9725 25.4627 74.9198 25.4605C74.7212 25.2457 74.777 24.9783 74.777 24.7281C74.7738 20.7742 74.7738 16.8202 74.7759 12.8663C74.7759 12.5774 74.7652 12.2907 74.7201 12.0061C74.69 11.8375 74.6761 11.6678 74.6825 11.496C74.689 11.2673 74.66 11.0429 74.603 10.8216C74.5773 10.6584 74.5225 10.5016 74.5032 10.3373C74.486 10.0903 74.3335 9.89275 74.2551 9.66831C74.21 9.52979 74.1348 9.40629 74.0618 9.2828C73.9824 9.12065 73.8836 8.9703 73.7848 8.81889C73.7332 8.73406 73.672 8.65674 73.6011 8.58694C73.5152 8.49888 73.4379 8.40331 73.3681 8.30129C73.2607 8.14021 73.1179 8.02101 72.9461 7.93403C72.7302 7.81376 72.5305 7.66771 72.3157 7.54529C71.8937 7.33696 71.4416 7.26179 70.9766 7.24246C69.1521 7.2532 67.3287 7.24783 65.5053 7.25428C64.5904 7.2575 63.7248 7.44328 62.9914 8.03605C62.7992 8.21109 62.6005 8.38075 62.4287 8.57727C62.2977 8.74587 62.1624 8.91017 62.0453 9.0895C61.953 9.23233 61.9057 9.402 61.7801 9.52442C61.7403 9.54375 61.6985 9.55019 61.6544 9.54267C61.4751 9.4428 61.4064 9.25273 61.2904 9.10132C61.2023 8.95849 61.0831 8.84037 60.9919 8.70077C60.849 8.49029 60.6514 8.32706 60.4936 8.12947C60.3626 7.99739 60.2079 7.89644 60.0533 7.79443C59.8396 7.63335 59.6066 7.56784 59.3349 7.59254C56.3163 7.86745 53.2998 8.16061 50.2855 8.48277C50.0256 8.51069 49.7775 8.5515 49.6079 8.77808C49.4833 9.00359 49.2889 9.18508 49.1869 9.4267C49.1257 9.56845 49.0538 9.7059 49.0054 9.85302C48.9464 10.0377 48.8379 10.2052 48.8175 10.4039C48.8003 10.536 48.767 10.6638 48.7359 10.7926C48.723 10.8818 48.7101 10.9709 48.6929 11.06C48.6768 11.1513 48.6446 11.2383 48.6403 11.3317C48.6264 11.5003 48.6296 11.6689 48.635 11.8375C48.6392 11.9653 48.636 12.0931 48.636 12.2209C48.6468 12.4067 48.6317 12.5924 48.6403 12.7782C48.6457 12.9404 48.6414 13.1025 48.6382 13.2647C48.6446 13.4827 48.6446 13.6996 48.6382 13.9176C48.6414 14.0808 48.6446 14.243 48.6382 14.4062C48.6414 14.5952 48.6435 14.7842 48.6371 14.9732C48.6403 15.1085 48.6425 15.2427 48.6371 15.378C48.6425 15.567 48.6414 15.756 48.6371 15.945C48.6425 16.1083 48.6414 16.2715 48.6371 16.4336C48.6468 16.6248 48.6392 16.817 48.6371 17.0082C48.6457 17.2283 48.6435 17.4474 48.6382 17.6675C48.6425 17.8586 48.6457 18.0509 48.6371 18.242C48.6403 18.4321 48.6435 18.6222 48.636 18.8122C48.6382 18.9465 48.6425 19.0818 48.636 19.216C48.6392 19.4029 48.6403 19.5897 48.635 19.7766C48.6371 19.9097 48.6403 20.0429 48.635 20.176C48.6392 20.335 48.6392 20.495 48.635 20.6539C48.6382 20.8128 48.6392 20.9728 48.635 21.1318C48.6382 21.2907 48.6403 21.4507 48.635 21.6096C48.6392 21.7428 48.6392 21.876 48.635 22.0091C48.6403 22.196 48.6392 22.3828 48.635 22.5697C48.6382 22.7297 48.6403 22.8886 48.6339 23.0486C48.636 23.2075 48.6382 23.3654 48.6328 23.5243C48.6339 23.6553 48.6382 23.7874 48.6328 23.9184C48.636 24.0495 48.636 24.1805 48.6328 24.3115C48.6371 24.4693 48.636 24.6261 48.6328 24.784C48.6317 24.9698 48.6468 25.1577 48.5856 25.3392C48.5598 25.3875 48.5265 25.4294 48.4857 25.4648C48.4245 25.4627 48.3579 25.4605 48.2913 25.4584Z" fill="#01A859"/>
<path d="M74.3345 9.60866C74.429 9.83309 74.5922 10.0275 74.619 10.2798C73.6526 10.4871 72.6635 10.4914 71.6874 10.6052C70.7725 10.7115 69.8543 10.7996 68.9372 10.878C68.7343 10.8951 68.7053 11.0519 68.5829 11.126C67.5756 11.1679 66.5683 11.1335 65.5621 11.1454C65.0284 11.1518 65.0241 11.1518 65.023 11.6834C65.0209 14.499 65.023 17.3158 65.0198 20.1314C65.0198 20.3344 65.0735 20.5502 64.9307 20.7338C64.8963 20.7338 64.8619 20.7349 64.8276 20.7349C64.7879 20.6952 64.7578 20.649 64.7363 20.5964C64.6601 20.242 64.703 19.8834 64.6966 19.5268C64.6912 19.3915 64.6901 19.2551 64.6966 19.1198C64.6901 18.9308 64.6955 18.7429 64.6976 18.5539C64.6891 18.3928 64.6966 18.2318 64.6976 18.0707C64.6912 17.9096 64.6933 17.7496 64.6976 17.5885C64.6933 17.4285 64.6933 17.2674 64.6976 17.1074C64.6933 16.9474 64.6923 16.7863 64.6976 16.6263C64.6933 16.4653 64.6933 16.3042 64.6976 16.1442C64.6923 15.982 64.6934 15.8199 64.6966 15.6577C64.688 15.4934 64.6933 15.3302 64.6955 15.1659C64.6869 14.9167 64.688 14.6687 64.6944 14.4196C64.6869 14.1983 64.6901 13.976 64.6955 13.7548C64.688 13.5895 64.6891 13.4241 64.6944 13.2576C64.6891 13.0375 64.688 12.8174 64.6944 12.5972C64.6901 12.4329 64.688 12.2686 64.6944 12.1043C64.688 11.9153 64.6901 11.7263 64.6891 11.5384C64.645 11.1937 64.3755 11.2667 64.1693 11.2828C63.0235 11.3752 61.8831 11.5233 60.7372 11.6082C60.0414 11.6597 59.3552 11.8101 58.655 11.8101C58.5648 11.6447 58.5766 11.4782 58.6432 11.3097C58.8515 11.0584 59.1587 11.0627 59.4357 11.0358C61.5158 10.8382 63.5948 10.6256 65.6738 10.4226C67.8172 10.2132 69.9596 9.99847 72.1019 9.78799C72.844 9.71819 73.5849 9.60221 74.3345 9.60866Z" fill="#28B054"/>
<path d="M52.2045 38.7683C52.6748 39.5554 53.0936 40.2566 53.535 40.9954C53.9506 40.2523 54.3382 39.5608 54.786 38.7607C55.0384 39.986 55.2682 41.0953 55.4969 42.2046C54.7753 42.3796 54.771 42.3754 54.6421 41.6752C54.5959 41.4239 54.5401 41.1748 54.4843 40.9246C54.4789 40.8999 54.4477 40.8805 54.4059 40.8311C54.1149 41.309 53.8303 41.7783 53.5156 42.2959C53.1817 41.7772 52.8745 41.3026 52.5094 40.7345C52.4332 41.1232 52.3773 41.41 52.3204 41.6956C52.1948 42.3292 52.1948 42.3292 51.5 42.2315C51.7266 41.1136 51.9542 39.9957 52.2045 38.7683Z" fill="#FDFDFC"/>
<path d="M58.7805 40.5672C58.7805 40.1194 58.7955 39.6705 58.7751 39.2238C58.7622 38.9639 58.8535 38.8984 59.1005 38.907C59.5622 38.9242 60.0262 38.893 60.4815 39.0133C61.2826 39.2248 61.7594 39.8133 61.7572 40.5962C61.7551 41.3489 61.2396 41.9793 60.475 42.1833C59.9875 42.3133 59.4914 42.2585 58.9974 42.2789C58.7773 42.2875 58.7783 42.1629 58.7794 42.0061C58.7826 41.5272 58.7805 41.0472 58.7805 40.5672Z" fill="#FDFDFD"/>
<path d="M55.9961 40.6012C55.9961 40.1372 56.0069 39.6733 55.9918 39.2094C55.9843 38.9861 56.0434 38.9002 56.2818 38.9077C56.809 38.9249 57.3374 38.9259 57.8636 38.9087C58.2029 38.898 58.103 39.131 58.1041 39.2986C58.1052 39.4661 58.2008 39.7066 57.8625 39.6852C57.5919 39.668 57.3191 39.6894 57.0474 39.6798C56.8627 39.6733 56.7553 39.6959 56.7564 39.9311C56.7564 40.1845 56.9003 40.1673 57.0646 40.163C57.1924 40.1598 57.3234 40.1813 57.448 40.1587C57.8732 40.0803 57.9624 40.2822 57.9258 40.6602C57.9065 40.8578 57.8722 40.9534 57.6552 40.9351C57.4652 40.919 57.2719 40.9394 57.0807 40.9298C56.8842 40.9201 56.7553 40.9308 56.7553 41.1971C56.7553 41.4549 56.8359 41.5365 57.0829 41.5118C57.2729 41.4925 57.4695 41.5322 57.6574 41.5032C58.0493 41.4431 58.1471 41.6138 58.1181 41.9746C58.1009 42.1851 58.0773 42.3161 57.8303 42.2775C57.783 42.2699 57.7347 42.2785 57.6864 42.2764C57.1333 42.2474 56.5771 42.3376 56.0262 42.2248C56.0262 41.6836 56.0262 41.1435 56.0262 40.6022C56.0155 40.6012 56.0058 40.6012 55.9961 40.6012Z" fill="#FDFDFD"/>
<path d="M58.6868 11.3383C58.6868 11.4983 58.6868 11.6583 58.6879 11.8183C58.8017 11.9224 58.8081 12.0631 58.8146 12.2027C58.8285 12.3939 58.8135 12.585 58.821 12.7762C58.8307 12.9394 58.8114 13.1026 58.8232 13.2669C58.8275 13.4871 58.8232 13.7061 58.8199 13.9252C58.8296 14.0916 58.8242 14.257 58.821 14.4235C58.8393 14.6747 58.8092 14.925 58.8253 15.1762C58.835 15.4264 58.8167 15.6767 58.8232 15.9269C58.8307 16.1191 58.8081 16.3102 58.821 16.5025C58.8253 16.6378 58.8114 16.7731 58.8221 16.9084C58.8264 17.0695 58.8092 17.2316 58.8221 17.3927C58.8264 17.5559 58.8092 17.7181 58.8242 17.8813C58.8296 18.0467 58.8092 18.212 58.8275 18.3785C58.821 18.7135 58.8124 19.0497 58.8242 19.3847C58.8242 19.6843 58.8135 19.9839 58.8157 20.2846C58.8189 20.392 58.8092 20.4994 58.7802 20.6035C58.762 20.654 58.733 20.6991 58.6965 20.7378C58.6224 20.7356 58.5472 20.7345 58.4731 20.7324C58.4785 17.6601 58.4828 14.5878 58.4946 11.5165C58.4956 11.2813 58.4076 11.2158 58.1853 11.218C57.1941 11.2255 56.2019 11.2298 55.2107 11.2158C54.9229 11.2115 54.851 11.3307 54.8681 11.5874C54.8832 11.8108 54.8714 12.0352 54.8714 12.2596C54.8714 16.6603 54.8714 21.0599 54.8703 25.4606C54.8037 25.4627 54.7382 25.466 54.6716 25.4681C54.4601 25.2576 54.5224 24.9892 54.5181 24.7347C54.5181 24.5693 54.5084 24.4028 54.5202 24.2375C54.5191 24.0764 54.5148 23.9153 54.5224 23.7542C54.5213 23.6222 54.517 23.4901 54.5224 23.3569C54.5181 23.2248 54.5191 23.0938 54.5224 22.9617C54.517 22.8028 54.5191 22.6439 54.5213 22.486C54.5159 22.326 54.517 22.1671 54.5202 22.0071C54.5159 21.8202 54.5159 21.6334 54.5213 21.4465C54.5191 21.3133 54.5148 21.1802 54.5213 21.047C54.517 20.8881 54.517 20.7281 54.5213 20.5692C54.5181 20.4102 54.517 20.2502 54.5213 20.0913C54.5181 19.9324 54.5159 19.7724 54.5213 19.6134C54.517 19.4803 54.517 19.3471 54.5213 19.2139C54.517 19.0271 54.517 18.8402 54.5213 18.6534C54.517 18.5192 54.517 18.3839 54.5202 18.2496C54.5138 18.0596 54.5159 17.8695 54.5191 17.6794C54.5127 17.4883 54.5138 17.296 54.5181 17.1049C54.5127 16.8847 54.5116 16.6657 54.5181 16.4455C54.5148 16.2544 54.5105 16.0622 54.5191 15.871C54.5159 15.7078 54.5127 15.5446 54.5191 15.3824C54.5159 15.1934 54.5138 15.0044 54.5202 14.8154C54.517 14.6801 54.5148 14.5459 54.5202 14.4106C54.5148 14.2216 54.5159 14.0326 54.5202 13.8436C54.5148 13.6803 54.5148 13.5171 54.5191 13.355C54.5138 13.137 54.5127 12.9179 54.5191 12.6999C54.5148 12.5345 54.5127 12.3702 54.5191 12.2049C54.5116 12.0083 54.5148 11.8118 54.5181 11.6142C54.5084 11.436 54.5148 11.2599 54.5836 11.0902C54.6845 10.8991 54.8606 10.825 55.0582 10.8239C56.218 10.8142 57.3745 10.9173 58.5332 10.9495C58.5816 10.9506 58.6213 10.985 58.6632 11.0064C58.7759 11.1063 58.7534 11.2212 58.6868 11.3383Z" fill="#03A858"/>
<path d="M64.9297 20.7347C64.9276 17.6796 64.9351 14.6234 64.9136 11.5682C64.9104 11.1333 65.0436 11.0281 65.457 11.0388C66.5276 11.0667 67.5994 11.0495 68.67 11.0495C68.7387 11.1054 68.7688 11.1806 68.7849 11.2643C68.816 11.5081 68.8053 11.7529 68.8032 11.9978C68.8064 12.1588 68.8096 12.3199 68.8032 12.4821C68.8064 12.6432 68.8085 12.8053 68.8032 12.9664C68.8096 13.1017 68.8064 13.2381 68.8042 13.3734C68.8128 13.5925 68.8096 13.8126 68.8064 14.0317C68.8128 14.2808 68.8139 14.531 68.8064 14.7801C68.8107 14.9466 68.8139 15.1141 68.8064 15.2806C68.8139 15.5029 68.8128 15.7251 68.8064 15.9474C68.8117 16.1976 68.8139 16.4468 68.8053 16.697C68.8074 16.8624 68.8139 17.0277 68.8053 17.1931C68.8096 17.3853 68.8117 17.5775 68.8053 17.7698C68.8117 17.9351 68.8107 18.1005 68.8064 18.2648C68.8139 18.5129 68.8139 18.762 68.8064 19.0101C68.8096 19.2291 68.8139 19.4482 68.8042 19.6673C68.8042 19.8026 68.8117 19.9379 68.8032 20.0721C68.8053 20.2332 68.8074 20.3932 68.8032 20.5543C68.8085 20.6885 68.8064 20.8228 68.8042 20.957C68.8117 21.1471 68.8085 21.3361 68.8053 21.5261C68.8128 21.7184 68.8107 21.9106 68.8064 22.1017C68.8139 22.3229 68.8128 22.5442 68.8064 22.7654C68.8117 22.9866 68.8139 23.2089 68.8064 23.4301C68.8107 23.6223 68.8139 23.8156 68.8053 24.0078C68.8085 24.199 68.8117 24.3901 68.8042 24.5813C68.8064 24.7456 68.8117 24.9099 68.801 25.0742C68.8042 25.2181 68.7666 25.3502 68.6711 25.4608C68.6056 25.4608 68.5401 25.4597 68.4746 25.4597C68.4746 20.8872 68.467 16.3136 68.4853 11.7411C68.4874 11.3019 68.3607 11.2085 67.9516 11.2235C67.1215 11.2557 66.2903 11.2364 65.4592 11.231C65.2498 11.23 65.0951 11.2321 65.0962 11.5231C65.1123 14.5922 65.1187 17.6624 65.1263 20.7315C65.0597 20.7326 64.9952 20.7336 64.9297 20.7347Z" fill="#05A858"/>
<path d="M66.3833 39.9243C65.5704 39.4636 64.9873 39.4905 64.6318 39.9598C64.3612 40.3174 64.3806 40.8715 64.6759 41.199C65.0711 41.6382 65.6585 41.6114 66.3983 41.1217C66.5508 41.9958 66.3318 42.2621 65.4555 42.2771C64.7446 42.289 64.0799 41.8659 63.8211 41.2377C63.5462 40.5719 63.6858 39.8073 64.169 39.3283C64.6737 38.8279 65.4576 38.7044 66.1213 38.9546C66.6818 39.1651 66.3361 39.5485 66.3833 39.9243Z" fill="#FCFDFC"/>
<path d="M66.6592 42.2815C67.2391 41.097 67.7824 39.9845 68.3741 38.7764C68.9626 39.9673 69.5189 41.0938 70.0988 42.2675C69.6724 42.2482 69.2364 42.4565 69.0732 41.8938C69.0464 41.8004 68.9594 41.7971 68.8778 41.7971C68.5105 41.7971 68.1433 41.7982 67.776 41.7971C67.6879 41.7971 67.6149 41.8251 67.5934 41.9142C67.4667 42.4221 67.0694 42.2514 66.6592 42.2815Z" fill="#FDFDFD"/>
<path d="M68.6763 12.972C68.6763 12.812 68.6763 12.652 68.6763 12.492C69.2755 12.172 69.9456 12.2493 70.5834 12.1752C71.7808 12.0356 72.9835 11.9303 74.183 11.8068C74.4064 11.7843 74.6276 11.7521 74.8188 11.9132C74.9723 12.0764 74.9036 12.2793 74.9047 12.463C74.9133 16.796 74.9165 21.129 74.9208 25.4621L74.8767 25.4685H74.8327C74.604 25.2215 74.6867 24.9176 74.6791 24.6309C74.6738 24.4322 74.6738 24.2336 74.6813 24.0349C74.6738 23.8395 74.6749 23.6451 74.6813 23.4496C74.6727 23.2553 74.6791 23.0609 74.6813 22.8676C74.6695 22.6453 74.6781 22.4241 74.6813 22.2018C74.6727 21.9806 74.6738 21.7594 74.6813 21.5371C74.6781 21.3449 74.6738 21.1527 74.6824 20.9615C74.6802 20.7714 74.6759 20.5824 74.6834 20.3924C74.6824 20.2581 74.677 20.1239 74.6834 19.9897C74.6802 19.8286 74.6792 19.6686 74.6834 19.5075C74.6759 19.3722 74.6813 19.2369 74.6824 19.1027C74.6738 18.8836 74.677 18.6645 74.6802 18.4455C74.6738 18.1974 74.6727 17.9483 74.6813 17.7002C74.6791 17.5348 74.6727 17.3694 74.6813 17.2051C74.677 17.0129 74.6759 16.8207 74.6813 16.6285C74.6749 16.4631 74.677 16.2977 74.6802 16.1324C74.6727 15.8821 74.6727 15.633 74.6791 15.3828C74.6738 15.1605 74.6716 14.9372 74.6802 14.7149C74.6749 14.5473 74.6738 14.3798 74.6802 14.2123C74.6716 13.961 74.6727 13.7097 74.6791 13.4584C74.6716 13.2372 74.6738 13.0171 74.6716 12.7959C74.6169 12.4823 74.372 12.5553 74.1809 12.5747C72.5443 12.739 70.9067 12.899 69.2712 13.0665C69.0618 13.0869 68.8545 13.1298 68.6763 12.972Z" fill="#3DB552"/>
<path d="M74.8146 24.5968C74.8199 24.8868 74.8264 25.1778 74.8317 25.4677C72.7774 25.4656 70.7242 25.4645 68.6699 25.4624C68.6753 25.3346 68.6807 25.2057 68.686 25.0779C69.1854 24.803 69.7459 24.919 70.2743 24.8535C71.4609 24.7053 72.6529 24.6065 73.8427 24.4852C74.1735 24.4519 74.5128 24.3735 74.8146 24.5968Z" fill="#B4D044"/>
<path d="M70.3988 40.5941C70.3988 40.1313 70.4214 39.6674 70.3913 39.2067C70.3688 38.8587 70.5792 38.9157 70.7822 38.9135C70.9884 38.9114 71.187 38.8641 71.1742 39.2067C71.1484 39.8596 71.1795 40.5157 71.1602 41.1686C71.1527 41.4382 71.23 41.5423 71.5038 41.5122C71.6928 41.4918 71.8904 41.5348 72.0762 41.5026C72.5025 41.4296 72.524 41.6647 72.5186 41.9901C72.5143 42.2253 72.4402 42.2865 72.2158 42.2811C71.7057 42.2672 71.1946 42.265 70.6856 42.2811C70.4514 42.2886 70.3859 42.2081 70.3935 41.9826C70.4096 41.5198 70.3988 41.0569 70.3988 40.5941Z" fill="#FDFDFD"/>
<path d="M54.6482 24.6937C54.6558 24.9504 54.6622 25.2081 54.6697 25.4648C52.6101 25.4648 50.5504 25.4648 48.4907 25.4648C48.4972 25.4315 48.5036 25.3992 48.5101 25.366C49.0899 24.931 49.7922 25.0277 50.4451 24.9514C51.6318 24.8118 52.8227 24.712 54.0114 24.5885C54.2337 24.5649 54.4571 24.5273 54.6482 24.6937Z" fill="#A2CC46"/>
<path d="M62.2362 40.5469C62.2362 40.1002 62.2577 39.6513 62.2298 39.2057C62.2083 38.8631 62.4145 38.9104 62.6207 38.9125C62.8247 38.9147 63.0223 38.8599 63.0126 39.2068C62.9879 40.1324 62.989 41.0592 63.0116 41.9848C63.0202 42.3263 62.8258 42.2802 62.6196 42.278C62.4156 42.2759 62.2062 42.3317 62.2287 41.9838C62.2599 41.5059 62.2362 41.0259 62.2362 40.5469Z" fill="#FDFDFD"/>
<path d="M58.6948 20.7355C58.6948 20.7087 58.6991 20.6829 58.7056 20.6571C58.8849 20.4799 59.1158 20.5068 59.3348 20.5057C60.9542 20.5003 62.5747 20.5014 64.1941 20.5046C64.4153 20.5046 64.6429 20.4917 64.8266 20.6571C64.8276 20.684 64.8276 20.7097 64.8266 20.7366C62.783 20.7366 60.7384 20.7355 58.6948 20.7355Z" fill="#78C245"/>
<path d="M57.1482 31.3031C57.1482 30.9198 57.1675 30.5343 57.1418 30.152C57.1203 29.8341 57.3168 29.8867 57.5069 29.8792C57.7055 29.8706 57.8602 29.8846 57.8226 30.1498C57.8075 30.2593 57.8365 30.3764 57.8172 30.4849C57.7496 30.8725 57.9257 30.9305 58.2822 30.9563C58.8019 30.9939 58.948 30.807 58.8825 30.3259C58.8524 30.1069 58.7933 29.8674 59.2046 29.8652C59.5998 29.8642 59.5504 30.0693 59.5493 30.312C59.5461 31.0315 59.5343 31.752 59.5547 32.4704C59.5622 32.7529 59.4355 32.7722 59.2132 32.77C58.9952 32.769 58.8342 32.7582 58.8728 32.4726C58.8921 32.3308 58.8556 32.1816 58.8803 32.042C58.9576 31.5942 58.7622 31.5082 58.3413 31.4975C57.8827 31.4857 57.7571 31.6425 57.8172 32.057C57.8376 32.1977 57.8054 32.3459 57.8237 32.4876C57.8569 32.7432 57.727 32.7851 57.5155 32.7668C57.335 32.7507 57.1235 32.8291 57.1428 32.5026C57.1654 32.1042 57.1482 31.7037 57.1482 31.3031Z" fill="#16A00F"/>
<path d="M60.7004 28.0366C60.7004 27.6533 60.7198 27.2677 60.694 26.8855C60.6725 26.5665 60.8701 26.6213 61.0591 26.6127C61.2588 26.603 61.4113 26.6191 61.3748 26.8833C61.3598 26.9928 61.3888 27.1099 61.3694 27.2184C61.3018 27.6071 61.479 27.6629 61.8355 27.6887C62.3553 27.7263 62.5002 27.5384 62.4347 27.0583C62.4047 26.8393 62.3456 26.5998 62.7579 26.5977C63.1531 26.5966 63.1037 26.8028 63.1027 27.0444C63.0994 27.7639 63.0876 28.4844 63.108 29.2028C63.1155 29.4863 62.9878 29.5035 62.7665 29.5025C62.5475 29.5014 62.3875 29.4906 62.4261 29.2039C62.4455 29.0622 62.4089 28.9129 62.4336 28.7733C62.511 28.3244 62.3144 28.2407 61.8946 28.2289C61.435 28.216 61.3115 28.3749 61.3705 28.7894C61.3909 28.9301 61.3587 29.0783 61.377 29.22C61.4103 29.4756 61.2792 29.5164 61.0688 29.4982C60.8884 29.4831 60.6768 29.5594 60.6961 29.234C60.7176 28.8367 60.7004 28.4361 60.7004 28.0366Z" fill="#16A00F"/>
<path d="M66.6886 30.7804C65.9627 30.3573 65.5406 30.3648 65.2099 30.7665C64.9489 31.0833 64.9532 31.6105 65.2195 31.9176C65.5374 32.2849 66.0078 32.2774 66.6972 31.894C66.7981 32.6414 66.607 32.8626 65.8617 32.8605C65.2475 32.8594 64.6837 32.4911 64.4635 31.9477C64.237 31.385 64.3701 30.7085 64.7868 30.3069C65.2335 29.8773 65.9594 29.7678 66.5275 30.018C66.9302 30.1952 66.6467 30.4701 66.6886 30.7804Z" fill="#17A110"/>
<path d="M63.2747 36.0057C63.2747 36.8262 62.9353 37.1183 62.1654 36.9733C61.5307 36.8541 61.0937 36.4911 60.939 35.849C60.8005 35.2734 60.9562 34.7676 61.4083 34.3842C61.9055 33.9633 62.4682 33.9192 63.0685 34.1512C63.4948 34.3166 63.1576 34.6076 63.2822 34.9287C62.9321 34.7665 62.7152 34.5786 62.4188 34.584C62.1203 34.5904 61.8948 34.7075 61.7208 34.9351C61.4845 35.2444 61.5082 35.7566 61.7605 36.0487C62.0795 36.416 62.5498 36.4084 63.2747 36.0057Z" fill="#17A110"/>
<path d="M63.4788 32.8615C63.1041 32.8389 62.7819 32.9839 62.6262 32.5705C62.5714 32.4266 61.4686 32.4126 61.417 32.5554C61.2688 32.971 60.9617 32.8551 60.6191 32.8432C61.0895 31.8596 61.5459 30.9049 62.0484 29.8525C62.5456 30.8974 62.9977 31.8488 63.4788 32.8615Z" fill="#17A110"/>
<path d="M58.6838 11.0499C57.5187 11.0918 56.3578 10.9962 55.1959 10.9575C54.9962 10.9511 54.7674 10.8985 54.6504 11.1465C54.5419 11.2722 54.4098 11.3527 54.2412 11.3667C52.4683 11.517 50.7029 11.7511 48.9267 11.8703C48.785 11.88 48.64 11.8907 48.5068 11.8188C48.5068 11.6266 48.5068 11.4343 48.5068 11.2432C49.0287 10.8834 49.6441 10.9951 50.2186 10.9275C51.3869 10.79 52.5596 10.6826 53.7312 10.5699C54.8555 10.4625 55.9798 10.3422 57.1052 10.2413C58.2457 10.1393 59.385 10.0147 60.5244 9.90193C61.3158 9.82247 62.1073 9.73978 62.9009 9.66891C64.0735 9.56367 65.244 9.43695 66.4145 9.3199C67.1899 9.24258 67.9652 9.15238 68.7427 9.09439C69.9175 9.00633 71.0826 8.82915 72.2574 8.75505C72.7836 8.72176 73.3216 8.47263 73.8521 8.74539C73.9487 8.90539 74.0443 9.0654 74.141 9.22648C74.0432 9.44017 73.8446 9.44125 73.6534 9.46058C69.8444 9.84717 66.0312 10.2058 62.2222 10.5946C61.2063 10.6987 60.1894 10.7868 59.1735 10.8953C58.9985 10.9124 58.8213 10.9167 58.6838 11.0499Z" fill="#1FAE55"/>
<path d="M58.6839 11.0501C58.5207 10.8954 58.5089 10.787 58.7731 10.7634C59.863 10.6667 60.953 10.5786 62.0419 10.4713C63.1609 10.3607 64.2777 10.2253 65.3956 10.1094C66.1526 10.031 66.9118 9.97192 67.6689 9.89675C68.8673 9.77755 70.0636 9.64869 71.2621 9.53164C72.0352 9.45539 72.8095 9.38666 73.5837 9.32438C73.7738 9.30935 73.9682 9.33405 74.1411 9.22559C74.1969 9.35767 74.3473 9.4425 74.3333 9.61003C73.835 9.94829 73.2476 9.8044 72.7085 9.87849C71.1568 10.09 69.5933 10.22 68.034 10.3692C66.899 10.4788 65.7607 10.5582 64.6256 10.6699C63.5077 10.7795 62.3941 10.9341 61.2752 11.0275C60.5331 11.0898 59.79 11.1371 59.0523 11.2455C58.9288 11.2638 58.8085 11.3078 58.6872 11.3389C58.6861 11.2412 58.685 11.1456 58.6839 11.0501Z" fill="#24B055"/>
<path d="M61.3717 9.03261C61.4684 9.19261 61.5639 9.35262 61.6606 9.51262C61.4995 9.69947 61.2794 9.7188 61.0539 9.74028C59.4882 9.8874 57.9236 10.0463 56.3579 10.1956C54.9189 10.3331 53.4799 10.4823 52.0399 10.6176C51.2184 10.6949 50.3936 10.7486 49.5743 10.8646C49.2511 10.9108 48.9063 10.9817 48.6035 10.7626C48.6658 10.6423 48.712 10.5178 48.6991 10.3782C48.7979 10.2053 48.9633 10.1634 49.1437 10.143C51.0777 9.92606 53.0182 9.77035 54.9543 9.56524C56.81 9.36872 58.6688 9.19369 60.5255 9.01328C60.8069 8.98536 61.0936 8.88978 61.3717 9.03261Z" fill="#16AD56"/>
<path d="M61.3718 9.03242C60.5944 9.20316 59.7997 9.22894 59.0126 9.31699C57.8152 9.45122 56.6157 9.57042 55.4162 9.6864C54.294 9.79486 53.1697 9.87325 52.0497 9.99675C50.9328 10.1202 49.8053 10.1535 48.6992 10.3758C48.7637 10.1836 48.827 9.99138 48.8914 9.79916C49.6002 9.50062 50.3637 9.55002 51.1036 9.4727C53.5788 9.21605 56.0573 8.98624 58.5336 8.72959C59.2166 8.65872 59.9007 8.60932 60.5826 8.53415C60.7651 8.51375 60.9316 8.54596 61.0851 8.64583C61.1796 8.77577 61.2763 8.90463 61.3718 9.03242Z" fill="#12AB57"/>
<path d="M61.0837 8.64731C59.8724 8.76866 58.6611 8.89322 57.4487 9.01135C56.6766 9.08652 55.9034 9.14773 55.1313 9.22505C53.9511 9.3421 52.772 9.47633 51.5919 9.58694C50.6931 9.6707 49.7921 9.73084 48.8911 9.80064C48.9545 9.67285 49.0189 9.54398 49.0823 9.4162C49.253 9.15095 49.5387 9.13377 49.8028 9.108C51.8807 8.90611 53.9587 8.701 56.0366 8.49804C57.4165 8.36381 58.7964 8.22206 60.1763 8.08461C60.3191 8.07065 60.4609 8.05132 60.6048 8.07065C60.7637 8.26287 60.9237 8.45509 61.0837 8.64731Z" fill="#0EAA57"/>
<path d="M61.7554 9.51234C61.8198 9.35233 61.8853 9.19233 61.9497 9.03232C62.2461 8.85084 62.579 8.824 62.9141 8.79285C65.3872 8.56197 67.857 8.3021 70.3301 8.07014C71.215 7.98746 72.0956 7.81457 72.9912 7.87792C73.2339 7.9037 73.352 8.08303 73.469 8.26451C73.3563 8.50184 73.1297 8.55338 72.9085 8.57056C71.462 8.68225 70.0198 8.84332 68.5765 8.98293C67.1494 9.12038 65.7222 9.25891 64.2961 9.41784C63.5842 9.49731 62.8657 9.52737 62.1548 9.62832C62.011 9.64872 61.8638 9.63369 61.7554 9.51234Z" fill="#17AD56"/>
<path d="M60.604 8.07117C60.1734 8.3987 59.6461 8.27306 59.1714 8.33427C57.7282 8.52112 56.2731 8.60381 54.8245 8.7477C53.3608 8.89268 51.9014 9.07631 50.4377 9.21161C49.9792 9.25349 49.5207 9.25457 49.0825 9.41672C49.1126 9.15899 49.336 9.03013 49.467 8.84006C49.9717 8.47172 50.5763 8.57911 51.1347 8.52005C53.8977 8.23118 56.6629 7.97023 59.4281 7.69532C59.7051 7.6674 59.9661 7.66203 60.2206 7.78231C60.3484 7.87895 60.4762 7.9756 60.604 8.07117Z" fill="#09A958"/>
<path d="M73.8531 8.74421C72.6375 8.86663 71.4229 8.99119 70.2073 9.11039C69.4492 9.18449 68.6889 9.2457 67.9307 9.32087C66.7312 9.44007 65.5328 9.57108 64.3333 9.68813C63.5429 9.76545 62.7504 9.81914 61.9601 9.89753C60.8078 10.0124 59.6577 10.1434 58.5055 10.2594C57.7312 10.3378 56.9548 10.3958 56.1805 10.4731C54.9972 10.5912 53.8138 10.719 52.6304 10.8393C51.9195 10.9113 51.2096 11.0004 50.4966 11.0412C49.8297 11.0799 49.1682 11.1518 48.5078 11.2409C48.539 11.1765 48.5701 11.1131 48.6023 11.0487C48.67 10.9274 48.7698 10.8662 48.9116 10.8608C50.0542 10.8157 51.1892 10.6632 52.3265 10.5547C53.4304 10.4495 54.5354 10.3421 55.6372 10.21C56.3921 10.1198 57.1535 10.0651 57.9127 9.99311C58.7804 9.91042 59.648 9.81699 60.5157 9.73323C61.29 9.65806 62.0632 9.57645 62.8385 9.50772C63.6911 9.43148 64.5427 9.34557 65.3943 9.25536C66.1513 9.1759 66.9106 9.10824 67.6687 9.02985C68.5514 8.93965 69.4363 8.84837 70.3201 8.77105C71.1104 8.70125 71.8976 8.56809 72.6912 8.5595C73.0155 8.55628 73.3408 8.31144 73.6662 8.54876C73.7553 8.5885 73.8187 8.65185 73.8531 8.74421Z" fill="#1BAD56"/>
<path d="M73.664 8.55118C72.4806 8.6736 71.2972 8.79924 70.1127 8.91844C69.3535 8.99468 68.5932 9.05482 67.8351 9.12999C66.6345 9.24918 65.4361 9.3802 64.2355 9.49832C63.4613 9.57456 62.6838 9.6304 61.9095 9.70772C60.7412 9.8237 59.5739 9.95364 58.4055 10.0707C57.6313 10.148 56.8549 10.2071 56.0795 10.2833C54.8951 10.4014 53.7127 10.5335 52.5283 10.6495C51.7218 10.7279 50.911 10.7698 50.1067 10.8664C49.6042 10.9266 49.0898 10.89 48.6001 11.0511C48.6012 10.9555 48.6012 10.8589 48.6022 10.7633C49.9983 10.7247 51.3814 10.5421 52.7688 10.3928C53.8878 10.2726 55.011 10.1985 56.1311 10.0879C57.2812 9.97404 58.4281 9.82585 59.5792 9.72383C60.274 9.66262 60.9699 9.62074 61.6593 9.51443C61.6905 9.51443 61.7227 9.51443 61.7538 9.51443C62.9673 9.39201 64.1807 9.26851 65.3953 9.14932C66.1534 9.07522 66.9116 9.01293 67.6697 8.93776C68.8681 8.81857 70.0655 8.69185 71.2628 8.57158C71.6892 8.52862 72.1155 8.47386 72.5429 8.46527C72.8693 8.45882 73.1754 8.40835 73.4675 8.2666C73.5341 8.36003 73.5985 8.4556 73.664 8.55118Z" fill="#1AAD56"/>
<path d="M71.071 7.11133C71.536 7.18113 72.0214 7.17791 72.4155 7.4947C72.3167 7.74168 72.0965 7.79645 71.871 7.81471C69.7888 7.9833 67.7152 8.23996 65.633 8.41714C64.8233 8.48587 64.0136 8.5707 63.205 8.66198C62.9097 8.69527 62.6004 8.77152 62.333 8.55138C62.4554 8.35379 62.6154 8.19378 62.813 8.07028C63.2393 7.79752 63.7322 7.83618 64.2015 7.79108C66.3535 7.58812 68.4991 7.31214 70.6597 7.20583C70.8047 7.20046 70.9475 7.20153 71.071 7.11133Z" fill="#0FAB57"/>
<path d="M68.6749 12.0107C68.6749 11.754 68.6749 11.4984 68.6738 11.2418C68.9466 11.0313 69.2838 11.056 69.592 11.0313C71.1179 10.91 72.6364 10.7091 74.1623 10.5953C74.3685 10.5803 74.5833 10.5298 74.7154 10.7607C74.7744 10.9808 74.8442 11.1999 74.8099 11.434C74.1892 11.7519 73.4998 11.6788 72.8415 11.754C71.6678 11.8882 70.4919 12.0107 69.3138 12.1019C69.0926 12.1191 68.8693 12.1803 68.6749 12.0107Z" fill="#33B353"/>
<path d="M62.3331 8.5518C63.6958 8.51099 65.0435 8.31769 66.3976 8.18131C67.4994 8.06963 68.6098 8.01916 69.7051 7.86667C70.6082 7.74103 71.5447 7.84734 72.4156 7.49512C72.6271 7.59391 72.8236 7.71418 72.9911 7.87848C72.3436 8.11581 71.6553 8.07393 70.9862 8.15876C69.761 8.3134 68.5293 8.42078 67.2997 8.53783C66.1635 8.64522 65.0252 8.73757 63.8891 8.84174C63.2426 8.9008 62.5962 8.96953 61.9497 9.03288C62.0775 8.87181 62.2053 8.7118 62.3331 8.5518Z" fill="#13AC57"/>
<path d="M60.2205 7.78312C59.0049 7.90554 57.7904 8.03118 56.5748 8.1493C55.8005 8.22447 55.0241 8.28354 54.2499 8.36085C53.0665 8.47898 51.8831 8.60784 50.6997 8.72919C50.2895 8.77107 49.8771 8.80328 49.4658 8.84087C49.5485 8.49294 49.7772 8.38448 50.1241 8.35226C51.5727 8.21696 53.0192 8.04621 54.4668 7.89694C55.2228 7.81855 55.9809 7.75949 56.738 7.68754C57.6357 7.60163 58.5335 7.51787 59.4291 7.418C59.7802 7.3772 59.9864 7.59841 60.2205 7.78312Z" fill="#05A858"/>
<path d="M54.6496 16.4296C54.6496 16.654 54.6496 16.8784 54.6496 17.1018C54.3747 17.3241 54.0354 17.25 53.7272 17.2843C52.126 17.4605 50.5249 17.6248 48.9195 17.7558C48.7745 17.7676 48.6317 17.7805 48.5093 17.6785C48.5093 17.454 48.5093 17.2296 48.5093 17.0062C48.6274 16.8623 48.7831 16.7957 48.9657 16.7775C50.6323 16.6132 52.3 16.4607 53.9656 16.2932C54.1997 16.2695 54.4477 16.2556 54.6496 16.4296Z" fill="#55BB4F"/>
<path d="M54.6507 12.6835C54.6507 12.908 54.6507 13.1324 54.6507 13.3558C54.3758 13.5781 54.0364 13.504 53.7282 13.5383C52.1271 13.7166 50.5238 13.868 48.9195 14.0098C48.7745 14.0226 48.6317 14.0334 48.5093 13.9324C48.5093 13.708 48.5093 13.4836 48.5093 13.2602C48.6607 13.098 48.8583 13.0476 49.0698 13.0282C50.6881 12.879 52.3043 12.7136 53.9205 12.5547C54.1707 12.53 54.4316 12.4999 54.6507 12.6835Z" fill="#33B353"/>
<path d="M71.071 7.11094C70.7005 7.48786 70.2001 7.31819 69.7695 7.3794C68.5313 7.55766 67.2813 7.65109 66.0346 7.77244C64.9618 7.8766 63.8868 7.97217 62.813 8.07097C63.1319 7.66398 63.5754 7.44383 64.0511 7.31067C64.5548 7.16893 65.0745 7.10234 65.605 7.10664C67.4263 7.11738 69.2486 7.11094 71.071 7.11094Z" fill="#0AAA58"/>
<path d="M48.5078 17.6802C50.5524 17.4654 52.5949 17.2163 54.6492 17.1035C54.6492 17.2957 54.6492 17.488 54.6492 17.6802C54.3271 17.9068 53.9405 17.8617 53.585 17.8949C52.0601 18.0356 50.5396 18.2289 49.0115 18.3385C48.8353 18.3513 48.6603 18.3857 48.5089 18.2568C48.5078 18.0635 48.5078 17.8724 48.5078 17.6802Z" fill="#5BBC4E"/>
<path d="M48.5078 18.2555C50.0016 18.0976 51.4921 17.914 52.989 17.7937C53.541 17.7497 54.0897 17.6208 54.6492 17.6788C54.6492 17.871 54.6492 18.0632 54.6492 18.2555C54.326 18.4745 53.9437 18.4477 53.585 18.482C52.0902 18.6249 50.5965 18.786 49.1017 18.9309C48.8933 18.9513 48.6861 18.9878 48.5089 18.8321C48.5089 18.6399 48.5089 18.4477 48.5078 18.2555Z" fill="#61BD4E"/>
<path d="M54.6484 21.4269C54.6484 21.6191 54.6484 21.8113 54.6484 22.0035C54.0278 22.3225 53.3383 22.2484 52.6801 22.3235C51.5063 22.4578 50.3272 22.5587 49.1503 22.6715C48.928 22.6929 48.7035 22.7488 48.5103 22.5802C48.5103 22.388 48.5103 22.1957 48.5103 22.0035C49.0719 21.6674 49.7151 21.7598 50.3197 21.6878C51.5332 21.5439 52.752 21.443 53.9665 21.313C54.2039 21.2883 54.4444 21.2518 54.6484 21.4269Z" fill="#84C54A"/>
<path d="M54.6504 13.8363C54.6504 14.0285 54.6504 14.2207 54.6504 14.4129C54.3282 14.6492 53.9395 14.5794 53.5851 14.6137C52.0452 14.7641 50.5096 14.9584 48.9654 15.0615C48.8064 15.0723 48.6454 15.1023 48.5068 14.9885C48.5068 14.7963 48.5068 14.6041 48.5068 14.4119C48.6464 14.2647 48.8236 14.2046 49.0201 14.1853C50.6685 14.0263 52.319 13.8857 53.9663 13.7031C54.2015 13.6773 54.4474 13.6623 54.6504 13.8363Z" fill="#3CB552"/>
<path d="M54.6493 14.7965C54.6493 14.9887 54.6493 15.1809 54.6493 15.3731C54.3272 15.6094 53.9384 15.5385 53.583 15.575C52.0431 15.7339 50.5042 15.9015 48.9622 16.0368C48.8011 16.0507 48.6421 16.0647 48.5068 15.9498C48.5068 15.7576 48.5068 15.5654 48.5068 15.3731C48.6851 15.182 48.9203 15.1541 49.163 15.1347C50.7029 15.0102 52.2385 14.8416 53.7752 14.6837C54.0737 14.6536 54.3809 14.5871 54.6493 14.7965Z" fill="#45B751"/>
<path d="M54.6492 16.4302C53.2543 16.4667 51.8733 16.6525 50.4891 16.7964C49.8287 16.8651 49.1629 16.8802 48.5078 17.0058C48.5078 16.8136 48.5078 16.6214 48.5078 16.4291C48.6592 16.267 48.8568 16.2165 49.0684 16.1972C50.6856 16.0479 52.3018 15.8826 53.9179 15.7236C54.1692 15.6989 54.4302 15.6689 54.6492 15.8525C54.6492 16.0458 54.6492 16.238 54.6492 16.4302Z" fill="#4FB950"/>
<path d="M54.6504 11.6265C54.6504 11.8188 54.6504 12.011 54.6504 12.2032C54.2949 12.4609 53.8761 12.3256 53.4895 12.3782C52.1172 12.5672 50.7351 12.666 49.3573 12.8142C49.0781 12.8443 48.786 12.8916 48.5068 12.7788C48.5068 12.5866 48.5068 12.3944 48.5068 12.2021C48.6851 12.0121 48.9203 11.9831 49.163 11.9637C50.7029 11.8392 52.2396 11.6706 53.7763 11.5127C54.0748 11.4826 54.3809 11.4161 54.6504 11.6265Z" fill="#28B054"/>
<path d="M54.6481 18.6399C54.6481 18.8321 54.6481 19.0243 54.6481 19.2165C54.5354 19.3196 54.3958 19.3432 54.2508 19.3572C52.5047 19.5204 50.7608 19.7062 49.0136 19.8598C48.8407 19.8748 48.6624 19.9188 48.5078 19.7932C48.5078 19.601 48.5078 19.4088 48.5089 19.2165C49.1296 18.8976 49.819 18.9717 50.4783 18.8965C51.6521 18.7623 52.829 18.6399 54.0081 18.5475C54.2315 18.5303 54.4549 18.4713 54.6481 18.6399Z" fill="#6ABF4D"/>
<path d="M74.7165 10.7612C74.375 10.5829 74.0271 10.7558 73.6931 10.7795C72.5881 10.8579 71.4885 11.0168 70.3856 11.1285C69.8176 11.1854 69.2452 11.2069 68.6739 11.2434C68.6728 11.1789 68.6707 11.1145 68.6696 11.0512C68.6138 10.9008 68.3797 11.0254 68.3335 10.8095C69.0884 10.729 69.8337 10.6474 70.58 10.5711C71.7892 10.4487 72.9994 10.3338 74.2075 10.2049C74.3611 10.1888 74.4889 10.2135 74.6177 10.2812C74.651 10.4412 74.6843 10.6012 74.7165 10.7612Z" fill="#2DB154"/>
<path d="M48.5068 12.7793C48.9063 12.5635 49.3573 12.6558 49.7718 12.6257C51.3998 12.5044 53.0117 12.1876 54.6504 12.2037C54.6504 12.3637 54.6504 12.5237 54.6504 12.6837C53.2877 12.7256 51.9389 12.9092 50.5848 13.0488C49.8921 13.1208 49.1963 13.1552 48.5068 13.2604C48.5068 13.1004 48.5068 12.9393 48.5068 12.7793Z" fill="#2CB154"/>
<path d="M54.6495 19.6009C54.6495 19.7609 54.6495 19.9209 54.6495 20.0809C54.0288 20.3999 53.3383 20.3215 52.6801 20.402C51.5074 20.5438 50.3272 20.6372 49.1503 20.7489C48.928 20.7703 48.7035 20.8262 48.5103 20.6576C48.5103 20.4976 48.5103 20.3376 48.5103 20.1776C49.0504 19.8211 49.6808 19.9327 50.2703 19.8586C51.4988 19.7029 52.737 19.6235 53.9687 19.4882C54.2039 19.4613 54.4444 19.4259 54.6495 19.6009Z" fill="#72C14C"/>
<path d="M54.6485 20.5622C54.6485 20.7222 54.6485 20.8822 54.6485 21.0422C54.3253 21.2613 53.9441 21.2355 53.5854 21.2688C52.0906 21.4041 50.6012 21.5899 49.1042 21.7026C48.898 21.7177 48.6897 21.7757 48.5093 21.6189C48.5093 21.4589 48.5093 21.2989 48.5093 21.1389C49.0108 20.7695 49.6132 20.8811 50.1695 20.8221C51.4023 20.69 52.6372 20.5751 53.8711 20.4494C54.1385 20.4215 54.4123 20.3678 54.6485 20.5622Z" fill="#7BC34B"/>
<path d="M54.6485 22.4837C54.6485 22.6437 54.6485 22.8037 54.6485 22.9637C54.0278 23.2827 53.3384 23.2086 52.6791 23.2838C51.5053 23.418 50.3263 23.5189 49.1493 23.6317C48.927 23.6532 48.7026 23.709 48.5093 23.5404C48.5093 23.3804 48.5093 23.2204 48.5093 23.0604C49.0484 22.7039 49.6798 22.8155 50.2683 22.7414C51.4968 22.5857 52.7349 22.5063 53.9656 22.371C54.204 22.3441 54.4445 22.3087 54.6485 22.4837Z" fill="#8DC749"/>
<path d="M68.6753 12.0112C69.8855 11.8888 71.0947 11.7621 72.3049 11.6472C73.1393 11.5677 73.9748 11.5054 74.8103 11.4346C74.8124 11.5946 74.8146 11.7535 74.8178 11.9135C73.6065 12.0349 72.3951 12.1616 71.1838 12.2776C70.3484 12.357 69.5118 12.4214 68.6753 12.4923C68.6764 12.3312 68.6753 12.1712 68.6753 12.0112Z" fill="#39B452"/>
<path d="M54.6484 23.7325C54.6484 23.8925 54.6484 24.0526 54.6484 24.2126C54.0653 24.5519 53.4028 24.4574 52.7767 24.5326C51.5708 24.6765 50.3605 24.7871 49.1503 24.8955C48.9258 24.9159 48.7025 24.9567 48.5103 24.7892C48.5103 24.6292 48.5103 24.4692 48.5103 24.3092C49.1309 23.9903 49.8204 24.0579 50.4786 23.9903C51.6545 23.8689 52.8304 23.7433 54.0073 23.6402C54.2307 23.6209 54.4541 23.5639 54.6484 23.7325Z" fill="#99CA47"/>
<path d="M54.6503 13.8365C53.2876 13.8773 51.9399 14.077 50.5857 14.2026C49.892 14.2671 49.1972 14.3057 48.5078 14.4131C48.5078 14.2531 48.5078 14.0931 48.5078 13.9331C50.5524 13.7065 52.596 13.4724 54.6503 13.3564C54.6503 13.5154 54.6503 13.6754 54.6503 13.8365Z" fill="#38B452"/>
<path d="M48.5103 24.7905C49.7559 24.7014 50.9973 24.5768 52.2376 24.4297C53.0387 24.3341 53.8441 24.2847 54.6484 24.2139C54.6484 24.3739 54.6484 24.5339 54.6484 24.6939C53.435 24.8163 52.2226 24.9581 51.007 25.0536C50.1683 25.1191 49.335 25.1954 48.5103 25.3661C48.5103 25.1739 48.5103 24.9817 48.5103 24.7905Z" fill="#9ECB47"/>
<path d="M54.6492 15.8544C53.2876 15.8963 51.9377 16.0799 50.5847 16.2195C49.8931 16.2915 49.1962 16.3237 48.5078 16.4311C48.5078 16.2711 48.5078 16.1111 48.5078 15.9511C49.9693 15.7932 51.4287 15.6085 52.8945 15.4893C53.4776 15.442 54.0586 15.311 54.6503 15.3744C54.6492 15.5333 54.6492 15.6933 54.6492 15.8544Z" fill="#4BB850"/>
<path d="M54.6485 22.483C53.3706 22.5668 52.097 22.6957 50.8245 22.8439C50.0546 22.9341 49.2814 22.9888 48.5093 23.0586C48.5093 22.8986 48.5093 22.7386 48.5093 22.5786C49.7195 22.4573 50.9298 22.3295 52.1411 22.2146C52.9755 22.1351 53.812 22.0718 54.6475 22.002C54.6485 22.163 54.6485 22.323 54.6485 22.483Z" fill="#89C649"/>
<path d="M54.6485 20.5621C53.3674 20.6105 52.097 20.7855 50.8245 20.924C50.0546 21.0078 49.2814 21.0679 48.5093 21.1377C48.5093 20.9777 48.5093 20.8177 48.5093 20.6577C49.7195 20.5364 50.9298 20.4086 52.1411 20.2937C52.9755 20.2142 53.812 20.1509 54.6485 20.0811C54.6485 20.2411 54.6485 20.4021 54.6485 20.5621Z" fill="#77C24B"/>
<path d="M54.6505 11.6265C53.3189 11.6662 52.0013 11.8477 50.6804 11.997C49.9577 12.0786 49.2307 12.1355 48.5059 12.2032C48.5059 12.0754 48.5059 11.9465 48.5059 11.8187C48.9225 11.605 49.3843 11.7189 49.8224 11.6544C50.936 11.4912 52.0689 11.4686 53.1868 11.3237C53.6744 11.2603 54.1758 11.3129 54.6494 11.1465C54.6505 11.3054 54.6505 11.4665 54.6505 11.6265Z" fill="#23AF55"/>
<path d="M54.6495 19.6012C53.3716 19.685 52.098 19.8139 50.8255 19.9631C50.0555 20.0533 49.2824 20.1081 48.5103 20.1779C48.5103 20.0501 48.5103 19.9212 48.5103 19.7935C50.5538 19.5658 52.5963 19.3296 54.6506 19.2168C54.6495 19.3446 54.6495 19.4734 54.6495 19.6012Z" fill="#6EC04C"/>
<path d="M54.6485 18.6404C53.4383 18.7617 52.2281 18.8885 51.0167 19.0034C50.1824 19.0828 49.3458 19.1462 48.5093 19.216C48.5093 19.0882 48.5093 18.9593 48.5093 18.8315C49.6884 18.7091 50.8664 18.5803 52.0466 18.4686C52.9132 18.3859 53.7819 18.3258 54.6496 18.2549C54.6485 18.3848 54.6485 18.5126 54.6485 18.6404Z" fill="#66BE4D"/>
<path d="M54.6484 23.7319C53.4704 23.8532 52.2924 23.9821 51.1122 24.0948C50.2456 24.1775 49.3779 24.2377 48.5103 24.3085C48.5103 24.1808 48.5103 24.0519 48.5103 23.9241C49.088 23.5858 49.7463 23.6717 50.367 23.6073C51.5665 23.4817 52.766 23.3603 53.9665 23.2476C54.2039 23.225 54.4423 23.1702 54.6484 23.3485C54.6484 23.4763 54.6484 23.6041 54.6484 23.7319Z" fill="#95C948"/>
<path d="M48.5093 21.6187C49.6884 21.4962 50.8664 21.3674 52.0455 21.2557C52.9121 21.173 53.7809 21.1129 54.6485 21.042C54.6485 21.1698 54.6485 21.2986 54.6485 21.4264C53.4007 21.4984 52.1615 21.6487 50.9212 21.7872C50.1201 21.8775 49.3136 21.9322 48.5104 22.002C48.5093 21.8753 48.5093 21.7464 48.5093 21.6187Z" fill="#7FC44A"/>
<path d="M54.6484 23.3483C53.4382 23.4697 52.228 23.5964 51.0166 23.7113C50.1823 23.7907 49.3457 23.8541 48.5103 23.925C48.5103 23.7972 48.5103 23.6683 48.5103 23.5405C49.7205 23.4192 50.9307 23.2914 52.1421 23.1765C52.9764 23.097 53.813 23.0337 54.6484 22.9639C54.6484 23.0927 54.6484 23.2205 54.6484 23.3483Z" fill="#91C848"/>
<path d="M54.6493 14.7966C53.3188 14.8363 52.0012 15.0178 50.6803 15.167C49.9576 15.2486 49.2317 15.3056 48.5068 15.3732C48.5068 15.2454 48.5068 15.1166 48.5068 14.9888C50.5536 14.7901 52.594 14.5152 54.6493 14.4121C54.6504 14.541 54.6493 14.6688 54.6493 14.7966Z" fill="#42B651"/>
<path d="M64.8264 20.6566C62.786 20.6566 60.7457 20.6566 58.7054 20.6566C58.7021 20.5599 58.7 20.4622 58.6968 20.3655C58.7677 20.2528 58.685 20.0724 58.8546 20.0026C59.9092 19.8372 60.9744 19.761 62.0365 19.6611C62.814 19.5881 63.5882 19.4818 64.3689 19.4452C64.5257 19.4377 64.6878 19.3948 64.8307 19.5043C64.8296 19.8887 64.8285 20.2721 64.8264 20.6566Z" fill="#7BC44B"/>
<path d="M58.6935 15.9481C58.6935 15.6914 58.6924 15.4359 58.6924 15.1792C58.7439 14.9634 58.8921 14.8753 59.1037 14.8528C60.8906 14.6595 62.6818 14.4952 64.4708 14.318C64.6018 14.3051 64.7253 14.3255 64.8295 14.4135C64.8295 14.6702 64.8295 14.9258 64.8295 15.1824C64.4923 15.5186 64.0445 15.4112 63.645 15.4541C61.9945 15.6313 60.3461 15.8128 58.6935 15.9481Z" fill="#4DB950"/>
<path d="M58.6905 13.9321C58.6905 13.7077 58.6895 13.4822 58.6895 13.2578C58.7915 13.0537 58.9869 13.0398 59.1791 13.0172C60.9231 12.8132 62.6735 12.6639 64.4206 12.4942C64.5678 12.4803 64.7084 12.4835 64.8276 12.5866C64.8276 12.811 64.8276 13.0355 64.8276 13.2588C64.4325 13.6261 63.9181 13.5037 63.4617 13.5541C62.042 13.7131 60.6181 13.8301 59.1985 13.9815C59.0288 14.0019 58.8495 14.0503 58.6905 13.9321Z" fill="#3BB552"/>
<path d="M64.8274 14.4131C63.3616 14.572 61.898 14.7481 60.43 14.877C60.0037 14.9146 59.5763 14.9618 59.1489 14.9822C58.9588 14.9908 58.8085 15.0284 58.6914 15.1787C58.6914 14.9231 58.6914 14.6676 58.6914 14.4131C58.9341 14.1467 59.2713 14.1811 59.5806 14.1478C61.1591 13.976 62.7388 13.8289 64.3206 13.6861C64.4903 13.671 64.6696 13.6216 64.8274 13.7408C64.8274 13.9642 64.8274 14.1886 64.8274 14.4131Z" fill="#45B751"/>
<path d="M58.7805 20.0808C58.7773 20.1828 58.7977 20.2913 58.6978 20.3653C58.6978 20.0453 58.6968 19.7253 58.6968 19.4053C58.7687 19.2926 58.686 19.1122 58.8546 19.0424C59.9092 18.8759 60.9755 18.8072 62.0365 18.6976C62.8129 18.6171 63.5871 18.5086 64.3689 18.4839C64.5257 18.4786 64.6878 18.4345 64.8307 18.5441C64.8307 18.7363 64.8317 18.9285 64.8317 19.1207C64.3689 19.502 63.7922 19.3774 63.2703 19.4332C61.9731 19.5728 60.6727 19.6888 59.3744 19.8306C59.1499 19.8542 58.9266 19.8757 58.7805 20.0808Z" fill="#73C14C"/>
<path d="M58.688 12.7774C58.688 12.5863 58.688 12.3941 58.688 12.2029C59.0198 11.8754 59.4655 11.9409 59.8628 11.9022C61.3501 11.7562 62.8342 11.5822 64.3236 11.4641C64.4965 11.4501 64.6737 11.404 64.8272 11.5307C64.8272 11.7229 64.8272 11.9151 64.8272 12.1073C64.6103 12.3071 64.3376 12.321 64.0659 12.3425C62.5378 12.4639 61.0161 12.6389 59.4912 12.7903C59.2238 12.8172 58.9543 12.887 58.688 12.7774Z" fill="#32B353"/>
<path d="M58.7805 19.1201C58.7773 19.2221 58.7977 19.3317 58.6968 19.4047C58.6968 19.0524 58.6968 18.6991 58.6968 18.3469C58.7419 18.1547 58.8611 18.0495 59.0608 18.0301C60.895 17.8508 62.728 17.6532 64.5643 17.4975C64.6621 17.4889 64.7523 17.52 64.8307 17.5823C64.8307 17.7423 64.8307 17.9023 64.8307 18.0623C64.7115 18.2062 64.5568 18.2707 64.3732 18.2879C62.756 18.4414 61.1409 18.6272 59.5226 18.77C59.2165 18.799 58.9599 18.8592 58.7805 19.1201Z" fill="#69BF4D"/>
<path d="M64.8275 13.7398C64.0103 13.8354 63.1942 13.9481 62.3759 14.0233C61.1463 14.1371 59.9125 14.2176 58.6915 14.412C58.6915 14.252 58.6904 14.092 58.6904 13.932C59.4174 13.7516 60.1659 13.7419 60.9037 13.6528C62.2084 13.4939 63.5196 13.3876 64.8275 13.2598C64.8275 13.4198 64.8275 13.5798 64.8275 13.7398Z" fill="#42B651"/>
<path d="M58.6959 17.8683C58.6959 17.7083 58.6959 17.5483 58.6948 17.3883C58.7485 17.1037 58.974 17.0801 59.2006 17.0511C60.4474 16.8922 61.7006 16.8009 62.9505 16.6753C63.4091 16.6291 63.8665 16.57 64.3283 16.541C64.5033 16.5303 64.6784 16.4949 64.8287 16.6227C64.8287 16.7827 64.8287 16.9427 64.8287 17.1027C64.4915 17.4388 64.0448 17.3303 63.6453 17.3754C61.998 17.5601 60.3464 17.7126 58.6959 17.8683Z" fill="#60BD4E"/>
<path d="M58.6958 17.8681C59.0781 17.5277 59.5699 17.6587 60.0059 17.5996C61.2301 17.4321 62.4629 17.3312 63.6935 17.2173C64.0726 17.183 64.456 17.1991 64.8297 17.1035C64.8297 17.2635 64.8297 17.4235 64.8308 17.5835C63.5529 17.7113 62.2761 17.8413 60.9982 17.968C60.3356 18.0335 59.673 18.1033 59.0094 18.1559C58.8569 18.1677 58.7914 18.2697 58.6958 18.3481C58.6958 18.1881 58.6958 18.0281 58.6958 17.8681Z" fill="#65BE4D"/>
<path d="M58.688 12.7776C59.3452 12.5704 60.0357 12.5929 60.7079 12.507C62.076 12.333 63.4538 12.2353 64.8272 12.1064C64.8272 12.2665 64.8272 12.4265 64.8272 12.5865C63.3303 12.7443 61.8344 12.9161 60.3353 13.0547C59.7833 13.1051 59.2292 13.1169 58.6891 13.2576C58.6891 13.0987 58.6891 12.9376 58.688 12.7776Z" fill="#35B453"/>
<path d="M58.6935 16.9073C58.6935 16.7795 58.6924 16.6507 58.6924 16.5229C58.7235 16.2491 58.8663 16.1223 59.152 16.0944C60.8916 15.9269 62.6281 15.725 64.371 15.5897C64.5299 15.5779 64.6888 15.5478 64.8273 15.6617C64.8273 15.8217 64.8273 15.9817 64.8273 16.1417C64.4902 16.4778 64.0434 16.3747 63.6429 16.4134C61.9945 16.5766 60.3461 16.7613 58.6935 16.9073Z" fill="#57BB4F"/>
<path d="M64.8284 11.5312C63.5516 11.659 62.2737 11.7803 60.998 11.9178C60.2269 12.0005 59.458 12.1079 58.6881 12.2035C58.6881 12.0746 58.687 11.9468 58.687 11.8179C59.0457 11.5602 59.4806 11.5892 59.879 11.5441C61.4211 11.3723 62.9696 11.2585 64.5127 11.1027C64.9176 11.0619 64.7994 11.3336 64.8284 11.5312Z" fill="#2CB154"/>
<path d="M64.8284 15.6626C63.5226 15.7904 62.2168 15.9182 60.911 16.0481C60.2817 16.1104 59.6535 16.192 59.0231 16.2318C58.8008 16.2457 58.8041 16.4304 58.6924 16.5239C58.6924 16.3327 58.6924 16.1405 58.6924 15.9494C59.0274 15.6089 59.4849 15.7518 59.8736 15.6959C60.984 15.5348 62.1094 15.4801 63.2273 15.3727C63.7621 15.3211 64.2947 15.247 64.8273 15.1826C64.8284 15.3415 64.8284 15.5016 64.8284 15.6626Z" fill="#53BA4F"/>
<path d="M58.6934 16.9073C59.0757 16.5669 59.5675 16.6979 60.0035 16.6377C61.2277 16.4702 62.4605 16.3693 63.6922 16.2554C64.0713 16.22 64.4557 16.2382 64.8283 16.1416C64.8283 16.3016 64.8283 16.4616 64.8283 16.6216C63.3314 16.7805 61.8355 16.9588 60.3364 17.0845C59.9251 17.1188 59.517 17.2058 59.1036 17.1929C58.9221 17.1875 58.8007 17.2595 58.6944 17.3862C58.6944 17.2273 58.6944 17.0673 58.6934 16.9073Z" fill="#5CBC4E"/>
<path d="M58.7804 19.1202C58.7428 18.7754 58.8813 18.6541 59.2411 18.6305C60.7616 18.5317 62.2779 18.3803 63.7889 18.1762C64.1346 18.129 64.4933 18.1988 64.8305 18.0635C64.8305 18.2235 64.8305 18.3835 64.8305 18.5435C64.0455 18.6369 63.2627 18.7712 62.4755 18.8141C61.2395 18.8818 60.0207 19.1287 58.7804 19.1202Z" fill="#6EC04C"/>
<path d="M58.7808 20.0812C58.7915 19.9137 58.7367 19.7204 59.0116 19.6968C60.0383 19.6066 61.0638 19.5099 62.0893 19.4079C63.0043 19.3166 63.917 19.2168 64.8309 19.1201C64.8309 19.2479 64.8309 19.3768 64.8309 19.5046C64.0781 19.598 63.3264 19.7387 62.5715 19.773C61.3033 19.831 60.0522 20.0887 58.7808 20.0812Z" fill="#77C24B"/>
<path d="M59.5481 40.549C59.5481 40.5167 59.5384 40.4813 59.5492 40.4534C59.6544 40.2064 59.3043 39.8069 59.7414 39.6931C60.2289 39.5664 60.8314 39.9207 60.9592 40.332C61.0859 40.7401 60.9173 41.146 60.5307 41.3436C60.3159 41.4531 60.085 41.4993 59.8402 41.5122C59.6093 41.524 59.5234 41.4553 59.5438 41.219C59.5631 40.9978 59.5481 40.7734 59.5481 40.549Z" fill="#17A110"/>
<path d="M74.8113 15.3742C74.8113 15.6309 74.8113 15.8864 74.8113 16.1431C74.2669 16.4985 73.6333 16.3965 73.0405 16.4599C71.8335 16.5887 70.6244 16.7069 69.4152 16.8239C69.1618 16.8486 68.904 16.912 68.6817 16.7198C68.6817 16.4631 68.6807 16.2075 68.6807 15.9509C68.9685 15.7329 69.3207 15.7629 69.6461 15.7318C71.1871 15.5847 72.7259 15.4215 74.2669 15.2679C74.4613 15.2486 74.6513 15.2303 74.8113 15.3742Z" fill="#5FBD4E"/>
<path d="M74.811 17.6803C74.811 17.9369 74.811 18.1925 74.811 18.4491C74.1914 18.7681 73.502 18.6908 72.8448 18.7681C71.6883 18.9045 70.5285 19.0118 69.3687 19.1225C69.1314 19.145 68.8908 19.2105 68.6836 19.0258C68.6836 18.7691 68.6836 18.5136 68.6836 18.2569C68.9531 18.0454 69.2817 18.0475 69.5964 18.0228C71.1084 17.9025 72.615 17.7243 74.1248 17.5804C74.3632 17.5578 74.6038 17.5009 74.811 17.6803Z" fill="#73C24C"/>
<path d="M74.8121 13.4533C74.8121 13.7089 74.8121 13.9656 74.8121 14.2211C74.229 14.5573 73.5675 14.4628 72.9415 14.5401C71.7377 14.6904 70.5253 14.7753 69.3182 14.9009C69.0949 14.9245 68.8704 14.9664 68.6793 14.7967C68.6793 14.5412 68.6782 14.2845 68.6782 14.0278C68.9671 13.8152 69.3139 13.8249 69.6426 13.7991C71.1556 13.6788 72.6622 13.506 74.1721 13.3588C74.3955 13.3384 74.6188 13.2837 74.8121 13.4533Z" fill="#4DB950"/>
<path d="M74.8119 21.5231C74.8119 21.7475 74.8119 21.9719 74.8119 22.1953C74.6584 22.3907 74.4404 22.4154 74.2127 22.4348C72.691 22.5636 71.1715 22.7269 69.652 22.8815C69.3256 22.9148 68.9852 23.0018 68.6855 22.773C68.6855 22.5486 68.6855 22.3242 68.6855 22.1008C68.9733 21.8828 69.3256 21.9129 69.6499 21.8817C71.1898 21.7346 72.7286 21.5725 74.2675 21.4178C74.4618 21.3974 74.6519 21.3802 74.8119 21.5231Z" fill="#98CA47"/>
<path d="M68.6836 19.0259C69.8917 18.9035 71.0998 18.7757 72.3089 18.6608C73.1423 18.5813 73.9767 18.519 74.811 18.4492C74.811 18.6737 74.811 18.897 74.811 19.1215C74.5973 19.3223 74.3257 19.3362 74.055 19.3588C72.5366 19.4812 71.0225 19.6519 69.5062 19.8023C69.2248 19.8302 68.9359 19.9075 68.6847 19.6981C68.6847 19.4737 68.6836 19.2503 68.6836 19.0259Z" fill="#7CC44B"/>
<path d="M68.6856 22.772C70.0462 22.7419 71.3907 22.5454 72.7405 22.4026C73.431 22.3295 74.128 22.322 74.812 22.1953C74.812 22.4197 74.812 22.6431 74.812 22.8676C74.6939 23.0114 74.5393 23.0791 74.3556 23.0963C72.6922 23.252 71.0299 23.427 69.3665 23.5795C69.1334 23.601 68.8843 23.6257 68.6846 23.4442C68.6856 23.2208 68.6856 22.9964 68.6856 22.772Z" fill="#9FCC47"/>
<path d="M74.8109 15.3744C73.634 15.4958 72.457 15.6225 71.279 15.7352C70.4135 15.8179 69.5469 15.8802 68.6803 15.9511C68.6803 15.7266 68.6792 15.5022 68.6792 15.2778C68.9681 15.0652 69.3149 15.0748 69.6435 15.049C71.1555 14.9309 72.6611 14.7451 74.172 14.6088C74.3943 14.5884 74.6176 14.5314 74.8109 14.7011C74.8109 14.9255 74.8109 15.15 74.8109 15.3744Z" fill="#57BB4F"/>
<path d="M74.8122 13.4529C73.6342 13.5742 72.4572 13.702 71.2781 13.8137C70.4126 13.8964 69.5449 13.9576 68.6783 14.0295C68.6783 13.8051 68.6772 13.5807 68.6772 13.3562C68.9822 13.1372 69.3495 13.164 69.691 13.1329C71.2169 12.9943 72.7386 12.8086 74.2656 12.6883C74.4578 12.6732 74.649 12.6367 74.8122 12.7806C74.8122 13.004 74.8122 13.2284 74.8122 13.4529Z" fill="#46B751"/>
<path d="M74.8131 23.4441C74.8131 23.6363 74.8131 23.8285 74.8131 24.0207C74.695 24.1636 74.5403 24.2323 74.3567 24.2495C72.6933 24.4052 71.031 24.5802 69.3665 24.7338C69.1334 24.7553 68.8843 24.781 68.6846 24.5985C68.6846 24.4063 68.6846 24.214 68.6846 24.0218C68.793 23.9101 68.9359 23.894 69.0798 23.8811C70.8226 23.7147 72.5634 23.5321 74.3073 23.3786C74.4813 23.3614 74.6585 23.3184 74.8131 23.4441Z" fill="#AACE45"/>
<path d="M74.8109 20.3699C74.8109 20.5621 74.8109 20.7543 74.8109 20.9466C74.3277 21.316 73.7392 21.1957 73.2012 21.2601C71.9416 21.4094 70.6755 21.52 69.4116 21.6403C69.1614 21.6639 68.9026 21.7144 68.6846 21.5232C68.6846 21.331 68.6846 21.1388 68.6846 20.9466C68.9713 20.7211 69.3267 20.7715 69.6489 20.7404C71.2189 20.5922 72.7856 20.4236 74.3567 20.2818C74.5189 20.2679 74.6767 20.2529 74.8109 20.3699Z" fill="#8DC749"/>
<path d="M74.8111 16.6237C74.8111 16.816 74.8111 17.0082 74.8111 17.2004C74.2678 17.5569 73.6331 17.4442 73.0403 17.5193C71.8204 17.674 70.5909 17.7545 69.3677 17.8877C69.1304 17.9134 68.8877 17.9585 68.6826 17.7771C68.6826 17.5848 68.6826 17.3926 68.6826 17.2004C68.9704 16.976 69.3259 17.0275 69.648 16.9953C71.2169 16.8364 72.7858 16.6807 74.3569 16.5368C74.518 16.5217 74.6758 16.5056 74.8111 16.6237Z" fill="#6ABF4D"/>
<path d="M74.813 23.4448C72.7737 23.6714 70.7355 23.9077 68.6855 24.0215C68.6855 23.8293 68.6855 23.637 68.6855 23.4448C70.0773 23.4126 71.454 23.2236 72.836 23.0776C73.4943 23.0078 74.159 22.9938 74.813 22.8682C74.813 23.0604 74.813 23.2526 74.813 23.4448Z" fill="#A4CD46"/>
<path d="M68.6855 21.523C70.0107 21.4596 71.3272 21.3114 72.6438 21.1525C73.3644 21.0655 74.0892 21.0139 74.8119 20.9463C74.8119 21.1385 74.8119 21.3307 74.813 21.523C73.636 21.6443 72.4602 21.771 71.2832 21.8838C70.4188 21.9665 69.5522 22.0287 68.6866 22.1007C68.6855 21.9074 68.6855 21.7152 68.6855 21.523Z" fill="#91C848"/>
<path d="M68.6855 24.5981C70.0773 24.5659 71.455 24.3769 72.836 24.2309C73.4943 24.1611 74.159 24.1471 74.813 24.0215C74.813 24.2137 74.8141 24.4059 74.8141 24.5981C73.461 24.6196 72.1262 24.8376 70.7828 24.9568C70.0869 25.018 69.39 25.1351 68.6855 25.0792C68.6855 24.9182 68.6855 24.7582 68.6855 24.5981Z" fill="#AFCF45"/>
<path d="M74.8111 16.6236C73.3206 16.7814 71.8312 16.9447 70.3407 17.0928C69.7898 17.1476 69.2357 17.1659 68.6837 17.2002C68.6837 17.0402 68.6837 16.8802 68.6826 16.7202C69.9283 16.645 71.1654 16.4969 72.4046 16.3573C73.2046 16.267 74.009 16.2134 74.8111 16.1436C74.8111 16.3036 74.8111 16.4636 74.8111 16.6236Z" fill="#66BE4D"/>
<path d="M74.8109 19.5052C74.8109 19.6652 74.8109 19.8252 74.8109 19.9852C74.3277 20.3546 73.7392 20.2343 73.2012 20.2988C71.9405 20.448 70.6734 20.5393 69.4116 20.6789C69.1614 20.7068 68.9026 20.753 68.6846 20.5618C68.6846 20.4018 68.6846 20.2418 68.6846 20.0818C68.9713 19.8563 69.3267 19.9079 69.65 19.8757C71.2189 19.7189 72.7867 19.5503 74.3578 19.4171C74.5189 19.4042 74.6767 19.3881 74.8109 19.5052Z" fill="#84C54A"/>
<path d="M74.8109 14.7006C73.634 14.822 72.457 14.9498 71.279 15.0614C70.4135 15.1441 69.5458 15.2053 68.6803 15.2773C68.6803 15.1173 68.6803 14.9573 68.6792 14.7973C69.9206 14.6748 71.1609 14.5492 72.4033 14.4322C73.2055 14.3559 74.0088 14.2915 74.812 14.2217C74.812 14.3806 74.8109 14.5406 74.8109 14.7006Z" fill="#53BA4F"/>
<path d="M68.6826 17.7759C69.9584 17.6921 71.2298 17.5611 72.4991 17.4129C73.2669 17.3238 74.0401 17.269 74.8101 17.1992C74.8101 17.3592 74.8101 17.5192 74.8101 17.6792C73.602 17.8006 72.3939 17.9251 71.1847 18.0411C70.3514 18.1206 69.517 18.185 68.6826 18.257C68.6837 18.097 68.6837 17.937 68.6826 17.7759Z" fill="#6EC04C"/>
<path d="M74.8133 12.7796C73.6353 12.901 72.4572 13.0288 71.2792 13.1404C70.4137 13.2231 69.5449 13.2843 68.6783 13.3552C68.6783 13.2274 68.6772 13.0986 68.6772 12.9708C69.8574 12.8483 71.0376 12.7238 72.2188 12.6035C72.9437 12.5294 73.6696 12.465 74.3945 12.392C74.6844 12.364 74.8659 12.4414 74.8133 12.7796Z" fill="#41B651"/>
<path d="M68.6846 20.562C70.0097 20.4987 71.3252 20.3333 72.6428 20.1905C73.3645 20.1121 74.0882 20.053 74.8109 19.9854C74.8109 20.1131 74.8109 20.242 74.8109 20.3698C73.3215 20.5277 71.8321 20.6909 70.3415 20.8391C69.7917 20.8938 69.2376 20.9121 68.6856 20.9465C68.6856 20.8187 68.6846 20.6898 68.6846 20.562Z" fill="#88C649"/>
<path d="M74.8109 19.5055C73.3215 19.6634 71.8321 19.8266 70.3415 19.9748C69.7917 20.0296 69.2376 20.0478 68.6846 20.0822C68.6846 19.9544 68.6846 19.8255 68.6846 19.6978C69.9635 19.6441 71.2296 19.4733 72.5 19.3337C73.2689 19.25 74.0399 19.1909 74.8109 19.1211C74.8109 19.2489 74.8109 19.3767 74.8109 19.5055Z" fill="#80C54A"/>
<path d="M68.7643 41.2015C68.4733 41.2015 68.2091 41.2015 67.917 41.2015C68.004 40.859 68.1575 40.5561 68.3326 40.2275C68.5269 40.54 68.6461 40.8547 68.7643 41.2015Z" fill="#1CA316"/>
<path d="M62.0066 31.0801C62.1623 31.413 62.3792 31.6814 62.3019 31.9317C62.2504 32.0981 61.9121 31.9725 61.6426 31.9972C61.765 31.69 61.8713 31.4216 62.0066 31.0801Z" fill="#F6FAF6"/>
<path d="M51.1912 64.6806C49.9844 64.6806 49.9844 64.6806 49.9844 63.4937C49.9844 62.4131 49.9844 62.4131 51.3821 62.4131C52.4212 62.4131 52.4212 62.4131 52.4197 63.6846C52.4197 64.6806 52.4197 64.6806 51.1912 64.6806Z" fill="#00A759"/>
<path d="M31.8985 70.5422C32.702 67.9099 33.4563 65.5069 34.1583 63.0901C34.3137 62.556 34.54 62.3589 35.0926 62.402C35.7407 62.4528 36.398 62.4405 37.0492 62.4051C37.5079 62.3805 37.6203 62.5498 37.6188 62.987C37.6034 66.6199 37.6018 70.2543 37.6203 73.8888C37.6234 74.3752 37.4741 74.5076 36.9938 74.5153C35.3713 74.5399 35.3713 74.56 35.3713 72.9436C35.3713 70.7577 35.3713 68.5734 35.3713 66.3875C35.3282 66.3736 35.2851 66.3613 35.2404 66.3474C35.0526 66.9124 34.8648 67.4789 34.6755 68.0438C34.1798 69.5216 33.6641 70.9917 33.1992 72.4787C33.0515 72.9498 32.8775 73.1653 32.3326 73.1576C30.8086 73.1345 30.8101 73.1653 30.3191 71.706C29.7326 69.9665 29.143 68.2301 28.4287 66.4906C28.4164 66.7184 28.3949 66.9447 28.3949 67.1725C28.3918 69.3861 28.3733 71.6013 28.4072 73.8149C28.4164 74.3875 28.2363 74.523 27.6898 74.5184C26.1813 74.5045 26.1813 74.5292 26.1813 73.0037C26.1813 69.711 26.192 66.4167 26.1705 63.124C26.1674 62.5945 26.2705 62.3482 26.8586 62.4067C27.6975 62.4929 28.752 62.0757 29.3293 62.5683C29.8603 63.0224 29.8973 64.0584 30.1405 64.8419C30.7085 66.6784 31.2735 68.5164 31.8985 70.5422Z" fill="#00A759"/>
<path d="M95.359 73.6073C94.3723 74.6756 93.2593 74.8019 92.0756 74.4263C90.8933 74.0522 90.3561 73.1086 90.1667 71.9433C89.9743 70.761 89.9789 69.5726 90.1729 68.3904C90.3576 67.259 90.8841 66.3492 92.014 65.9413C93.1762 65.5226 94.2399 65.6827 95.1174 66.6263C95.1651 66.6771 95.2436 66.7002 95.3929 66.7818C95.3929 65.5026 95.4144 64.2926 95.3821 63.0857C95.3698 62.587 95.4868 62.4038 96.0317 62.3992C97.8128 62.3853 97.8128 62.3592 97.8128 64.1587C97.8128 67.3329 97.7897 70.5086 97.8297 73.6828C97.8389 74.377 97.6219 74.6002 96.9708 74.5079C96.7491 74.4771 96.5151 74.4801 96.2919 74.5079C95.6669 74.5848 95.2143 74.4817 95.359 73.6073Z" fill="#00A759"/>
<path d="M75.3642 73.7946C74.2805 74.5982 73.146 74.6936 71.9684 74.5458C70.6245 74.378 69.8902 73.5622 69.7902 72.1506C69.6978 70.8421 70.3659 69.9093 71.6282 69.5629C72.6042 69.2951 73.6017 69.4521 74.5869 69.3874C74.8501 69.3705 75.2611 69.6137 75.3581 69.1427C75.435 68.764 75.3119 68.4022 74.9979 68.1513C74.5776 67.8157 74.0742 67.728 73.557 67.7603C73.2769 67.7772 72.9428 67.7788 72.7335 67.9266C71.8899 68.5238 71.388 68.022 70.7862 67.4894C70.2582 67.0229 70.309 66.7936 70.8831 66.4765C72.4979 65.5806 74.1728 65.4697 75.8676 66.1455C76.9621 66.5811 77.5548 67.4709 77.5809 68.6578C77.6194 70.4142 77.5948 72.1721 77.6225 73.9301C77.6302 74.3719 77.4916 74.5504 77.0421 74.5089C76.705 74.4781 76.3587 74.4689 76.0231 74.5104C75.532 74.5735 75.2734 74.4196 75.3642 73.7946Z" fill="#00A759"/>
<path d="M47.6969 71.2286C47.6969 72.106 47.6784 72.985 47.7046 73.8624C47.7169 74.3181 47.6061 74.5582 47.095 74.509C46.7302 74.4736 46.3592 74.5028 45.9913 74.5013C45.8789 74.5013 45.6834 74.5259 45.6649 74.4813C45.2247 73.4607 44.6936 74.3535 44.2456 74.4412C43.3682 74.6167 42.503 74.6798 41.641 74.4643C40.4634 74.1703 39.9077 73.3452 39.9 71.9859C39.8923 70.7175 40.468 69.9201 41.6272 69.5815C42.6262 69.289 43.653 69.446 44.6659 69.386C44.9306 69.3706 45.3463 69.6061 45.4309 69.1243C45.5033 68.7117 45.374 68.33 45.0014 68.0867C44.2687 67.6065 43.4944 67.7327 42.7093 67.9328C42.3907 68.0144 42.1013 68.4131 41.7919 68.2253C41.3408 67.9497 40.9606 67.551 40.5681 67.1847C40.3095 66.943 40.5357 66.8075 40.7128 66.6567C42.0736 65.4852 45.2123 65.4206 46.6239 66.5427C47.2566 67.0446 47.6168 67.705 47.643 68.5101C47.6722 69.4152 47.6492 70.3219 47.6492 71.227C47.6645 71.2286 47.6815 71.2286 47.6969 71.2286Z" fill="#00A759"/>
<path d="M57.1916 66.8582C57.9613 66.0223 58.7818 65.6436 59.7824 65.739C61.5234 65.9053 62.5163 66.9736 62.5871 68.8778C62.6502 70.5773 62.5933 72.2829 62.6133 73.9839C62.6179 74.3995 62.4655 74.4934 62.073 74.5119C60.1534 74.6027 60.1534 74.615 60.1534 72.7093C60.1534 71.6025 60.1688 70.4957 60.1472 69.3889C60.1272 68.416 59.6085 67.9203 58.6694 67.9172C57.7274 67.9142 57.2101 68.3991 57.1916 69.3935C57.1655 70.8405 57.1624 72.2875 57.1963 73.7345C57.2101 74.2933 57.0993 74.5273 56.4666 74.5196C54.7764 74.498 54.7748 74.5304 54.7748 72.8448C54.7748 70.7451 54.7933 68.6454 54.7625 66.5457C54.7548 66.0038 54.8811 65.7575 55.4552 65.8422C55.7046 65.8791 55.9648 65.8606 56.2203 65.8453C56.8653 65.8068 57.4949 65.7714 57.1916 66.8582Z" fill="#00A759"/>
<path d="M82.4621 67.0012C83.3056 65.9636 84.1892 65.5911 85.2914 65.7743C86.7215 66.0129 87.6266 66.8365 87.7836 68.2696C87.993 70.1907 87.8314 72.1257 87.8699 74.0546C87.876 74.3794 87.7405 74.5148 87.4127 74.5041C86.9308 74.4887 86.4459 74.4717 85.9672 74.5087C85.4915 74.5456 85.4053 74.3301 85.4099 73.9114C85.4284 72.4351 85.4223 70.9589 85.4161 69.4842C85.4115 68.4343 84.9374 67.9294 83.9614 67.9156C82.9947 67.9032 82.5052 68.4082 82.4959 69.4703C82.4836 70.8896 82.4698 72.3089 82.5036 73.7282C82.5175 74.2885 82.4066 74.5241 81.7709 74.5179C80.0714 74.4994 80.0714 74.5302 80.0714 72.8292C80.0714 70.7572 80.1022 68.6837 80.0545 66.6133C80.0391 65.9513 80.25 65.7481 80.8657 65.8405C81.0597 65.8697 81.266 65.8682 81.4599 65.8405C82.1696 65.7435 82.693 65.8528 82.4621 67.0012Z" fill="#00A759"/>
<path d="M65.0225 67.6893C65.0225 66.1592 65.0395 64.6275 65.0133 63.0974C65.0041 62.6078 65.0964 62.4031 65.6537 62.3985C67.444 62.38 67.444 62.3538 67.444 64.1457C67.444 66.4424 67.447 68.7376 67.4424 71.0343C67.4409 71.687 67.4162 72.3351 68.363 72.3043C68.6508 72.2951 68.6154 72.5398 68.637 72.7353C68.8232 74.4363 68.3953 74.8089 66.7035 74.4132C65.6044 74.1562 65.0425 73.4665 65.0287 72.2812C65.0071 70.7511 65.0225 69.221 65.0225 67.6893Z" fill="#01A859"/>
<path d="M52.4198 70.133C52.4198 71.3784 52.4044 72.6222 52.4274 73.866C52.4351 74.3155 52.3428 74.5064 51.8286 74.5172C49.9829 74.5556 49.9845 74.5787 49.9845 72.7453C49.9845 70.6518 49.9968 68.5583 49.9752 66.4663C49.9706 66.0029 50.0784 65.8428 50.5756 65.8351C52.4198 65.8059 52.4198 65.7859 52.4198 67.5885C52.4198 68.4367 52.4198 69.2848 52.4198 70.133Z" fill="#00A759"/>
<path d="M92.5156 70.185C92.5387 69.7633 92.5033 69.3276 92.5988 68.9212C92.7789 68.1531 93.3207 67.8144 94.1043 67.8606C94.8231 67.9037 95.2573 68.2547 95.3404 68.9951C95.4281 69.7833 95.4266 70.5699 95.345 71.358C95.2634 72.1447 94.7877 72.4818 94.0288 72.491C93.2253 72.5002 92.6911 72.1139 92.5818 71.3688C92.5249 70.9824 92.5726 70.5807 92.5726 70.1866C92.5526 70.1866 92.5341 70.1866 92.5156 70.185Z" fill="#FDFEFD"/>
<path d="M73.6337 72.8248C73.3397 72.7986 73.1704 72.7955 73.0041 72.7663C72.5161 72.6785 71.9928 72.56 72.0143 71.9365C72.0374 71.2931 72.5192 71.1222 73.0888 71.1284C73.5968 71.133 74.1079 71.0976 74.6112 71.1422C74.8683 71.1653 75.2916 70.8975 75.3609 71.3962C75.4271 71.8781 75.4379 72.403 74.8375 72.5862C74.4111 72.7124 73.9585 72.7616 73.6337 72.8248Z" fill="#FCFDFD"/>
<path d="M44.05 71.1275C44.2747 71.1275 44.5072 71.0936 44.7242 71.1367C44.9767 71.186 45.4046 70.9043 45.4385 71.4369C45.4647 71.8525 45.5386 72.3251 45.0321 72.5298C44.2547 72.8423 43.4527 72.9131 42.6415 72.6576C42.2766 72.5421 42.0704 72.282 42.1012 71.9018C42.1335 71.4954 42.3752 71.206 42.7877 71.1644C43.2049 71.1229 43.6298 71.1552 44.0515 71.1552C44.05 71.1459 44.05 71.1367 44.05 71.1275Z" fill="#FDFEFD"/>
<path d="M44.8537 87.8253C44.6197 90.0266 43.0342 91.706 41.0222 91.9308C38.3914 92.2263 36.3887 91.295 35.8484 89.2553C35.2481 86.9894 35.245 84.6295 35.8561 82.3621C36.3949 80.367 38.6731 79.2972 41.053 79.7036C43.068 80.0468 44.2303 81.2922 44.7875 83.2041C44.9168 83.6474 44.866 83.8506 44.3596 83.8091C44.0779 83.786 43.79 83.7829 43.5098 83.8091C42.8171 83.8768 42.3368 83.7675 42.0151 82.987C41.6364 82.068 40.6836 81.7709 39.6337 82.0049C38.7409 82.2035 38.1513 82.81 38.1067 83.7983C38.0451 85.1575 38.0451 86.523 38.1113 87.8822C38.159 88.8582 38.7886 89.4924 39.6614 89.6679C40.7051 89.8772 41.7196 89.554 42.0351 88.6473C42.3261 87.813 42.814 87.7683 43.496 87.816C43.9455 87.8499 44.3981 87.8253 44.8537 87.8253Z" fill="#00A759"/>
<path d="M80.3066 90.8551C80.3898 90.7258 80.4283 90.6473 80.4821 90.5842C80.8701 90.1332 81.1841 89.5513 81.6705 89.2711C82.1816 88.9771 82.6819 89.5744 83.2176 89.6991C84.0612 89.8946 84.8955 89.953 85.7375 89.7668C86.0346 89.7006 86.381 89.6082 86.3948 89.2126C86.4118 88.7693 86.0469 88.6338 85.7191 88.5799C84.7708 88.4245 83.8087 88.3444 82.862 88.1812C81.5274 87.9503 80.8854 87.3038 80.7992 86.1908C80.6976 84.8716 81.2749 83.8787 82.4895 83.4631C84.4152 82.8058 86.2778 83.0936 88.0835 83.9511C88.4545 84.1265 88.5561 84.3205 88.2036 84.6207C88.0974 84.7115 87.9958 84.8208 87.925 84.9393C87.4678 85.7075 86.9167 85.9214 86.0531 85.4781C85.3665 85.1256 84.5599 85.1841 83.7948 85.2795C83.4685 85.3211 83.0436 85.3657 83.019 85.7906C82.9928 86.2493 83.4254 86.2678 83.7517 86.3171C84.563 86.4356 85.3804 86.5187 86.1916 86.6419C87.7833 86.8866 88.4884 87.5624 88.5931 88.9124C88.6962 90.2548 87.9373 91.3693 86.5134 91.7279C84.3459 92.2729 82.2678 92.0081 80.3066 90.8551Z" fill="#00A759"/>
<path d="M59.3116 84.3998C60.1983 83.3638 61.0773 82.9744 62.1764 83.1468C63.7681 83.3977 64.6686 84.3383 64.7594 86.1224C64.8487 87.8773 64.7825 89.6398 64.801 91.3978C64.8056 91.7673 64.6717 91.8642 64.31 91.8889C62.3426 92.0213 62.3442 92.0336 62.3442 90.0478C62.3442 88.9702 62.358 87.8911 62.3396 86.8136C62.3226 85.7868 61.7992 85.2773 60.8217 85.2942C59.8843 85.3096 59.3963 85.796 59.3809 86.8074C59.3593 88.2544 59.3578 89.7014 59.384 91.1484C59.3932 91.6595 59.3132 91.8996 58.7036 91.8966C56.9656 91.8873 56.9656 91.9196 56.9656 90.1832C56.9656 88.0835 56.981 85.9839 56.9549 83.8842C56.9487 83.3823 57.0472 83.1345 57.5998 83.2176C57.8492 83.2561 58.1125 83.2515 58.3634 83.2191C59.0699 83.1283 59.6087 83.2115 59.3116 84.3998Z" fill="#00A759"/>
<path d="M75.7613 91.9814C73.0027 91.9737 71.5865 90.5514 71.5804 87.7759C71.5788 87.3218 71.5681 86.8661 71.6127 86.4166C71.8251 84.2892 73.6246 82.9207 75.9814 83.1008C77.0343 83.1809 78.0534 83.3841 78.9185 84.0706C79.2618 84.3431 79.3542 84.5509 78.9524 84.8403C78.7246 85.005 78.5121 85.2021 78.3274 85.4145C77.9764 85.8194 77.647 85.8332 77.1575 85.5823C76.1461 85.0651 74.9562 85.2513 74.4036 85.9117C73.8771 86.5413 73.834 88.3578 74.3281 89.0797C74.833 89.8171 76.1446 90.1003 77.1052 89.5246C77.7224 89.1536 78.0165 89.3414 78.4336 89.7724C79.4265 90.8007 79.4142 90.9439 78.078 91.5489C77.4346 91.8398 76.6649 91.9845 75.7613 91.9814Z" fill="#00A759"/>
<path d="M47.0671 85.1286C47.0671 83.5692 47.0871 82.0098 47.0548 80.4504C47.044 79.9348 47.1779 79.7793 47.7121 79.7777C49.4762 79.7747 49.4762 79.75 49.4762 81.5357C49.4762 83.8894 49.4839 86.2415 49.4701 88.5952C49.467 89.1987 49.5409 89.699 50.3059 89.6697C50.6261 89.6574 50.6892 89.8237 50.6661 90.0869C50.6631 90.1146 50.6754 90.1485 50.6646 90.1715C50.4029 90.7149 51.2449 91.7263 50.1304 91.8525C48.217 92.0696 47.1117 91.3061 47.0748 89.8914C47.0363 88.3043 47.0671 86.7157 47.0671 85.1286Z" fill="#00A759"/>
<path d="M52.198 87.4885C52.198 86.2416 52.2118 84.9963 52.1903 83.7509C52.1826 83.3522 52.2981 83.2337 52.7091 83.2152C54.6517 83.129 54.6502 83.1136 54.6502 85.0517C54.6502 87.0913 54.6333 89.1295 54.661 91.1691C54.6687 91.7156 54.524 91.8988 53.9529 91.8972C52.198 91.8957 52.198 91.9219 52.198 90.2086C52.198 89.3003 52.198 88.3952 52.198 87.4885Z" fill="#00A759"/>
<path d="M69.5621 87.5156C69.5621 88.7625 69.5436 90.0079 69.5713 91.2532C69.5805 91.715 69.4712 91.8843 68.9694 91.8936C67.1098 91.929 67.1098 91.9505 67.1098 90.1187C67.1098 88.0513 67.1299 85.9839 67.0975 83.9166C67.0883 83.3562 67.253 83.2069 67.8056 83.21C69.5636 83.2177 69.5636 83.1946 69.5636 84.9649C69.5621 85.8162 69.5621 86.6659 69.5621 87.5156Z" fill="#00A759"/>
<path d="M53.3082 82.059C52.9972 81.9328 52.3784 82.333 52.2506 81.8466C52.0936 81.2432 52.2121 80.5612 52.2491 79.9162C52.2583 79.7669 52.4784 79.7962 52.6139 79.7946C52.9803 79.79 53.3559 79.8393 53.7146 79.7823C54.5243 79.6545 54.6998 80.0117 54.6674 80.7567C54.612 82.0575 54.6536 82.059 53.3082 82.059Z" fill="#00A759"/>
<path d="M68.2505 82.0589C67.9242 81.9927 67.2946 82.2497 67.2007 81.928C67.0267 81.3292 67.1314 80.6473 67.136 79.9992C67.1375 79.816 67.3084 79.8037 67.45 79.7975C67.6194 79.7914 67.7887 79.7945 67.958 79.7929C69.7221 79.7852 69.7067 79.7837 69.5744 81.6017C69.5467 81.985 69.4127 82.0881 69.0679 82.0635C68.8139 82.0435 68.5584 82.0589 68.2505 82.0589Z" fill="#00A759"/>
</svg>
