<svg width="706" height="194" viewBox="0 0 706 194" fill="none" xmlns="http://www.w3.org/2000/svg">
<path d="M0 99.7585C0 98.5698 0 97.3766 0 96.1879C0.230647 96.0593 0.42581 96.1036 0.589924 96.3121C1.07783 97.421 1.07783 98.5254 0.594357 99.6343C0.430243 99.8428 0.235082 99.8827 0 99.7585Z" fill="#F7E19F"/>
<path d="M93.5983 2.92236C94.6539 2.92236 95.714 2.92236 96.7697 2.92236C96.8983 3.14857 96.8584 3.34374 96.6544 3.50341C95.6741 3.96471 94.6939 3.96471 93.7136 3.50785C93.5096 3.34817 93.4697 3.15301 93.5983 2.92236Z" fill="#FBF2D6"/>
<path d="M0 99.7583C0.119759 99.7672 0.235084 99.7672 0.354842 99.7716C1.04678 100.45 0.953634 101.218 0.594357 102.007C0.434679 102.22 0.235082 102.264 0 102.14C0 101.346 0 100.552 0 99.7583Z" fill="#F8E7B4"/>
<path d="M0 102.14C0.115323 102.153 0.226213 102.158 0.341536 102.158C0.971379 102.819 0.971379 103.48 0.341536 104.145C0.226213 104.145 0.110888 104.141 0 104.127C0 103.462 0 102.801 0 102.14Z" fill="#FAF0D1"/>
<path d="M0 92.2179C0.115323 92.2046 0.230646 92.2002 0.345969 92.2002C0.962506 92.7591 0.90041 93.4022 0.589924 94.0764C0.430246 94.2893 0.235086 94.3292 0.00443984 94.2006C4.33165e-06 93.5397 0 92.8788 0 92.2179Z" fill="#FAEFCE"/>
<path d="M93.5982 2.92236C93.5982 3.03325 93.5938 3.14414 93.5894 3.25503C92.9285 3.89374 92.2676 3.89374 91.6067 3.25503C91.6111 3.14414 91.6156 3.03325 91.6156 2.92236C92.2764 2.92236 92.9373 2.92236 93.5982 2.92236Z" fill="#FCF7E8"/>
<path d="M0 94.2008C0.115323 94.1919 0.226213 94.1875 0.341536 94.1875C0.971379 94.844 0.962505 95.5048 0.359275 96.1746C0.239517 96.179 0.119759 96.179 0 96.1879C0 95.5226 0 94.8617 0 94.2008Z" fill="#F8E8B6"/>
<path d="M96.7828 3.25942C96.7784 3.14853 96.774 3.03765 96.7695 2.92676C97.4304 2.92676 98.0913 2.92676 98.7522 2.92676C98.7522 3.03765 98.7566 3.14853 98.7611 3.25942C98.1002 3.8937 97.4437 3.8937 96.7828 3.25942Z" fill="#FCF9ED"/>
<path d="M186.123 124.979C179.989 145.471 168.275 162.064 151.118 174.776C138.592 184.055 124.563 190.065 109.127 192.048C75.1333 196.417 46.4 185.909 23.4064 160.347C14.3623 150.297 8.13932 138.582 4.18728 125.657C4.05421 125.218 3.97437 124.761 3.86792 124.309C4.53325 123 5.78406 123.36 6.82641 123.355C15.591 123.311 24.3555 123.333 33.1201 123.333C36.6419 123.333 36.6375 123.329 36.6464 119.878C36.6552 116.649 36.6064 113.415 36.673 110.186C36.6951 109.055 36.7395 107.871 38.2387 107.6C38.6246 107.547 39.0105 107.538 39.3964 107.538C47.7396 107.489 56.0828 107.379 64.4215 107.52C64.7985 107.529 65.18 107.534 65.557 107.525C67.003 107.418 68.4534 107.494 69.9038 107.481C74.6897 107.436 74.3127 107.951 74.3305 102.947C74.3438 99.1861 74.3172 95.4292 74.3393 91.6679C74.3571 88.3812 74.6942 88.0574 77.972 88.0352C78.7615 88.0308 79.5555 87.9909 80.345 88.0796C80.722 88.0885 81.0991 88.0885 81.4761 88.0929C89.735 88.1106 97.9984 88.0929 106.257 88.0973C106.51 88.0929 106.758 88.0929 107.011 88.0973C107.384 88.0929 107.761 88.0973 108.134 88.084C109.389 87.9953 110.644 88.0042 111.895 88.0663C113.869 88.1594 114.352 88.603 114.41 90.5857C114.512 94.0853 114.432 97.5893 114.45 101.093C114.454 102.548 114.476 104.003 114.45 105.453C114.423 106.855 115.004 107.507 116.446 107.489C118.162 107.467 119.879 107.418 121.595 107.529C121.972 107.538 122.349 107.538 122.722 107.525C130.985 107.432 139.253 107.458 147.516 107.507C147.769 107.52 148.022 107.534 148.275 107.538C148.656 107.538 149.033 107.538 149.415 107.525C152.502 107.507 152.888 107.858 152.914 110.852C152.945 114.156 152.906 117.456 152.928 120.76C152.945 123.173 153.096 123.337 155.536 123.342C164.58 123.36 173.624 123.346 182.663 123.351C183.453 123.351 184.247 123.324 185.032 123.479C185.875 123.63 186.363 124.043 186.123 124.979Z" fill="#16A00F"/>
<path d="M186.123 124.979C186.021 123.484 184.854 124.105 184.163 124.1C174.32 124.06 164.478 124.021 154.635 124.118C152.781 124.136 152.293 123.599 152.355 121.798C152.493 118.037 152.316 114.262 152.431 110.497C152.484 108.771 152.125 107.835 150.191 108.177C149.814 108.243 149.406 108.137 149.011 108.115C148.359 107.161 148.576 106.07 148.576 105.032C148.563 88.3103 148.59 71.5839 148.545 54.8621C148.536 51.633 148.332 48.3773 147.317 45.2858C145.236 38.9608 141.759 33.9176 134.791 32.2543C133.935 32.0502 133.088 32.0591 132.236 32.0547C124.243 32.0458 116.25 32.1567 108.258 32.0147C102.864 31.9172 98.9474 34.3789 95.745 38.4063C95.6208 38.5616 95.5277 38.739 95.4123 38.8987C93.9087 40.9479 93.3942 40.9567 91.9349 38.9519C90.9236 37.568 89.8724 36.2551 88.4885 35.1728C85.8183 33.0881 82.8598 32.0857 79.5021 32.0946C71.9041 32.1079 64.2883 32.4627 56.7169 31.997C48.5777 31.4958 42.5188 38.016 40.514 43.6313C39.5116 46.4479 38.9704 49.3132 38.9837 52.3471C39.0458 69.9295 39.0192 87.5119 39.0015 105.094C39.0015 106.114 39.3031 107.241 38.3716 108.084C37.2184 108.093 37.2495 108.878 37.2539 109.716C37.2761 113.61 37.2805 117.505 37.2583 121.399C37.2361 124.451 37.693 124.069 34.4861 124.074C24.9897 124.092 15.4888 124.074 5.9924 124.087C5.28272 124.087 4.53755 123.91 3.86335 124.313C1.8585 117.735 0.842766 110.985 0.341553 104.145C0.341553 103.484 0.341553 102.819 0.341553 102.158C0.345988 101.364 0.350423 100.566 0.354859 99.7716C0.354859 98.574 0.359292 97.372 0.359292 96.1744C0.354856 95.5135 0.345988 94.8526 0.341553 94.1873C0.341553 93.522 0.34155 92.8611 0.345986 92.1958C1.83632 71.0384 9.31016 52.2939 23.1977 36.2329C38.5224 18.5086 57.8968 7.96096 80.9792 4.244C84.4832 3.68069 88.0627 3.57424 91.6067 3.25488C92.2675 3.25488 92.9284 3.25488 93.5893 3.25488C94.6539 3.25488 95.7184 3.25488 96.7829 3.25488C97.4438 3.25488 98.1002 3.25488 98.7611 3.25488C119.728 4.26174 138.53 11.1545 154.817 24.4211C171.659 38.1446 182.606 55.6871 187.547 76.8844C191.135 92.2889 190.74 107.658 186.669 122.925C186.487 123.608 186.682 124.402 186.123 124.979Z" fill="#F2CB56"/>
<path d="M85.7695 150.346C85.7695 147.569 85.7162 144.792 85.7961 142.016C85.8271 140.871 85.4412 140.574 84.3412 140.596C80.9081 140.658 77.4706 140.583 74.0331 140.641C72.9597 140.658 72.5428 140.415 72.5605 139.239C72.627 135.008 72.6226 130.776 72.5605 126.545C72.5428 125.427 72.8621 125.081 73.9887 125.108C77.2267 125.179 80.469 124.997 83.6981 125.183C85.5743 125.294 85.8626 124.597 85.8005 122.961C85.6808 119.727 85.8182 116.48 85.7384 113.243C85.7074 112.014 86.0933 111.668 87.3086 111.686C92.4627 111.748 97.6167 111.748 102.771 111.686C103.964 111.672 104.372 111.947 104.341 113.207C104.252 116.711 104.354 120.215 104.283 123.719C104.261 124.846 104.585 125.183 105.72 125.161C109.087 125.09 112.458 125.183 115.829 125.112C117.049 125.085 117.55 125.325 117.519 126.704C117.421 130.869 117.448 135.034 117.51 139.199C117.528 140.317 117.208 140.672 116.073 140.65C112.835 140.579 109.593 140.76 106.364 140.574C104.496 140.463 104.239 141.142 104.274 142.779C104.376 147.999 104.27 153.224 104.341 158.445C104.359 159.727 104.026 160.117 102.713 160.095C97.6256 160.015 92.5381 160.006 87.4505 160.099C85.9868 160.126 85.6941 159.611 85.7428 158.285C85.8404 155.637 85.7739 152.989 85.7695 150.346Z" fill="#FDFDFD"/>
<path d="M80.4248 88.5454C78.7172 88.5987 76.4639 88.0132 75.4393 88.8781C74.2373 89.8938 75.0667 92.2269 75.0401 93.9878C74.9736 98.1483 74.9603 102.313 75.049 106.469C75.08 107.889 74.6099 108.288 73.2526 108.217C70.6844 108.088 68.1119 108.11 65.5393 108.071C64.7719 107.423 64.8828 106.527 64.8828 105.68C64.8695 87.7071 64.8651 69.7344 64.8828 51.7617C64.8872 49.1492 65.2731 48.7722 67.8679 48.7678C71.4341 48.7589 75.0002 48.7722 78.5664 48.8121C80.6244 48.8343 81.0414 49.2291 81.0502 51.2605C81.0902 63.0235 81.0769 74.782 81.0591 86.545C81.0591 87.268 81.0769 88.0176 80.4248 88.5454Z" fill="#F2CB56"/>
<path d="M121.737 108.089C119.697 108.124 117.652 108.089 115.616 108.213C114.25 108.297 113.806 107.862 113.828 106.456C113.904 101.116 113.811 95.7711 113.891 90.4263C113.913 89.007 113.616 88.3682 112.063 88.5235C110.693 88.661 109.295 88.5501 107.911 88.5501C107.246 87.9336 107.326 87.1086 107.326 86.3279C107.313 74.769 107.304 63.2145 107.326 51.6555C107.33 49.1406 107.676 48.8168 110.209 48.7946C113.31 48.768 116.414 48.7636 119.515 48.7946C121.914 48.8212 122.287 49.1761 122.305 51.5535C122.345 56.7031 122.318 61.8572 122.318 67.0068C122.318 79.6879 122.322 92.3691 122.309 105.046C122.309 106.093 122.531 107.193 121.737 108.089Z" fill="#F2CB56"/>
<path d="M38.3761 108.075C38.3761 89.823 38.3939 71.5709 38.3628 53.3188C38.354 46.5723 40.0838 40.5179 45.0604 35.7009C47.8149 33.0352 51.0573 31.4251 54.9827 31.4251C63.1751 31.4295 71.3719 31.4206 79.5643 31.4206C84.5542 31.4206 88.4176 33.6916 91.5136 37.4441C92.2587 38.3445 92.9019 39.3336 93.6737 40.3892C94.7426 38.9743 95.5942 37.5771 96.7297 36.3884C99.8568 33.1194 103.578 31.363 108.164 31.3985C115.763 31.4561 123.365 31.5138 130.963 31.3852C138.459 31.261 143.147 35.2307 146.425 41.4626C148.412 45.2461 148.989 49.3667 149.002 53.5494C149.047 71.735 149.016 89.9206 149.016 108.106C148.798 108.097 148.581 108.093 148.364 108.084C147.543 107.197 147.774 106.092 147.774 105.059C147.76 88.7275 147.76 72.3959 147.769 56.0643C147.769 54.8712 147.725 53.6869 147.539 52.5115C147.414 51.8151 147.357 51.1143 147.383 50.4046C147.41 49.4599 147.29 48.5328 147.055 47.6191C146.949 46.9449 146.722 46.2973 146.643 45.6187C146.572 44.5985 145.942 43.7824 145.618 42.8554C145.432 42.2832 145.121 41.7731 144.82 41.263C144.491 40.5933 144.083 39.9723 143.675 39.3469C143.462 38.9965 143.209 38.6771 142.917 38.3888C142.562 38.0251 142.243 37.6304 141.954 37.209C141.511 36.5437 140.921 36.0513 140.211 35.692C139.32 35.1953 138.495 34.592 137.607 34.0864C135.864 33.2259 133.997 32.9154 132.076 32.8356C124.54 32.8799 117.009 32.8577 109.477 32.8844C105.698 32.8977 102.123 33.665 99.0939 36.1134C98.2999 36.8364 97.4793 37.5372 96.7697 38.3489C96.2285 39.0453 95.6696 39.7239 95.1862 40.4647C94.8047 41.0546 94.6096 41.7554 94.0906 42.261C93.9265 42.3409 93.7535 42.3675 93.5716 42.3364C92.8309 41.9239 92.547 41.1388 92.068 40.5134C91.7043 39.9235 91.212 39.4356 90.8349 38.859C90.245 37.9896 89.4289 37.3154 88.7769 36.4993C88.2357 35.9537 87.597 35.5368 86.9583 35.1154C86.0756 34.4501 85.1131 34.1795 83.9909 34.2815C71.5227 35.417 59.0634 36.6279 46.6129 37.9586C45.5395 38.0739 44.5149 38.2425 43.8141 39.1783C43.2995 40.1098 42.4967 40.8594 42.0753 41.8574C41.8225 42.4429 41.5253 43.0106 41.3257 43.6183C41.0818 44.3812 40.6338 45.0732 40.5495 45.8937C40.4786 46.4393 40.3411 46.9671 40.2124 47.4994C40.1592 47.8675 40.106 48.2357 40.035 48.6038C39.9685 48.9808 39.8354 49.3401 39.8177 49.726C39.76 50.4224 39.7733 51.1187 39.7955 51.8151C39.8132 52.343 39.7999 52.8708 39.7999 53.3986C39.8443 54.1659 39.7822 54.9333 39.8177 55.7006C39.8399 56.3704 39.8221 57.0402 39.8088 57.7099C39.8354 58.6103 39.8354 59.5063 39.8088 60.4067C39.8221 61.0809 39.8354 61.7507 39.8088 62.4249C39.8221 63.2055 39.831 63.9862 39.8044 64.7668C39.8177 65.3257 39.8265 65.8801 39.8044 66.439C39.8265 67.2197 39.8221 68.0003 39.8044 68.781C39.8265 69.4552 39.8221 70.1294 39.8044 70.7991C39.8443 71.5886 39.8132 72.3826 39.8044 73.1721C39.8399 74.0814 39.831 74.9862 39.8088 75.8955C39.8265 76.685 39.8399 77.479 39.8044 78.2685C39.8177 79.0536 39.831 79.8387 39.7999 80.6238C39.8088 81.1782 39.8265 81.7371 39.7999 82.2915C39.8132 83.0633 39.8177 83.8351 39.7955 84.6069C39.8044 85.1569 39.8177 85.7069 39.7955 86.2569C39.8132 86.9133 39.8132 87.5742 39.7955 88.2307C39.8088 88.8871 39.8132 89.548 39.7955 90.2045C39.8088 90.8609 39.8177 91.5218 39.7955 92.1783C39.8132 92.7283 39.8132 93.2783 39.7955 93.8283C39.8177 94.6001 39.8132 95.3718 39.7955 96.1436C39.8088 96.8045 39.8177 97.461 39.7911 98.1219C39.7999 98.7783 39.8088 99.4303 39.7866 100.087C39.7911 100.628 39.8088 101.174 39.7866 101.715C39.7999 102.256 39.7999 102.797 39.7866 103.338C39.8044 103.99 39.7999 104.638 39.7866 105.29C39.7822 106.057 39.8443 106.833 39.5915 107.583C39.485 107.782 39.3475 107.955 39.179 108.102C38.9261 108.093 38.6511 108.084 38.3761 108.075Z" fill="#01A859"/>
<path d="M145.946 42.6114C146.336 43.5384 147.011 44.3413 147.122 45.3836C143.13 46.2397 139.045 46.2574 135.013 46.7276C131.234 47.1667 127.441 47.5304 123.653 47.8542C122.815 47.9252 122.695 48.5727 122.19 48.8788C118.029 49.0518 113.869 48.9098 109.712 48.9586C107.508 48.9852 107.49 48.9852 107.486 51.1808C107.477 62.8107 107.486 74.4451 107.473 86.075C107.473 86.9133 107.694 87.8048 107.104 88.5633C106.962 88.5633 106.821 88.5678 106.679 88.5678C106.514 88.4036 106.39 88.2129 106.302 87.9956C105.987 86.5318 106.164 85.0504 106.137 83.5778C106.115 83.0189 106.111 82.4556 106.137 81.8967C106.111 81.1161 106.133 80.3399 106.142 79.5592C106.106 78.8939 106.137 78.2286 106.142 77.5632C106.115 76.8979 106.124 76.237 106.142 75.5717C106.124 74.9108 106.124 74.2455 106.142 73.5846C106.124 72.9237 106.12 72.2584 106.142 71.5975C106.124 70.9322 106.124 70.2668 106.142 69.6059C106.12 68.9362 106.124 68.2664 106.137 67.5967C106.102 66.918 106.124 66.2438 106.133 65.5652C106.098 64.5362 106.102 63.5115 106.129 62.4825C106.098 61.5688 106.111 60.6506 106.133 59.7369C106.102 59.0539 106.106 58.3708 106.129 57.6833C106.106 56.774 106.102 55.8647 106.129 54.9554C106.111 54.2768 106.102 53.5982 106.129 52.9195C106.102 52.1389 106.111 51.3582 106.106 50.582C105.925 49.1582 104.811 49.4598 103.96 49.5264C99.2269 49.9078 94.5164 50.5199 89.7837 50.8703C86.9095 51.0832 84.0752 51.7042 81.1833 51.7042C80.8107 51.0211 80.8595 50.3336 81.1345 49.6373C81.995 48.5994 83.2635 48.6171 84.4079 48.5062C92.9995 47.6901 101.587 46.8118 110.174 45.9735C119.027 45.1086 127.876 44.2215 136.725 43.3521C139.79 43.0638 142.85 42.5848 145.946 42.6114Z" fill="#28B054"/>
<path d="M54.5391 163.053C56.4818 166.304 58.2117 169.201 60.0347 172.252C61.7512 169.183 63.3525 166.326 65.2021 163.022C66.2444 168.083 67.1936 172.665 68.1384 177.247C65.1577 177.97 65.14 177.952 64.6077 175.06C64.417 174.022 64.1863 172.993 63.9557 171.96C63.9335 171.858 63.8049 171.778 63.6319 171.574C62.4299 173.547 61.2545 175.486 59.9549 177.624C58.5754 175.481 57.3068 173.521 55.7988 171.174C55.4839 172.78 55.2532 173.964 55.0181 175.144C54.4992 177.761 54.4992 177.761 51.6294 177.358C52.5653 172.74 53.5056 168.123 54.5391 163.053Z" fill="#FDFDFC"/>
<path d="M81.7021 170.483C81.7021 168.633 81.7642 166.779 81.6799 164.934C81.6267 163.861 82.0037 163.59 83.0239 163.626C84.9312 163.697 86.8473 163.568 88.728 164.065C92.0369 164.938 94.0062 167.369 93.9974 170.603C93.9885 173.712 91.8594 176.316 88.7014 177.158C86.6876 177.695 84.6384 177.469 82.5981 177.553C81.6888 177.589 81.6932 177.074 81.6977 176.426C81.711 174.448 81.7021 172.466 81.7021 170.483Z" fill="#FDFDFD"/>
<path d="M70.2009 170.625C70.2009 168.708 70.2453 166.792 70.1832 164.876C70.1522 163.954 70.3961 163.599 71.3808 163.63C73.5586 163.701 75.7409 163.705 77.9143 163.634C79.3159 163.59 78.9034 164.552 78.9079 165.244C78.9123 165.936 79.3071 166.93 77.9099 166.841C76.7921 166.77 75.6655 166.859 74.5433 166.819C73.7804 166.792 73.3369 166.885 73.3413 167.857C73.3413 168.904 73.9357 168.833 74.6143 168.815C75.1421 168.802 75.6832 168.89 76.1978 168.797C77.9542 168.473 78.3224 169.307 78.1716 170.869C78.0917 171.685 77.9498 172.079 77.0538 172.004C76.2687 171.938 75.4703 172.022 74.6808 171.982C73.8691 171.942 73.3369 171.986 73.3369 173.086C73.3369 174.151 73.6695 174.488 74.6897 174.386C75.4748 174.306 76.2865 174.47 77.0627 174.35C78.6816 174.102 79.0853 174.807 78.9655 176.298C78.8946 177.167 78.797 177.708 77.7768 177.548C77.5816 177.517 77.382 177.553 77.1825 177.544C74.8982 177.424 72.6006 177.797 70.3251 177.331C70.3251 175.096 70.3251 172.865 70.3251 170.629C70.2808 170.625 70.2409 170.625 70.2009 170.625Z" fill="#FDFDFD"/>
<path d="M81.3163 49.7527C81.3163 50.4136 81.3163 51.0745 81.3207 51.7354C81.7909 52.1657 81.8175 52.7467 81.8441 53.3233C81.9017 54.1128 81.8397 54.9024 81.8707 55.6919C81.9106 56.3661 81.8308 57.0403 81.8796 57.7189C81.8973 58.6282 81.8796 59.533 81.8663 60.4379C81.9062 61.1254 81.884 61.8085 81.8707 62.496C81.9461 63.5339 81.8219 64.5673 81.8884 65.6052C81.9284 66.6387 81.853 67.6722 81.8796 68.7057C81.9106 69.4996 81.8175 70.2892 81.8707 71.0831C81.8885 71.642 81.8308 72.2009 81.8751 72.7597C81.8929 73.4251 81.8219 74.0948 81.8751 74.7601C81.8929 75.4343 81.8219 76.1041 81.884 76.7783C81.9062 77.4614 81.8219 78.1444 81.8973 78.8319C81.8707 80.2158 81.8352 81.6041 81.884 82.988C81.884 84.2255 81.8397 85.463 81.8485 86.705C81.8618 87.1485 81.8219 87.5921 81.7022 88.0223C81.6268 88.2308 81.507 88.4171 81.3562 88.5768C81.0501 88.5679 80.7396 88.5635 80.4336 88.5546C80.4558 75.8646 80.4735 63.1746 80.5223 50.489C80.5267 49.5176 80.163 49.2471 79.2449 49.2559C75.1509 49.287 71.0525 49.3047 66.9585 49.2471C65.7698 49.2293 65.4726 49.7217 65.5436 50.7818C65.6057 51.7044 65.5569 52.6314 65.5569 53.5584C65.5569 71.7351 65.5569 89.9074 65.5525 108.084C65.2775 108.093 65.0069 108.106 64.7319 108.115C63.8581 107.246 64.1154 106.137 64.0976 105.086C64.0976 104.403 64.0577 103.715 64.1065 103.032C64.102 102.367 64.0843 101.701 64.1153 101.036C64.1109 100.491 64.0932 99.945 64.1153 99.395C64.0976 98.8494 64.102 98.3083 64.1153 97.7627C64.0932 97.1063 64.102 96.4498 64.1109 95.7978C64.0887 95.1369 64.0932 94.4804 64.1065 93.8195C64.0887 93.0478 64.0887 92.276 64.1109 91.5042C64.102 90.9542 64.0843 90.4042 64.1109 89.8542C64.0932 89.1977 64.0932 88.5369 64.1109 87.8804C64.0976 87.2239 64.0932 86.563 64.1109 85.9066C64.0976 85.2501 64.0887 84.5892 64.1109 83.9328C64.0932 83.3828 64.0932 82.8328 64.1109 82.2828C64.0932 81.511 64.0932 80.7392 64.1109 79.9674C64.0932 79.413 64.0932 78.8541 64.1065 78.2997C64.0799 77.5146 64.0887 76.7295 64.102 75.9444C64.0754 75.1549 64.0799 74.361 64.0976 73.5714C64.0754 72.6622 64.071 71.7573 64.0976 70.848C64.0843 70.0585 64.0666 69.2645 64.102 68.475C64.0887 67.8008 64.0754 67.1266 64.102 66.4569C64.0887 65.6762 64.0799 64.8956 64.1065 64.1149C64.0932 63.556 64.0843 63.0016 64.1065 62.4427C64.0843 61.6621 64.0887 60.8814 64.1065 60.1008C64.0843 59.4266 64.0843 58.7524 64.102 58.0826C64.0799 57.1822 64.0754 56.2774 64.102 55.377C64.0843 54.6939 64.0754 54.0153 64.102 53.3322C64.071 52.5205 64.0843 51.7088 64.0976 50.8927C64.0577 50.1564 64.0843 49.4289 64.3682 48.7281C64.7851 47.9386 65.5125 47.6326 66.3287 47.6281C71.119 47.5882 75.8961 48.014 80.682 48.1471C80.8816 48.1515 81.0457 48.2934 81.2187 48.3822C81.6844 48.7947 81.5913 49.2693 81.3163 49.7527Z" fill="#03A858"/>
<path d="M107.1 88.5678C107.091 75.9488 107.122 63.3253 107.033 50.7063C107.02 48.9099 107.57 48.4752 109.278 48.5196C113.7 48.6349 118.126 48.564 122.549 48.564C122.832 48.7946 122.957 49.1051 123.023 49.4511C123.152 50.4579 123.107 51.4692 123.099 52.4805C123.112 53.1458 123.125 53.8112 123.099 54.4809C123.112 55.1462 123.121 55.816 123.099 56.4813C123.125 57.0402 123.112 57.6035 123.103 58.1624C123.139 59.0672 123.125 59.9765 123.112 60.8814C123.139 61.9104 123.143 62.9439 123.112 63.9729C123.13 64.6604 123.143 65.3524 123.112 66.0399C123.143 66.958 123.139 67.8762 123.112 68.7943C123.134 69.8278 123.143 70.8568 123.107 71.8903C123.116 72.5734 123.143 73.2565 123.107 73.9395C123.125 74.7335 123.134 75.5274 123.107 76.3214C123.134 77.0045 123.13 77.6875 123.112 78.3662C123.143 79.3908 123.143 80.4198 123.112 81.4444C123.125 82.3493 123.143 83.2541 123.103 84.1589C123.103 84.7178 123.134 85.2767 123.099 85.8311C123.107 86.4964 123.116 87.1573 123.099 87.8227C123.121 88.3771 123.112 88.9316 123.103 89.486C123.134 90.2711 123.121 91.0517 123.107 91.8368C123.139 92.6308 123.13 93.4247 123.112 94.2143C123.143 95.128 123.139 96.0417 123.112 96.9554C123.134 97.8691 123.143 98.7873 123.112 99.701C123.13 100.495 123.143 101.293 123.107 102.087C123.121 102.877 123.134 103.666 123.103 104.456C123.112 105.134 123.134 105.813 123.09 106.492C123.103 107.086 122.948 107.632 122.553 108.089C122.282 108.089 122.012 108.084 121.741 108.084C121.741 89.1977 121.71 70.3068 121.786 51.4204C121.795 49.6063 121.271 49.2204 119.581 49.2825C116.153 49.4156 112.72 49.3357 109.286 49.3136C108.422 49.3091 107.783 49.318 107.787 50.52C107.854 63.1967 107.88 75.8778 107.911 88.5545C107.636 88.559 107.37 88.5634 107.1 88.5678Z" fill="#05A858"/>
<path d="M113.106 167.826C109.748 165.923 107.339 166.034 105.871 167.972C104.754 169.449 104.833 171.738 106.053 173.091C107.685 174.905 110.112 174.794 113.168 172.772C113.798 176.382 112.893 177.482 109.273 177.544C106.337 177.593 103.591 175.845 102.522 173.251C101.387 170.501 101.964 167.343 103.96 165.364C106.044 163.297 109.282 162.787 112.023 163.821C114.339 164.69 112.91 166.274 113.106 167.826Z" fill="#FCFDFC"/>
<path d="M114.246 177.562C116.641 172.67 118.885 168.074 121.329 163.084C123.76 168.003 126.057 172.656 128.453 177.504C126.692 177.424 124.891 178.285 124.217 175.961C124.106 175.575 123.746 175.562 123.409 175.562C121.892 175.562 120.375 175.566 118.859 175.562C118.495 175.562 118.193 175.677 118.104 176.045C117.581 178.143 115.94 177.438 114.246 177.562Z" fill="#FDFDFD"/>
<path d="M122.575 56.5033C122.575 55.8424 122.575 55.1815 122.575 54.5206C125.05 53.1989 127.818 53.5182 130.453 53.2122C135.399 52.6355 140.366 52.2009 145.321 51.6908C146.243 51.5976 147.157 51.4646 147.947 52.1299C148.581 52.8041 148.297 53.6424 148.301 54.4009C148.337 72.2982 148.35 90.1955 148.368 108.093L148.186 108.119H148.004C147.059 107.099 147.401 105.844 147.37 104.66C147.348 103.839 147.348 103.019 147.379 102.198C147.348 101.391 147.352 100.588 147.379 99.7806C147.343 98.9778 147.37 98.1749 147.379 97.3766C147.33 96.4584 147.366 95.5447 147.379 94.6265C147.343 93.7128 147.348 92.7991 147.379 91.881C147.366 91.087 147.348 90.293 147.383 89.5035C147.374 88.7184 147.357 87.9378 147.388 87.1527C147.383 86.5983 147.361 86.0438 147.388 85.4894C147.374 84.824 147.37 84.1632 147.388 83.4978C147.357 82.939 147.379 82.3801 147.383 81.8256C147.348 80.9208 147.361 80.016 147.374 79.1111C147.348 78.0865 147.343 77.0575 147.379 76.0329C147.37 75.3498 147.343 74.6667 147.379 73.9881C147.361 73.1941 147.357 72.4002 147.379 71.6062C147.352 70.9232 147.361 70.2401 147.374 69.557C147.343 68.5235 147.343 67.4945 147.37 66.461C147.348 65.5429 147.339 64.6203 147.374 63.7021C147.352 63.0102 147.348 62.3183 147.374 61.6263C147.339 60.5884 147.343 59.5505 147.37 58.5126C147.339 57.5989 147.348 56.6896 147.339 55.7759C147.113 54.4807 146.101 54.7823 145.312 54.8622C138.552 55.5408 131.788 56.2017 125.033 56.8936C124.168 56.9779 123.312 57.1553 122.575 56.5033Z" fill="#3DB552"/>
<path d="M147.929 104.518C147.951 105.715 147.978 106.917 148 108.115C139.515 108.106 131.034 108.101 122.549 108.093C122.571 107.565 122.593 107.033 122.615 106.505C124.678 105.369 126.993 105.848 129.175 105.578C134.077 104.966 139 104.558 143.915 104.056C145.281 103.919 146.682 103.595 147.929 104.518Z" fill="#B4D044"/>
<path d="M129.69 170.594C129.69 168.682 129.783 166.766 129.659 164.863C129.566 163.426 130.435 163.661 131.273 163.652C132.125 163.643 132.946 163.448 132.892 164.863C132.786 167.56 132.915 170.27 132.835 172.967C132.804 174.08 133.123 174.51 134.254 174.386C135.035 174.302 135.851 174.479 136.618 174.346C138.379 174.044 138.468 175.016 138.446 176.36C138.428 177.331 138.122 177.584 137.195 177.562C135.088 177.504 132.977 177.495 130.874 177.562C129.907 177.593 129.637 177.26 129.668 176.329C129.734 174.417 129.69 172.505 129.69 170.594Z" fill="#FDFDFD"/>
<path d="M64.6344 104.917C64.6654 105.977 64.6921 107.041 64.7231 108.102C56.2158 108.102 47.7085 108.102 39.2012 108.102C39.2278 107.964 39.2544 107.831 39.281 107.693C41.6762 105.897 44.577 106.296 47.2738 105.981C52.175 105.405 57.094 104.992 62.0041 104.482C62.9223 104.385 63.8449 104.229 64.6344 104.917Z" fill="#A2CC46"/>
<path d="M95.9757 170.398C95.9757 168.553 96.0644 166.699 95.9491 164.859C95.8604 163.444 96.712 163.639 97.5636 163.648C98.4064 163.656 99.2225 163.43 99.1826 164.863C99.0806 168.686 99.085 172.514 99.1781 176.338C99.2136 177.748 98.4108 177.557 97.5592 177.549C96.7164 177.54 95.8515 177.77 95.9447 176.333C96.0733 174.359 95.9757 172.377 95.9757 170.398Z" fill="#FDFDFD"/>
<path d="M81.3472 88.5677C81.3472 88.4569 81.3649 88.3504 81.3915 88.2439C82.1323 87.5121 83.0859 87.623 83.9907 87.6186C90.6795 87.5964 97.3727 87.6008 104.061 87.6141C104.975 87.6141 105.915 87.5609 106.674 88.2439C106.678 88.3548 106.678 88.4613 106.674 88.5722C98.2332 88.5722 89.7879 88.5677 81.3472 88.5677Z" fill="#78C245"/>
<path d="M74.9603 132.217C74.9603 130.634 75.0401 129.042 74.9337 127.463C74.845 126.15 75.6567 126.367 76.4417 126.336C77.2623 126.301 77.901 126.358 77.7458 127.454C77.6837 127.906 77.8035 128.39 77.7236 128.838C77.4442 130.439 78.1716 130.678 79.6442 130.785C81.791 130.94 82.3942 130.168 82.1236 128.181C81.9994 127.276 81.7555 126.287 83.4543 126.278C85.0866 126.274 84.8825 127.121 84.8781 128.124C84.8648 131.095 84.816 134.072 84.9003 137.039C84.9313 138.205 84.4079 138.285 83.4898 138.276C82.5894 138.272 81.924 138.228 82.0837 137.048C82.1636 136.462 82.0128 135.846 82.1148 135.269C82.4341 133.42 81.6269 133.065 79.8881 133.02C77.9942 132.972 77.4752 133.619 77.7236 135.331C77.8079 135.912 77.6748 136.524 77.7502 137.11C77.8877 138.166 77.351 138.339 76.4772 138.263C75.7321 138.197 74.8583 138.52 74.9381 137.172C75.0313 135.526 74.9603 133.872 74.9603 132.217Z" fill="#16A00F"/>
<path d="M89.6329 118.725C89.6329 117.141 89.7127 115.549 89.6062 113.97C89.5175 112.653 90.3337 112.879 91.1143 112.843C91.9393 112.803 92.5692 112.87 92.4184 113.961C92.3563 114.414 92.476 114.897 92.3962 115.345C92.1168 116.951 92.8486 117.181 94.3212 117.288C96.468 117.443 97.0668 116.667 96.7962 114.684C96.672 113.779 96.4281 112.79 98.1313 112.781C99.7636 112.777 99.5595 113.628 99.5551 114.626C99.5418 117.598 99.493 120.574 99.5773 123.542C99.6083 124.713 99.0805 124.784 98.1668 124.779C97.2619 124.775 96.6011 124.731 96.7607 123.546C96.8406 122.961 96.6898 122.344 96.7918 121.768C97.1111 119.914 96.2994 119.568 94.5652 119.519C92.6668 119.466 92.1567 120.122 92.4006 121.834C92.4849 122.415 92.3518 123.027 92.4272 123.613C92.5647 124.668 92.0236 124.837 91.1543 124.762C90.4091 124.699 89.5353 125.014 89.6151 123.67C89.7038 122.029 89.6329 120.375 89.6329 118.725Z" fill="#16A00F"/>
<path d="M114.365 130.057C111.367 128.31 109.624 128.341 108.258 130C107.18 131.308 107.197 133.486 108.297 134.754C109.61 136.271 111.553 136.24 114.401 134.657C114.818 137.744 114.028 138.658 110.95 138.649C108.413 138.644 106.084 137.123 105.175 134.879C104.239 132.554 104.789 129.76 106.51 128.101C108.355 126.327 111.354 125.875 113.7 126.908C115.363 127.64 114.192 128.775 114.365 130.057Z" fill="#17A110"/>
<path d="M100.265 151.641C100.265 155.029 98.8631 156.236 95.6828 155.637C93.0614 155.145 91.2562 153.645 90.6174 150.993C90.0453 148.615 90.6884 146.526 92.5558 144.943C94.6094 143.204 96.9336 143.022 99.4131 143.98C101.174 144.663 99.7812 145.865 100.296 147.192C98.8498 146.522 97.9538 145.746 96.7296 145.768C95.4965 145.794 94.5651 146.278 93.8465 147.218C92.8707 148.496 92.9683 150.611 94.0106 151.818C95.328 153.335 97.2707 153.304 100.265 151.641Z" fill="#17A110"/>
<path d="M101.107 138.653C99.5594 138.56 98.2288 139.159 97.5856 137.451C97.3594 136.857 92.8041 136.799 92.5912 137.389C91.9791 139.106 90.7106 138.627 89.2957 138.578C91.2384 134.515 93.1235 130.572 95.1993 126.225C97.253 130.541 99.1203 134.471 101.107 138.653Z" fill="#17A110"/>
<path d="M81.3029 48.564C76.4904 48.737 71.6956 48.3422 66.8964 48.1825C66.0714 48.1559 65.1266 47.9386 64.6431 48.9632C64.1952 49.4821 63.6496 49.8148 62.9532 49.8725C55.6302 50.4934 48.3382 51.4604 41.0019 51.9527C40.4164 51.9926 39.8176 52.037 39.2676 51.7398C39.2676 50.9459 39.2676 50.1519 39.2676 49.3624C41.4232 47.8765 43.9648 48.3378 46.3378 48.0583C51.1636 47.4906 56.0072 47.047 60.8463 46.5813C65.4903 46.1378 70.1343 45.641 74.7827 45.224C79.4932 44.8027 84.1993 44.2881 88.9054 43.8224C92.1744 43.4942 95.4433 43.1527 98.7212 42.8599C103.565 42.4252 108.399 41.9018 113.234 41.4184C116.437 41.099 119.639 40.7264 122.85 40.4869C127.703 40.1232 132.515 39.3913 137.368 39.0853C139.541 38.9478 141.763 37.9188 143.955 39.0454C144.354 39.7063 144.748 40.3672 145.148 41.0325C144.744 41.9152 143.923 41.9196 143.134 41.9994C127.401 43.5962 111.651 45.0777 95.9179 46.6833C91.7219 47.1136 87.5215 47.4773 83.3255 47.9253C82.6025 47.9962 81.8707 48.014 81.3029 48.564Z" fill="#1FAE55"/>
<path d="M81.303 48.5638C80.6288 47.925 80.58 47.4771 81.6711 47.3795C86.1732 46.9803 90.6752 46.6166 95.1728 46.173C99.7946 45.7162 104.408 45.1573 109.025 44.6783C112.152 44.3545 115.288 44.1105 118.415 43.8C123.365 43.3077 128.306 42.7754 133.256 42.2919C136.45 41.977 139.648 41.6932 142.846 41.4359C143.631 41.3738 144.434 41.4758 145.148 41.0278C145.378 41.5734 145.999 41.9238 145.942 42.6157C143.884 44.0129 141.457 43.4186 139.231 43.7246C132.821 44.5984 126.363 45.1351 119.923 45.7517C115.235 46.2041 110.533 46.5323 105.845 46.9936C101.227 47.446 96.6277 48.0847 92.0059 48.4706C88.9409 48.7279 85.8716 48.923 82.8244 49.371C82.3143 49.4464 81.8175 49.6283 81.3163 49.7569C81.3119 49.3533 81.3074 48.9585 81.303 48.5638Z" fill="#24B055"/>
<path d="M92.405 40.2293C92.8042 40.8902 93.1989 41.5511 93.5981 42.212C92.9328 42.9837 92.0235 43.0636 91.0921 43.1523C84.6251 43.7599 78.1626 44.4164 71.6956 45.0329C65.752 45.6007 59.8084 46.2172 53.8604 46.7761C50.4672 47.0955 47.0607 47.3172 43.6764 47.7963C42.3414 47.987 40.9176 48.2797 39.6667 47.3749C39.924 46.8781 40.1147 46.3636 40.0615 45.787C40.4696 45.0729 41.1526 44.8999 41.8978 44.8156C49.8862 43.9196 57.9011 43.2765 65.8984 42.4293C73.5629 41.6176 81.2408 40.8946 88.9098 40.1494C90.0719 40.0341 91.2562 39.6394 92.405 40.2293Z" fill="#16AD56"/>
<path d="M92.405 40.2296C89.1937 40.9349 85.9114 41.0413 82.6602 41.405C77.7146 41.9595 72.7601 42.4518 67.8056 42.9308C63.1705 43.3788 58.5266 43.7026 53.9003 44.2127C49.2874 44.7228 44.6301 44.8603 40.0615 45.7784C40.3277 44.9845 40.5893 44.1905 40.8555 43.3966C43.7829 42.1635 46.9366 42.3675 49.9926 42.0482C60.2165 40.9881 70.4536 40.0389 80.6819 38.9788C83.5029 38.6861 86.3284 38.482 89.1449 38.1715C89.8989 38.0873 90.5864 38.2203 91.2207 38.6328C91.611 39.1695 92.0102 39.7018 92.405 40.2296Z" fill="#12AB57"/>
<path d="M91.2163 38.6416C86.213 39.1428 81.2098 39.6573 76.2021 40.1452C73.0129 40.4557 69.8194 40.7085 66.6302 41.0279C61.7556 41.5114 56.8854 42.0658 52.0108 42.5227C48.2983 42.8686 44.5769 43.117 40.8555 43.4053C41.1172 42.8775 41.3833 42.3453 41.645 41.8174C42.3502 40.7219 43.5301 40.6509 44.6212 40.5444C53.2039 39.7106 61.7866 38.8634 70.3694 38.0251C76.069 37.4706 81.7686 36.8851 87.4683 36.3174C88.0582 36.2597 88.6437 36.1799 89.238 36.2597C89.8945 37.0537 90.5554 37.8476 91.2163 38.6416Z" fill="#0EAA57"/>
<path d="M93.9885 42.2121C94.2547 41.5512 94.5252 40.8903 94.7914 40.2294C96.0156 39.4798 97.3906 39.3689 98.7744 39.2403C108.989 38.2867 119.191 37.2133 129.406 36.2552C133.061 35.9137 136.698 35.1995 140.397 35.4612C141.4 35.5677 141.888 36.3084 142.371 37.058C141.905 38.0383 140.969 38.2512 140.056 38.3221C134.081 38.7834 128.124 39.4488 122.163 40.0254C116.268 40.5931 110.373 41.1653 104.483 41.8218C101.542 42.15 98.5748 42.2742 95.6385 42.6911C95.0442 42.7754 94.4365 42.7133 93.9885 42.2121Z" fill="#17AD56"/>
<path d="M89.2336 36.2597C87.455 37.6125 85.2771 37.0936 83.3167 37.3464C77.3553 38.1182 71.3452 38.4597 65.3617 39.0541C59.3161 39.6529 53.2882 40.4114 47.2426 40.9702C45.3487 41.1432 43.4547 41.1476 41.645 41.8174C41.7692 40.7529 42.6918 40.2206 43.2329 39.4355C45.3176 37.9142 47.8148 38.3577 50.1213 38.1138C61.5339 36.9206 72.9553 35.8428 84.3767 34.7073C85.5211 34.592 86.5989 34.5698 87.6502 35.0666C88.178 35.4658 88.7058 35.865 89.2336 36.2597Z" fill="#09A958"/>
<path d="M143.959 39.0407C138.938 39.5464 133.921 40.0609 128.9 40.5532C125.769 40.8593 122.629 41.1121 119.497 41.4226C114.543 41.9149 109.593 42.4561 104.638 42.9395C101.374 43.2589 98.1002 43.4807 94.8356 43.8045C90.0763 44.2791 85.3259 44.8202 80.5666 45.2992C77.3686 45.623 74.1617 45.8625 70.9637 46.1819C66.0758 46.6698 61.1878 47.1976 56.2999 47.6944C53.3636 47.9916 50.4317 48.3597 47.4865 48.5283C44.7321 48.6879 41.9998 48.9851 39.272 49.3533C39.4006 49.0871 39.5292 48.8255 39.6623 48.5593C39.9417 48.0581 40.3542 47.8053 40.9397 47.7831C45.6591 47.5968 50.3474 46.967 55.0447 46.519C59.6044 46.0843 64.1685 45.6408 68.7193 45.0952C71.8375 44.7226 74.9823 44.4964 78.1182 44.1992C81.7021 43.8577 85.286 43.4718 88.8699 43.1258C92.0679 42.8153 95.2614 42.4782 98.4639 42.1944C101.986 41.8794 105.503 41.5246 109.02 41.152C112.147 40.8238 115.283 40.5444 118.415 40.2206C122.061 39.848 125.716 39.471 129.366 39.1516C132.631 38.8633 135.882 38.3133 139.16 38.2778C140.499 38.2645 141.843 37.2532 143.187 38.2335C143.555 38.3976 143.817 38.6593 143.959 39.0407Z" fill="#1BAD56"/>
<path d="M143.178 38.2423C138.29 38.748 133.403 39.2669 128.51 39.7593C125.374 40.0742 122.234 40.3226 119.102 40.6331C114.144 41.1254 109.194 41.6665 104.235 42.1544C101.037 42.4693 97.8253 42.7 94.6273 43.0194C89.8015 43.4984 84.9801 44.0351 80.1542 44.5186C76.9562 44.8379 73.7493 45.0819 70.5469 45.3968C65.6545 45.8847 60.771 46.4303 55.8787 46.9093C52.5476 47.2331 49.1988 47.4061 45.8766 47.8053C43.8008 48.0537 41.6762 47.9029 39.6536 48.5682C39.658 48.1734 39.658 47.7742 39.6624 47.3795C45.4286 47.2198 51.1415 46.4657 56.8722 45.8492C61.494 45.3524 66.1336 45.0464 70.7598 44.5895C75.5102 44.1194 80.2474 43.5073 85.0022 43.0859C87.872 42.8331 90.7462 42.6601 93.5938 42.221C93.7225 42.221 93.8555 42.221 93.9842 42.221C98.9963 41.7153 104.008 41.2052 109.025 40.7129C112.156 40.4068 115.288 40.1496 118.419 39.8391C123.369 39.3467 128.315 38.8234 133.261 38.3266C135.022 38.1492 136.782 37.923 138.548 37.8875C139.896 37.8609 141.16 37.6524 142.367 37.0669C142.642 37.4528 142.908 37.8475 143.178 38.2423Z" fill="#1AAD56"/>
<path d="M132.467 32.2944C134.387 32.5827 136.392 32.5694 138.02 33.8779C137.612 34.8981 136.702 35.1243 135.771 35.1997C127.171 35.8961 118.606 36.9562 110.005 37.688C106.661 37.9719 103.316 38.3223 99.9764 38.6993C98.7566 38.8368 97.4792 39.1517 96.3748 38.2425C96.8804 37.4263 97.5413 36.7654 98.3574 36.2553C100.118 35.1287 102.154 35.2884 104.093 35.1021C112.981 34.2638 121.843 33.1239 130.768 32.6848C131.367 32.6626 131.956 32.667 132.467 32.2944Z" fill="#0FAB57"/>
<path d="M122.571 52.5335C122.571 51.4734 122.571 50.4177 122.567 49.3576C123.693 48.4883 125.086 48.5903 126.359 48.4883C132.662 47.9871 138.934 47.1576 145.237 46.6874C146.088 46.6254 146.975 46.4169 147.521 47.3705C147.765 48.2798 148.053 49.1846 147.911 50.1516C145.347 51.4645 142.5 51.1629 139.781 51.4734C134.933 52.0278 130.076 52.5335 125.21 52.9105C124.296 52.9814 123.374 53.2343 122.571 52.5335Z" fill="#33B353"/>
<path d="M96.3747 38.2469C102.003 38.0783 107.57 37.2799 113.163 36.7166C117.714 36.2553 122.3 36.0469 126.825 35.417C130.555 34.8981 134.423 35.3372 138.02 33.8823C138.894 34.2904 139.705 34.7872 140.397 35.4658C137.723 36.446 134.879 36.2731 132.116 36.6235C127.055 37.2622 121.968 37.7057 116.889 38.1892C112.196 38.6328 107.495 39.0142 102.802 39.4445C100.132 39.6884 97.4614 39.9723 94.7913 40.234C95.3191 39.5686 95.8469 38.9078 96.3747 38.2469Z" fill="#13AC57"/>
<path d="M87.6502 35.0709C82.6292 35.5765 77.6126 36.0955 72.5916 36.5834C69.3936 36.8939 66.1867 37.1378 62.9887 37.4572C58.1008 37.9451 53.2129 38.4773 48.3249 38.9785C46.6306 39.1515 44.9273 39.2846 43.2285 39.4398C43.5701 38.0027 44.5148 37.5548 45.9475 37.4217C51.931 36.8628 57.9056 36.1576 63.8847 35.541C67.0073 35.2172 70.1388 34.9733 73.2658 34.6761C76.9739 34.3213 80.682 33.9753 84.3812 33.5628C85.8316 33.3942 86.6832 34.308 87.6502 35.0709Z" fill="#05A858"/>
<path d="M64.6389 70.7857C64.6389 71.7127 64.6389 72.6397 64.6389 73.5623C63.5034 74.4804 62.1018 74.1744 60.8288 74.3163C54.2154 75.0438 47.6021 75.7224 40.971 76.2635C40.3722 76.3123 39.7823 76.3655 39.2766 75.9442C39.2766 75.0171 39.2766 74.0901 39.2766 73.1675C39.7645 72.5732 40.4077 72.2982 41.1617 72.2228C48.0456 71.5441 54.934 70.9143 61.8135 70.2224C62.7804 70.1248 63.805 70.0671 64.6389 70.7857Z" fill="#55BB4F"/>
<path d="M64.6433 55.31C64.6433 56.237 64.6433 57.1641 64.6433 58.0866C63.5078 59.0048 62.1062 58.6987 60.8332 58.8407C54.2198 59.577 47.5976 60.2024 40.971 60.7879C40.3722 60.8411 39.7823 60.8855 39.2766 60.4685C39.2766 59.5415 39.2766 58.6145 39.2766 57.6919C39.902 57.0221 40.7182 56.8137 41.5919 56.7338C48.2763 56.1173 54.9517 55.4342 61.6272 54.7778C62.6606 54.6757 63.7385 54.5515 64.6433 55.31Z" fill="#33B353"/>
<path d="M132.467 32.2944C130.936 33.8513 128.869 33.1505 127.091 33.4033C121.977 34.1396 116.814 34.5255 111.664 35.0267C107.233 35.457 102.793 35.8517 98.3574 36.2598C99.6748 34.5787 101.507 33.6694 103.472 33.1194C105.552 32.5339 107.699 32.2589 109.89 32.2767C117.412 32.321 124.939 32.2944 132.467 32.2944Z" fill="#0AAA58"/>
<path d="M39.272 75.9488C47.7172 75.0617 56.1535 74.0326 64.6387 73.5669C64.6387 74.3609 64.6387 75.1548 64.6387 75.9488C63.308 76.8846 61.7112 76.6984 60.2431 76.8359C53.9446 77.4169 47.664 78.2153 41.3522 78.6677C40.6248 78.721 39.9018 78.8629 39.2764 78.3306C39.272 77.5322 39.272 76.7427 39.272 75.9488Z" fill="#5BBC4E"/>
<path d="M39.272 78.326C45.4418 77.674 51.5983 76.9156 57.7814 76.4188C60.0612 76.2369 62.3278 75.7047 64.6387 75.9442C64.6387 76.7381 64.6387 77.5321 64.6387 78.326C63.3036 79.2309 61.7245 79.12 60.2431 79.2619C54.0688 79.8519 47.899 80.5172 41.7248 81.116C40.8643 81.2003 40.0083 81.3511 39.2764 80.7079C39.2764 79.914 39.2764 79.12 39.272 78.326Z" fill="#61BD4E"/>
<path d="M64.6344 91.4242C64.6344 92.2182 64.6344 93.0122 64.6344 93.8061C62.0707 95.1235 59.2231 94.8174 56.5041 95.1279C51.6561 95.6823 46.7859 96.0993 41.9246 96.565C41.0064 96.6537 40.0794 96.8844 39.281 96.188C39.281 95.394 39.281 94.6001 39.281 93.8061C41.6008 92.4178 44.2577 92.7993 46.7548 92.5021C51.767 91.9077 56.8013 91.4908 61.8178 90.9541C62.7981 90.8521 63.7916 90.7013 64.6344 91.4242Z" fill="#84C54A"/>
<path d="M64.6431 60.0739C64.6431 60.8679 64.6431 61.6619 64.6431 62.4558C63.3125 63.4316 61.7068 63.1433 60.2431 63.2852C53.8826 63.9062 47.5398 64.709 41.1615 65.1349C40.5051 65.1792 39.8398 65.3034 39.2676 64.8332C39.2676 64.0393 39.2676 63.2453 39.2676 62.4514C39.8442 61.8437 40.5761 61.5953 41.3878 61.5155C48.1963 60.859 55.0136 60.278 61.8177 59.5239C62.7891 59.4175 63.8048 59.3554 64.6431 60.0739Z" fill="#3CB552"/>
<path d="M64.6387 64.0395C64.6387 64.8335 64.6387 65.6274 64.6387 66.4214C63.3081 67.3972 61.7024 67.1045 60.2342 67.2553C53.8737 67.9117 47.5176 68.6037 41.1482 69.1625C40.4829 69.2202 39.8265 69.2779 39.2676 68.8033C39.2676 68.0093 39.2676 67.2154 39.2676 66.4214C40.0039 65.6319 40.9753 65.5166 41.9777 65.4367C48.3382 64.9222 54.681 64.2258 61.0282 63.5738C62.2613 63.4496 63.5298 63.1746 64.6387 64.0395Z" fill="#45B751"/>
<path d="M64.6387 70.7857C58.8769 70.9365 53.1729 71.7038 47.4555 72.2982C44.7277 72.5821 41.9776 72.6442 39.272 73.1631C39.272 72.3692 39.272 71.5752 39.272 70.7812C39.8974 70.1115 40.7135 69.903 41.5873 69.8232C48.2672 69.2066 54.9426 68.5236 61.6181 67.8671C62.656 67.7651 63.7338 67.6409 64.6387 68.3994C64.6387 69.1978 64.6387 69.9917 64.6387 70.7857Z" fill="#4FB950"/>
<path d="M64.6431 50.9454C64.6431 51.7394 64.6431 52.5333 64.6431 53.3273C63.175 54.3918 61.4451 53.8329 59.8484 54.0503C54.1798 54.8309 48.4713 55.239 42.7805 55.8511C41.6273 55.9753 40.4208 56.1704 39.2676 55.7047C39.2676 54.9108 39.2676 54.1168 39.2676 53.3229C40.0039 52.5378 40.9753 52.418 41.9777 52.3382C48.3382 51.8236 54.6854 51.1273 61.0326 50.4752C62.2657 50.3511 63.5298 50.0761 64.6431 50.9454Z" fill="#28B054"/>
<path d="M64.6342 79.914C64.6342 80.708 64.6342 81.5019 64.6342 82.2959C64.1685 82.7217 63.5919 82.8193 62.9931 82.8769C55.7809 83.5511 48.5777 84.3185 41.3611 84.9528C40.647 85.0149 39.9107 85.1967 39.272 84.6778C39.272 83.8838 39.272 83.0898 39.2764 82.2959C41.8401 80.9785 44.6877 81.2846 47.4111 80.9741C52.2591 80.4197 57.1205 79.914 61.9907 79.5326C62.9133 79.4616 63.8358 79.2176 64.6342 79.914Z" fill="#6ABF4D"/>
<path d="M147.525 47.3704C146.115 46.6341 144.677 47.3483 143.298 47.4459C138.734 47.7696 134.192 48.4261 129.637 48.8874C127.29 49.1225 124.926 49.2112 122.566 49.362C122.562 49.0959 122.553 48.8297 122.549 48.568C122.318 47.9471 121.351 48.4616 121.16 47.57C124.279 47.2374 127.357 46.9003 130.439 46.5854C135.434 46.0797 140.433 45.6051 145.423 45.0729C146.057 45.0063 146.585 45.1083 147.117 45.3878C147.255 46.0487 147.392 46.7096 147.525 47.3704Z" fill="#2DB154"/>
<path d="M39.2676 55.7051C40.9176 54.8135 42.7805 55.195 44.4926 55.0708C51.2168 54.5696 57.8745 53.2611 64.6431 53.3276C64.6431 53.9885 64.6431 54.6494 64.6431 55.3103C59.0145 55.4833 53.4435 56.2418 47.8503 56.8184C44.9894 57.1156 42.1152 57.2575 39.2676 57.6922C39.2676 57.0313 39.2676 56.366 39.2676 55.7051Z" fill="#2CB154"/>
<path d="M64.6388 83.8837C64.6388 84.5446 64.6388 85.2054 64.6388 85.8663C62.0751 87.1837 59.2231 86.8599 56.5041 87.1926C51.6605 87.778 46.7859 88.1639 41.9246 88.6252C41.0064 88.7139 40.0794 88.9446 39.281 88.2482C39.281 87.5873 39.281 86.9264 39.281 86.2655C41.5121 84.7929 44.1157 85.2542 46.5508 84.9482C51.625 84.305 56.7392 83.9768 61.8267 83.4179C62.7981 83.3071 63.7917 83.1607 64.6388 83.8837Z" fill="#72C14C"/>
<path d="M64.6344 87.8537C64.6344 88.5145 64.6344 89.1754 64.6344 89.8363C63.2993 90.7412 61.7247 90.6347 60.2433 90.7722C54.069 91.3311 47.917 92.0984 41.7339 92.5642C40.8823 92.6263 40.0218 92.8658 39.2766 92.2182C39.2766 91.5573 39.2766 90.8964 39.2766 90.2355C41.348 88.7097 43.8363 89.171 46.1339 88.927C51.2259 88.3815 56.3267 87.9069 61.4231 87.3879C62.5276 87.2726 63.6586 87.0508 64.6344 87.8537Z" fill="#7BC34B"/>
<path d="M64.6344 95.7885C64.6344 96.4493 64.6344 97.1102 64.6344 97.7711C62.0707 99.0885 59.2231 98.7824 56.4997 99.0929C51.6517 99.6474 46.7815 100.064 41.9202 100.53C41.002 100.619 40.075 100.849 39.2766 100.153C39.2766 99.4921 39.2766 98.8312 39.2766 98.1703C41.5032 96.6977 44.1113 97.159 46.542 96.853C51.6162 96.2098 56.7304 95.8816 61.8135 95.3227C62.7981 95.2118 63.7917 95.0655 64.6344 95.7885Z" fill="#8DC749"/>
<path d="M122.571 52.5337C127.57 52.0281 132.564 51.5047 137.563 51.0301C141.009 50.7019 144.46 50.4446 147.911 50.1519C147.92 50.8127 147.929 51.4692 147.942 52.1301C142.939 52.6313 137.935 53.1547 132.932 53.6337C129.481 53.962 126.026 54.2281 122.571 54.5208C122.575 53.8555 122.571 53.1946 122.571 52.5337Z" fill="#39B452"/>
<path d="M64.6344 100.947C64.6344 101.608 64.6344 102.269 64.6344 102.93C62.2259 104.332 59.4892 103.941 56.9033 104.252C51.9222 104.846 46.9234 105.303 41.9246 105.751C40.9976 105.835 40.075 106.004 39.281 105.312C39.281 104.651 39.281 103.99 39.281 103.329C41.8447 102.012 44.6923 102.291 47.4113 102.012C52.2682 101.511 57.1251 100.992 61.9864 100.566C62.909 100.486 63.8316 100.251 64.6344 100.947Z" fill="#99CA47"/>
<path d="M64.6431 60.074C59.0144 60.2425 53.4479 61.0675 47.8547 61.5865C44.9893 61.8526 42.1196 62.0123 39.272 62.4559C39.272 61.795 39.272 61.1341 39.272 60.4732C47.7172 59.5373 56.158 58.5703 64.6431 58.0913C64.6431 58.7478 64.6431 59.4086 64.6431 60.074Z" fill="#38B452"/>
<path d="M39.281 105.316C44.4262 104.948 49.5536 104.433 54.6767 103.826C57.9856 103.431 61.3122 103.227 64.6344 102.934C64.6344 103.595 64.6344 104.256 64.6344 104.917C59.6223 105.422 54.6146 106.008 49.5936 106.403C46.1294 106.673 42.6875 106.988 39.281 107.693C39.281 106.899 39.281 106.105 39.281 105.316Z" fill="#9ECB47"/>
<path d="M64.6387 68.4082C59.0144 68.5812 53.439 69.3397 47.8503 69.9163C44.9938 70.2135 42.1151 70.3466 39.272 70.7901C39.272 70.1292 39.272 69.4683 39.272 68.8074C45.3087 68.1554 51.3366 67.3925 57.391 66.9002C59.7995 66.705 62.1991 66.1639 64.6431 66.4256C64.6387 67.082 64.6387 67.7429 64.6387 68.4082Z" fill="#4BB850"/>
<path d="M64.6344 95.7889C59.3562 96.1348 54.0957 96.6671 48.8396 97.2792C45.6593 97.6518 42.4657 97.878 39.2766 98.1663C39.2766 97.5054 39.2766 96.8445 39.2766 96.1836C44.2754 95.6824 49.2743 95.1546 54.2775 94.68C57.7239 94.3518 61.1792 94.0901 64.63 93.8018C64.6344 94.4671 64.6344 95.128 64.6344 95.7889Z" fill="#89C649"/>
<path d="M64.6344 87.8533C59.3429 88.0529 54.0957 88.7759 48.8396 89.3481C45.6593 89.6941 42.4657 89.9424 39.2766 90.2308C39.2766 89.5699 39.2766 88.909 39.2766 88.2481C44.2754 87.7469 49.2743 87.219 54.2775 86.7444C57.7239 86.4162 61.1792 86.1545 64.6344 85.8662C64.6344 86.5271 64.6344 87.1924 64.6344 87.8533Z" fill="#77C24B"/>
<path d="M64.6432 50.9456C59.1431 51.1097 53.7008 51.8593 48.2451 52.4758C45.26 52.8129 42.2572 53.048 39.2632 53.3274C39.2632 52.7996 39.2632 52.2673 39.2632 51.7395C40.9842 50.8569 42.8914 51.327 44.7011 51.0609C49.3007 50.3867 53.9802 50.2935 58.5976 49.6947C60.6113 49.4331 62.6827 49.6504 64.6388 48.9629C64.6432 49.6193 64.6432 50.2847 64.6432 50.9456Z" fill="#23AF55"/>
<path d="M64.6388 83.8838C59.3606 84.2298 54.1001 84.762 48.844 85.3786C45.6637 85.7512 42.4701 85.9774 39.281 86.2657C39.281 85.7378 39.281 85.2056 39.281 84.6778C47.7218 83.7374 56.1581 82.7616 64.6433 82.2959C64.6388 82.8237 64.6388 83.356 64.6388 83.8838Z" fill="#6EC04C"/>
<path d="M64.6344 79.9141C59.6356 80.4153 54.6368 80.9387 49.6335 81.4133C46.1871 81.7416 42.7319 82.0033 39.2766 82.2916C39.2766 81.7637 39.2766 81.2315 39.2766 80.7036C44.1468 80.198 49.0126 79.6657 53.8872 79.2045C57.4666 78.8629 61.055 78.6145 64.6389 78.3218C64.6344 78.8585 64.6344 79.3863 64.6344 79.9141Z" fill="#66BE4D"/>
<path d="M64.6344 100.947C59.7686 101.448 54.9029 101.981 50.0283 102.446C46.4488 102.788 42.8649 103.036 39.281 103.329C39.281 102.801 39.281 102.269 39.281 101.741C41.6673 100.344 44.3863 100.699 46.95 100.433C51.9045 99.9137 56.8589 99.4125 61.8178 98.9468C62.7981 98.8536 63.7828 98.6274 64.6344 99.3637C64.6344 99.8915 64.6344 100.419 64.6344 100.947Z" fill="#95C948"/>
<path d="M39.2766 92.2178C44.1468 91.7122 49.0126 91.1799 53.8828 90.7186C57.4622 90.3771 61.0505 90.1287 64.6344 89.8359C64.6344 90.3638 64.6344 90.896 64.6344 91.4238C59.4804 91.721 54.3618 92.342 49.2388 92.9142C45.9299 93.2868 42.5988 93.513 39.281 93.8013C39.2766 93.2779 39.2766 92.7456 39.2766 92.2178Z" fill="#7FC44A"/>
<path d="M64.6344 99.3594C59.6356 99.8606 54.6367 100.384 49.6335 100.859C46.1871 101.187 42.7318 101.449 39.281 101.741C39.281 101.213 39.281 100.681 39.281 100.153C44.2798 99.6521 49.2787 99.1243 54.2819 98.6497C57.7283 98.3215 61.1836 98.0598 64.6344 97.7715C64.6344 98.3037 64.6344 98.8316 64.6344 99.3594Z" fill="#91C848"/>
<path d="M64.6387 64.0396C59.1431 64.2037 53.7007 64.9533 48.2451 65.5698C45.26 65.9069 42.2615 66.142 39.2676 66.4214C39.2676 65.8936 39.2676 65.3614 39.2676 64.8335C47.7217 64.013 56.1491 62.8775 64.6387 62.4517C64.6431 62.9839 64.6387 63.5117 64.6387 64.0396Z" fill="#42B651"/>
<path d="M106.674 88.2436C98.2466 88.2436 89.8192 88.2436 81.3917 88.2436C81.3784 87.8445 81.3695 87.4408 81.3562 87.0416C81.6489 86.5759 81.3074 85.8307 82.0082 85.5424C86.3639 84.8594 90.7639 84.5444 95.1506 84.1319C98.3619 83.8303 101.56 83.3912 104.785 83.2404C105.432 83.2093 106.102 83.0319 106.692 83.4844C106.687 85.0723 106.683 86.6557 106.674 88.2436Z" fill="#7BC44B"/>
<path d="M81.3428 68.794C81.3428 67.734 81.3384 66.6783 81.3384 65.6182C81.5513 64.7267 82.1634 64.363 83.0372 64.2698C90.4179 63.4714 97.8163 62.7928 105.206 62.0609C105.747 62.0077 106.257 62.092 106.687 62.4557C106.687 63.5158 106.687 64.5714 106.687 65.6315C105.295 67.0198 103.445 66.5763 101.795 66.7537C94.9776 67.4856 88.1691 68.2352 81.3428 68.794Z" fill="#4DB950"/>
<path d="M81.3296 60.4686C81.3296 59.5416 81.3252 58.6102 81.3252 57.6831C81.7466 56.8404 82.5538 56.7827 83.3478 56.6896C90.5511 55.8468 97.7809 55.2303 104.998 54.5295C105.605 54.4718 106.186 54.4851 106.679 54.9109C106.679 55.838 106.679 56.765 106.679 57.6876C105.046 59.2045 102.922 58.6989 101.037 58.9073C95.1729 59.5638 89.2914 60.0473 83.4276 60.6727C82.7268 60.757 81.9861 60.9565 81.3296 60.4686Z" fill="#3BB552"/>
<path d="M106.679 62.4556C100.624 63.1121 94.5784 63.8395 88.5151 64.3718C86.7542 64.527 84.9889 64.7222 83.2235 64.8065C82.4384 64.842 81.8175 64.9972 81.334 65.6182C81.334 64.5625 81.334 63.5069 81.334 62.4556C82.3364 61.3556 83.7292 61.4976 85.0066 61.3601C91.5268 60.6504 98.0514 60.0427 104.585 59.4528C105.286 59.3907 106.026 59.1867 106.679 59.679C106.679 60.6016 106.679 61.5286 106.679 62.4556Z" fill="#45B751"/>
<path d="M81.7022 85.8666C81.6889 86.288 81.7731 86.736 81.3606 87.042C81.3606 85.7202 81.3562 84.3984 81.3562 83.0767C81.6534 82.6109 81.3118 81.8658 82.0082 81.5775C86.3639 80.89 90.7683 80.6061 95.1506 80.1537C98.3575 79.821 101.556 79.373 104.785 79.271C105.432 79.2488 106.102 79.067 106.692 79.5194C106.692 80.3133 106.696 81.1073 106.696 81.9013C104.785 83.4759 102.403 82.9613 100.247 83.192C94.8889 83.7686 89.5175 84.2476 84.155 84.8331C83.228 84.9307 82.3054 85.0194 81.7022 85.8666Z" fill="#73C14C"/>
<path d="M81.3206 55.7005C81.3206 54.911 81.3206 54.1171 81.3206 53.3276C82.6911 51.9747 84.5319 52.2453 86.173 52.0856C92.3162 51.4824 98.4461 50.7638 104.598 50.2759C105.312 50.2183 106.044 50.0275 106.678 50.5509C106.678 51.3449 106.678 52.1388 106.678 52.9328C105.782 53.7578 104.656 53.8155 103.534 53.9042C97.2219 54.4054 90.9368 55.1284 84.6383 55.7538C83.5339 55.8647 82.4206 56.153 81.3206 55.7005Z" fill="#32B353"/>
<path d="M81.7022 81.8968C81.6889 82.3182 81.7731 82.7706 81.3562 83.0722C81.3562 81.6174 81.3562 80.1581 81.3562 78.7033C81.5425 77.9093 82.0348 77.4746 82.8598 77.3948C90.4357 76.654 98.0071 75.8379 105.592 75.1948C105.995 75.1593 106.368 75.2879 106.692 75.5452C106.692 76.2061 106.692 76.867 106.692 77.5278C106.2 78.1222 105.561 78.3883 104.802 78.4593C98.1224 79.0936 91.4514 79.8609 84.7671 80.4508C83.503 80.5706 82.4429 80.819 81.7022 81.8968Z" fill="#69BF4D"/>
<path d="M106.679 59.6746C103.303 60.0693 99.9321 60.5351 96.5523 60.8455C91.4736 61.3157 86.3772 61.6484 81.334 62.4512C81.334 61.7903 81.3296 61.1294 81.3296 60.4685C84.3324 59.7234 87.424 59.6834 90.4712 59.3153C95.8603 58.6588 101.276 58.2197 106.679 57.6919C106.679 58.3528 106.679 59.0137 106.679 59.6746Z" fill="#42B651"/>
<path d="M81.3516 76.7248C81.3516 76.0639 81.3516 75.403 81.3472 74.7421C81.5689 73.5667 82.5004 73.4691 83.4363 73.3493C88.5859 72.6929 93.7622 72.3159 98.9251 71.7969C100.819 71.6062 102.709 71.3622 104.616 71.2425C105.339 71.1981 106.062 71.0517 106.683 71.5796C106.683 72.2405 106.683 72.9013 106.683 73.5622C105.29 74.9506 103.445 74.5026 101.795 74.6889C94.9908 75.4518 88.169 76.0816 81.3516 76.7248Z" fill="#60BD4E"/>
<path d="M81.3518 76.725C82.9308 75.3189 84.9623 75.86 86.7631 75.6161C91.8196 74.9242 96.9116 74.5072 101.995 74.0371C103.56 73.8951 105.144 73.9617 106.687 73.5669C106.687 74.2278 106.687 74.8887 106.692 75.5496C101.414 76.0774 96.1398 76.6141 90.8615 77.1375C88.1248 77.408 85.3881 77.6964 82.647 77.9137C82.0171 77.9625 81.7466 78.3839 81.3518 78.7076C81.3518 78.0468 81.3518 77.3859 81.3518 76.725Z" fill="#65BE4D"/>
<path d="M81.3206 55.7004C84.0351 54.8444 86.8871 54.9375 89.6638 54.5827C95.3146 53.8641 101.005 53.4605 106.678 52.9282C106.678 53.5891 106.678 54.25 106.678 54.9109C100.495 55.5629 94.3166 56.2726 88.1246 56.8448C85.8448 57.0532 83.5561 57.102 81.325 57.6831C81.325 57.0266 81.325 56.3613 81.3206 55.7004Z" fill="#35B453"/>
<path d="M81.3428 72.755C81.3428 72.2272 81.3384 71.6949 81.3384 71.1671C81.467 70.036 82.0569 69.5126 83.2368 69.3973C90.4223 68.7054 97.5945 67.8715 104.793 67.3126C105.45 67.2638 106.106 67.1396 106.678 67.6098C106.678 68.2707 106.678 68.9316 106.678 69.5925C105.286 70.9808 103.441 70.555 101.786 70.7147C94.9776 71.3889 88.1691 72.1518 81.3428 72.755Z" fill="#57BB4F"/>
<path d="M106.683 50.5509C101.409 51.0787 96.131 51.5799 90.8616 52.1477C87.6769 52.4892 84.5011 52.9328 81.3208 53.3275C81.3208 52.7953 81.3164 52.2675 81.3164 51.7352C82.7979 50.6707 84.5942 50.7904 86.2398 50.6041C92.6092 49.8945 99.0052 49.4243 105.379 48.7811C107.051 48.6126 106.563 49.7348 106.683 50.5509Z" fill="#2CB154"/>
<path d="M106.683 67.6145C101.289 68.1423 95.8957 68.6702 90.5021 69.2069C87.9029 69.4641 85.3082 69.8012 82.7045 69.9653C81.7864 70.023 81.7997 70.7859 81.3384 71.1718C81.3384 70.3823 81.3384 69.5883 81.3384 68.7988C82.7223 67.3927 84.6118 67.9827 86.2174 67.752C90.8038 67.0867 95.4522 66.8605 100.07 66.4169C102.278 66.204 104.478 65.898 106.678 65.6318C106.683 66.2883 106.683 66.9492 106.683 67.6145Z" fill="#53BA4F"/>
<path d="M81.3428 72.7553C82.9218 71.3492 84.9533 71.8904 86.7541 71.642C91.8106 70.95 96.9025 70.5331 101.99 70.0629C103.556 69.9166 105.144 69.992 106.683 69.5928C106.683 70.2537 106.683 70.9146 106.683 71.5754C100.5 72.2319 94.3211 72.9682 88.1291 73.4872C86.4303 73.6291 84.7448 73.9884 83.0371 73.9351C82.2875 73.913 81.7863 74.2101 81.3472 74.7335C81.3472 74.0771 81.3472 73.4162 81.3428 72.7553Z" fill="#5CBC4E"/>
<path d="M81.7021 81.8968C81.5469 80.473 82.119 79.9718 83.6049 79.8742C89.8856 79.4661 96.1486 78.8407 102.389 77.998C103.818 77.8028 105.299 78.0911 106.692 77.5322C106.692 78.1931 106.692 78.854 106.692 79.5149C103.449 79.9008 100.216 80.4552 96.9647 80.6327C91.8594 80.9121 86.8251 81.9323 81.7021 81.8968Z" fill="#6EC04C"/>
<path d="M81.7021 85.8663C81.7465 85.1743 81.5203 84.3759 82.6558 84.2784C86.8961 83.9058 91.132 83.5066 95.368 83.0852C99.147 82.7082 102.917 82.2957 106.692 81.8965C106.692 82.4243 106.692 82.9566 106.692 83.4844C103.583 83.8703 100.478 84.4513 97.3595 84.5933C92.1212 84.8328 86.9538 85.8973 81.7021 85.8663Z" fill="#77C24B"/>
<path d="M84.8735 170.407C84.8735 170.274 84.8336 170.128 84.8779 170.012C85.3126 168.992 83.8666 167.342 85.6719 166.872C87.6856 166.349 90.1739 167.812 90.7017 169.511C91.2251 171.197 90.5288 172.873 88.932 173.689C88.0449 174.142 87.0912 174.332 86.0799 174.386C85.1263 174.435 84.7715 174.151 84.8557 173.175C84.9356 172.261 84.8735 171.334 84.8735 170.407Z" fill="#17A110"/>
<path d="M147.915 66.4255C147.915 67.4856 147.915 68.5412 147.915 69.6013C145.667 71.0695 143.05 70.6481 140.601 70.9098C135.616 71.442 130.621 71.93 125.627 72.4134C124.58 72.5154 123.516 72.7771 122.597 71.9832C122.597 70.9231 122.593 69.8674 122.593 68.8074C123.782 67.9069 125.237 68.0311 126.581 67.9025C132.945 67.2948 139.302 66.6206 145.667 65.9864C146.469 65.9065 147.254 65.8311 147.915 66.4255Z" fill="#5FBD4E"/>
<path d="M147.915 75.9485C147.915 77.0085 147.915 78.0642 147.915 79.1243C145.356 80.4416 142.509 80.1223 139.794 80.4416C135.017 81.0049 130.227 81.4485 125.436 81.9054C124.456 81.9985 123.462 82.2691 122.606 81.5062C122.606 80.4461 122.606 79.3904 122.606 78.3303C123.72 77.4565 125.077 77.4654 126.377 77.3634C132.622 76.8666 138.845 76.1303 145.081 75.536C146.066 75.4428 147.059 75.2077 147.915 75.9485Z" fill="#73C24C"/>
<path d="M147.92 58.4905C147.92 59.5462 147.92 60.6063 147.92 61.6619C145.511 63.0502 142.779 62.6599 140.193 62.9793C135.221 63.6002 130.213 63.9506 125.228 64.4696C124.305 64.5672 123.378 64.7402 122.589 64.0393C122.589 62.9837 122.584 61.9236 122.584 60.8635C123.777 59.9853 125.21 60.0252 126.567 59.9188C132.817 59.422 139.04 58.7079 145.276 58.1002C146.199 58.0159 147.121 57.7897 147.92 58.4905Z" fill="#4DB950"/>
<path d="M147.92 91.8236C147.92 92.7506 147.92 93.6776 147.92 94.6002C147.286 95.4075 146.385 95.5095 145.445 95.5893C139.16 96.1216 132.883 96.7958 126.607 97.4345C125.259 97.572 123.853 97.9313 122.615 96.9865C122.615 96.0595 122.615 95.1325 122.615 94.2099C123.804 93.3095 125.259 93.4337 126.598 93.305C132.959 92.6974 139.315 92.0276 145.671 91.3889C146.474 91.3046 147.259 91.2337 147.92 91.8236Z" fill="#98CA47"/>
<path d="M122.606 81.5064C127.596 81.0007 132.586 80.4729 137.581 79.9983C141.023 79.6701 144.469 79.4128 147.915 79.1245C147.915 80.0515 147.915 80.9741 147.915 81.9011C147.033 82.7306 145.911 82.7882 144.793 82.8814C138.521 83.387 132.267 84.0923 126.004 84.7133C124.842 84.8286 123.649 85.1479 122.611 84.283C122.611 83.356 122.606 82.4334 122.606 81.5064Z" fill="#7CC44B"/>
<path d="M122.615 96.982C128.235 96.8578 133.788 96.0461 139.364 95.4561C142.216 95.1545 145.094 95.1235 147.92 94.6001C147.92 95.5271 147.92 96.4497 147.92 97.3767C147.432 97.9711 146.793 98.2505 146.035 98.3215C139.164 98.9646 132.298 99.6876 125.427 100.317C124.465 100.406 123.436 100.508 122.611 99.7586C122.615 98.836 122.615 97.909 122.615 96.982Z" fill="#9FCC47"/>
<path d="M147.915 66.4256C143.054 66.9268 138.193 67.4502 133.327 67.916C129.752 68.2575 126.173 68.5147 122.593 68.8075C122.593 67.8805 122.589 66.9534 122.589 66.0264C123.782 65.1482 125.214 65.1881 126.572 65.0817C132.817 64.5938 139.035 63.8264 145.276 63.2631C146.194 63.1788 147.117 62.9437 147.915 63.6446C147.915 64.5716 147.915 65.4986 147.915 66.4256Z" fill="#57BB4F"/>
<path d="M147.92 58.4904C143.054 58.9916 138.193 59.5194 133.323 59.9807C129.748 60.3222 126.164 60.5751 122.584 60.8722C122.584 59.9452 122.58 59.0182 122.58 58.0912C123.84 57.1863 125.356 57.2972 126.767 57.1686C133.07 56.5964 139.355 55.8291 145.662 55.3323C146.456 55.2702 147.246 55.1194 147.92 55.7137C147.92 56.6363 147.92 57.5633 147.92 58.4904Z" fill="#46B751"/>
<path d="M147.924 99.7583C147.924 100.552 147.924 101.346 147.924 102.14C147.436 102.73 146.798 103.014 146.039 103.085C139.169 103.728 132.302 104.451 125.427 105.085C124.465 105.174 123.436 105.281 122.611 104.527C122.611 103.733 122.611 102.939 122.611 102.145C123.059 101.683 123.649 101.617 124.243 101.564C131.442 100.876 138.632 100.122 145.835 99.4878C146.554 99.4168 147.286 99.2394 147.924 99.7583Z" fill="#AACE45"/>
<path d="M147.915 87.0597C147.915 87.8537 147.915 88.6476 147.915 89.4416C145.919 90.9674 143.489 90.4706 141.267 90.7368C136.064 91.3533 130.834 91.8101 125.614 92.3069C124.58 92.4045 123.511 92.613 122.611 91.8234C122.611 91.0295 122.611 90.2355 122.611 89.4416C123.795 88.5101 125.263 88.7186 126.594 88.59C133.079 87.9779 139.55 87.2815 146.039 86.696C146.709 86.6383 147.361 86.5762 147.915 87.0597Z" fill="#8DC749"/>
<path d="M147.916 71.5843C147.916 72.3783 147.916 73.1722 147.916 73.9662C145.671 75.4388 143.05 74.973 140.601 75.2835C135.563 75.9222 130.484 76.2549 125.432 76.8049C124.452 76.9114 123.449 77.0977 122.602 76.3481C122.602 75.5541 122.602 74.7601 122.602 73.9662C123.791 73.0392 125.259 73.2521 126.59 73.119C133.07 72.4625 139.55 71.8194 146.039 71.225C146.705 71.1629 147.357 71.0964 147.916 71.5843Z" fill="#6ABF4D"/>
<path d="M147.924 99.7583C139.501 100.694 131.083 101.67 122.615 102.14C122.615 101.346 122.615 100.552 122.615 99.7583C128.364 99.6253 134.05 98.8446 139.758 98.2414C142.477 97.9531 145.223 97.8954 147.924 97.3765C147.924 98.1704 147.924 98.9644 147.924 99.7583Z" fill="#A4CD46"/>
<path d="M122.615 91.8233C128.089 91.5616 133.527 90.9495 138.965 90.293C141.941 89.9338 144.935 89.7208 147.92 89.4414C147.92 90.2354 147.92 91.0293 147.924 91.8233C143.063 92.3245 138.206 92.8479 133.345 93.3136C129.774 93.6551 126.195 93.9124 122.62 94.2096C122.615 93.4112 122.615 92.6172 122.615 91.8233Z" fill="#91C848"/>
<path d="M122.615 104.522C128.364 104.389 134.054 103.608 139.758 103.005C142.477 102.717 145.223 102.659 147.924 102.14C147.924 102.934 147.929 103.728 147.929 104.522C142.34 104.611 136.827 105.511 131.278 106.003C128.404 106.256 125.525 106.74 122.615 106.509C122.615 105.844 122.615 105.183 122.615 104.522Z" fill="#AFCF45"/>
<path d="M147.916 71.5842C141.759 72.2363 135.607 72.9105 129.45 73.5226C127.175 73.7488 124.886 73.8242 122.606 73.9661C122.606 73.3052 122.606 72.6443 122.602 71.9834C127.747 71.6729 132.857 71.0608 137.976 70.4842C141.28 70.1116 144.602 69.8899 147.916 69.6016C147.916 70.2625 147.916 70.9233 147.916 71.5842Z" fill="#66BE4D"/>
<path d="M147.915 83.4889C147.915 84.1498 147.915 84.8107 147.915 85.4716C145.919 86.9974 143.489 86.5006 141.267 86.7667C136.059 87.3833 130.825 87.7603 125.614 88.3369C124.58 88.4522 123.511 88.643 122.611 87.8534C122.611 87.1925 122.611 86.5317 122.611 85.8708C123.795 84.9393 125.263 85.1522 126.598 85.0191C133.079 84.3716 139.555 83.6752 146.044 83.1252C146.709 83.072 147.361 83.0054 147.915 83.4889Z" fill="#84C54A"/>
<path d="M147.915 63.6443C143.054 64.1455 138.193 64.6733 133.327 65.1346C129.752 65.4761 126.168 65.7289 122.593 66.0261C122.593 65.3652 122.593 64.7043 122.589 64.0435C127.716 63.5378 132.839 63.0188 137.971 62.5354C141.284 62.2205 144.602 61.9543 147.92 61.666C147.92 62.3225 147.915 62.9834 147.915 63.6443Z" fill="#53BA4F"/>
<path d="M122.602 76.3433C127.871 75.9973 133.123 75.4562 138.366 74.8441C141.537 74.4759 144.731 74.2497 147.911 73.9614C147.911 74.6223 147.911 75.2832 147.911 75.9441C142.921 76.4453 137.931 76.9598 132.937 77.4389C129.495 77.7671 126.048 78.0332 122.602 78.3304C122.606 77.6695 122.606 77.0086 122.602 76.3433Z" fill="#6EC04C"/>
<path d="M147.924 55.7093C143.059 56.2105 138.193 56.7383 133.327 57.1996C129.752 57.5411 126.164 57.794 122.584 58.0867C122.584 57.5589 122.58 57.0266 122.58 56.4988C127.454 55.9931 132.329 55.4786 137.208 54.9819C140.202 54.6758 143.201 54.4097 146.194 54.1081C147.392 53.9927 148.142 54.3121 147.924 55.7093Z" fill="#41B651"/>
<path d="M122.611 87.8536C128.084 87.5919 133.518 86.9088 138.96 86.3189C141.941 85.9951 144.93 85.7511 147.915 85.4717C147.915 85.9995 147.915 86.5318 147.915 87.0596C141.763 87.7116 135.611 88.3858 129.455 88.9979C127.184 89.2241 124.895 89.2995 122.615 89.4415C122.615 88.9136 122.611 88.3814 122.611 87.8536Z" fill="#88C649"/>
<path d="M147.915 83.4888C141.763 84.1408 135.611 84.815 129.455 85.4271C127.184 85.6533 124.895 85.7287 122.611 85.8707C122.611 85.3428 122.611 84.8106 122.611 84.2827C127.894 84.061 133.123 83.3557 138.37 82.7791C141.546 82.4331 144.731 82.1892 147.915 81.9009C147.915 82.4287 147.915 82.9565 147.915 83.4888Z" fill="#80C54A"/>
<path d="M122.939 173.104C121.737 173.104 120.646 173.104 119.439 173.104C119.799 171.689 120.433 170.438 121.156 169.081C121.959 170.372 122.451 171.671 122.939 173.104Z" fill="#1CA316"/>
<path d="M95.0263 131.295C95.6695 132.67 96.5655 133.779 96.2461 134.812C96.0332 135.5 94.636 134.981 93.5227 135.083C94.0284 133.814 94.4675 132.705 95.0263 131.295Z" fill="#F6FAF6"/>
<path d="M301.426 165.892C299.906 180.192 289.606 191.102 276.536 192.562C259.446 194.482 246.436 188.432 242.926 175.182C239.026 160.462 239.006 145.132 242.976 130.402C246.476 117.442 261.276 110.492 276.736 113.132C289.826 115.362 297.376 123.452 300.996 135.872C301.836 138.752 301.506 140.072 298.216 139.802C296.386 139.652 294.516 139.632 292.696 139.802C288.196 140.242 285.076 139.532 282.986 134.462C280.526 128.492 274.336 126.562 267.516 128.082C261.716 129.372 257.886 133.312 257.596 139.732C257.196 148.562 257.196 157.432 257.626 166.262C257.936 172.602 262.026 176.722 267.696 177.862C274.476 179.222 281.066 177.122 283.116 171.232C285.006 165.812 288.176 165.522 292.606 165.832C295.526 166.052 298.466 165.892 301.426 165.892Z" fill="#00A759"/>
<path d="M531.736 185.572C532.276 184.732 532.526 184.222 532.876 183.812C535.396 180.882 537.436 177.102 540.596 175.282C543.916 173.372 547.166 177.252 550.646 178.062C556.126 179.332 561.546 179.712 567.016 178.502C568.946 178.072 571.196 177.472 571.286 174.902C571.396 172.022 569.026 171.142 566.896 170.792C560.736 169.782 554.486 169.262 548.336 168.202C539.666 166.702 535.496 162.502 534.936 155.272C534.276 146.702 538.026 140.252 545.916 137.552C558.426 133.282 570.526 135.152 582.256 140.722C584.666 141.862 585.326 143.122 583.036 145.072C582.346 145.662 581.686 146.372 581.226 147.142C578.256 152.132 574.676 153.522 569.066 150.642C564.606 148.352 559.366 148.732 554.396 149.352C552.276 149.622 549.516 149.912 549.356 152.672C549.186 155.652 551.996 155.772 554.116 156.092C559.386 156.862 564.696 157.402 569.966 158.202C580.306 159.792 584.886 164.182 585.566 172.952C586.236 181.672 581.306 188.912 572.056 191.242C557.976 194.782 544.476 193.062 531.736 185.572Z" fill="#00A759"/>
<path d="M395.346 143.642C401.106 136.912 406.816 134.382 413.956 135.502C424.296 137.132 430.146 143.242 430.736 154.832C431.316 166.232 430.886 177.682 431.006 189.102C431.036 191.502 430.166 192.132 427.816 192.292C415.036 193.152 415.046 193.232 415.046 180.332C415.046 173.332 415.136 166.322 415.016 159.322C414.906 152.652 411.506 149.342 405.156 149.452C399.066 149.552 395.896 152.712 395.796 159.282C395.656 168.682 395.646 178.082 395.816 187.482C395.876 190.802 395.356 192.362 391.396 192.342C380.106 192.282 380.106 192.492 380.106 181.212C380.106 167.572 380.206 153.932 380.036 140.292C379.996 137.032 380.636 135.422 384.226 135.962C385.846 136.212 387.556 136.182 389.186 135.972C393.776 135.382 397.276 135.922 395.346 143.642Z" fill="#00A759"/>
<path d="M502.206 192.892C484.286 192.842 475.086 183.602 475.046 165.572C475.036 162.622 474.966 159.662 475.256 156.742C476.636 142.922 488.326 134.032 503.636 135.202C510.476 135.722 517.096 137.042 522.716 141.502C524.946 143.272 525.546 144.622 522.936 146.502C521.456 147.572 520.076 148.852 518.876 150.232C516.596 152.862 514.456 152.952 511.276 151.322C504.706 147.962 496.976 149.172 493.386 153.462C489.966 157.552 489.686 169.352 492.896 174.042C496.176 178.832 504.696 180.672 510.936 176.932C514.946 174.522 516.856 175.742 519.566 178.542C526.016 185.222 525.936 186.152 517.256 190.082C513.076 191.972 508.076 192.912 502.206 192.892Z" fill="#00A759"/>
<path d="M315.806 148.372C315.806 138.242 315.936 128.112 315.726 117.982C315.656 114.632 316.526 113.622 319.996 113.612C331.456 113.592 331.456 113.432 331.456 125.032C331.456 140.322 331.506 155.602 331.416 170.892C331.396 174.812 331.876 178.062 336.846 177.872C338.926 177.792 339.336 178.872 339.186 180.582C339.166 180.762 339.246 180.982 339.176 181.132C337.476 184.662 342.946 191.232 335.706 192.052C323.276 193.462 316.096 188.502 315.856 179.312C315.606 169.002 315.806 158.682 315.806 148.372Z" fill="#00A759"/>
<path d="M349.136 163.702C349.136 155.602 349.226 147.512 349.086 139.422C349.036 136.832 349.786 136.062 352.456 135.942C365.076 135.382 365.066 135.282 365.066 147.872C365.066 161.122 364.956 174.362 365.136 187.612C365.186 191.162 364.246 192.352 360.536 192.342C349.136 192.332 349.136 192.502 349.136 181.372C349.136 175.472 349.136 169.592 349.136 163.702Z" fill="#00A759"/>
<path d="M461.936 163.882C461.936 171.982 461.816 180.072 461.996 188.162C462.056 191.162 461.346 192.262 458.086 192.322C446.006 192.552 446.006 192.692 446.006 180.792C446.006 167.362 446.136 153.932 445.926 140.502C445.866 136.862 446.936 135.892 450.526 135.912C461.946 135.962 461.946 135.812 461.946 147.312C461.936 152.842 461.936 158.362 461.936 163.882Z" fill="#00A759"/>
<path d="M356.346 128.432C354.326 127.612 350.306 130.212 349.476 127.052C348.456 123.132 349.226 118.702 349.466 114.512C349.526 113.542 350.956 113.732 351.836 113.722C354.216 113.692 356.656 114.012 358.986 113.642C364.246 112.812 365.386 115.132 365.176 119.972C364.816 128.422 365.086 128.432 356.346 128.432Z" fill="#00A759"/>
<path d="M453.416 128.432C451.296 128.002 447.206 129.672 446.596 127.582C445.466 123.692 446.146 119.262 446.176 115.052C446.186 113.862 447.296 113.782 448.216 113.742C449.316 113.702 450.416 113.722 451.516 113.712C462.976 113.662 462.876 113.652 462.016 125.462C461.836 127.952 460.966 128.622 458.726 128.462C457.076 128.332 455.416 128.432 453.416 128.432Z" fill="#00A759"/>
<path d="M402.556 15.312C394.716 15.312 394.716 15.312 394.716 7.60204C394.716 0.582036 394.716 0.582031 403.796 0.582031C410.546 0.582031 410.546 0.582026 410.536 8.84203C410.536 15.312 410.536 15.312 402.556 15.312Z" fill="#00A759"/>
<path d="M277.226 53.3919C282.446 36.2919 287.346 20.6819 291.906 4.98187C292.916 1.51187 294.386 0.231873 297.976 0.511873C302.186 0.841873 306.456 0.761878 310.686 0.531878C313.666 0.371878 314.396 1.47188 314.386 4.31188C314.286 27.9119 314.276 51.5219 314.396 75.1319C314.416 78.2919 313.446 79.1519 310.326 79.2019C299.786 79.3619 299.786 79.4919 299.786 68.9919C299.786 54.7919 299.786 40.6019 299.786 26.4019C299.506 26.3119 299.226 26.2319 298.936 26.1419C297.716 29.8119 296.496 33.4919 295.266 37.1619C292.046 46.7619 288.696 56.3119 285.676 65.9719C284.716 69.0319 283.586 70.4319 280.046 70.3819C270.146 70.2319 270.156 70.4319 266.966 60.9519C263.156 49.6519 259.326 38.3719 254.686 27.0719C254.606 28.5519 254.466 30.0219 254.466 31.5019C254.446 45.8819 254.326 60.2719 254.546 74.6519C254.606 78.3719 253.436 79.2519 249.886 79.2219C240.086 79.1319 240.086 79.2919 240.086 69.3819C240.086 47.9919 240.156 26.5919 240.016 5.20188C239.996 1.76188 240.666 0.161872 244.486 0.541872C249.936 1.10187 256.786 -1.60812 260.536 1.59188C263.986 4.54188 264.226 11.2719 265.806 16.3619C269.496 28.2919 273.166 40.2319 277.226 53.3919Z" fill="#00A759"/>
<path d="M689.476 73.3017C683.066 80.2417 675.836 81.0617 668.146 78.6217C660.466 76.1917 656.976 70.0617 655.746 62.4917C654.496 54.8117 654.526 47.0917 655.786 39.4117C656.986 32.0617 660.406 26.1517 667.746 23.5017C675.296 20.7817 682.206 21.8217 687.906 27.9517C688.216 28.2817 688.726 28.4317 689.696 28.9617C689.696 20.6517 689.836 12.7917 689.626 4.9517C689.546 1.7117 690.306 0.521705 693.846 0.491705C705.416 0.401705 705.416 0.231698 705.416 11.9217C705.416 32.5417 705.266 53.1717 705.526 73.7917C705.586 78.3017 704.176 79.7517 699.946 79.1517C698.506 78.9517 696.986 78.9717 695.536 79.1517C691.476 79.6517 688.536 78.9817 689.476 73.3017Z" fill="#00A759"/>
<path d="M559.586 74.5218C552.546 79.7418 545.176 80.3618 537.526 79.4018C528.796 78.3118 524.026 73.0118 523.376 63.8418C522.776 55.3418 527.116 49.2818 535.316 47.0318C541.656 45.2918 548.136 46.3118 554.536 45.8918C556.246 45.7818 558.916 47.3618 559.546 44.3018C560.046 41.8418 559.246 39.4918 557.206 37.8618C554.476 35.6818 551.206 35.1118 547.846 35.3218C546.026 35.4318 543.856 35.4418 542.496 36.4018C537.016 40.2818 533.756 37.0218 529.846 33.5618C526.416 30.5318 526.746 29.0418 530.476 26.9818C540.966 21.1618 551.846 20.4418 562.856 24.8318C569.966 27.6618 573.816 33.4418 573.986 41.1518C574.236 52.5618 574.076 63.9818 574.256 75.4018C574.306 78.2718 573.406 79.4318 570.486 79.1618C568.296 78.9618 566.046 78.9018 563.866 79.1718C560.676 79.5818 558.996 78.5818 559.586 74.5218Z" fill="#00A759"/>
<path d="M379.856 57.852C379.856 63.552 379.736 69.262 379.906 74.962C379.986 77.922 379.266 79.482 375.946 79.162C373.576 78.932 371.166 79.122 368.776 79.112C368.046 79.112 366.776 79.272 366.656 78.982C363.796 72.352 360.346 78.152 357.436 78.722C351.736 79.862 346.116 80.272 340.516 78.872C332.866 76.962 329.256 71.602 329.206 62.772C329.156 54.532 332.896 49.352 340.426 47.152C346.916 45.252 353.586 46.272 360.166 45.882C361.886 45.782 364.586 47.312 365.136 44.182C365.606 41.502 364.766 39.022 362.346 37.442C357.586 34.322 352.556 35.142 347.456 36.442C345.386 36.972 343.506 39.562 341.496 38.342C338.566 36.552 336.096 33.962 333.546 31.582C331.866 30.012 333.336 29.132 334.486 28.152C343.326 20.542 363.716 20.122 372.886 27.412C376.996 30.672 379.336 34.962 379.506 40.192C379.696 46.072 379.546 51.962 379.546 57.842C379.646 57.852 379.756 57.852 379.856 57.852Z" fill="#00A759"/>
<path d="M441.536 29.4619C446.536 24.0319 451.866 21.5719 458.366 22.1919C469.676 23.2719 476.126 30.2119 476.586 42.5819C476.996 53.6219 476.626 64.7019 476.756 75.7519C476.786 78.4519 475.796 79.0619 473.246 79.1819C460.776 79.7719 460.776 79.8519 460.776 67.4719C460.776 60.2819 460.876 53.0919 460.736 45.9019C460.606 39.5819 457.236 36.3619 451.136 36.3419C445.016 36.3219 441.656 39.4719 441.536 45.9319C441.366 55.3319 441.346 64.7319 441.566 74.1319C441.656 77.7619 440.936 79.2819 436.826 79.2319C425.846 79.0919 425.836 79.3019 425.836 68.3519C425.836 54.7119 425.956 41.0719 425.756 27.4319C425.706 23.9119 426.526 22.3119 430.256 22.8619C431.876 23.1019 433.566 22.9819 435.226 22.8819C439.416 22.6319 443.506 22.4019 441.536 29.4619Z" fill="#00A759"/>
<path d="M605.696 30.392C611.176 23.652 616.916 21.232 624.076 22.422C633.366 23.972 639.246 29.322 640.266 38.632C641.626 51.112 640.576 63.682 640.826 76.212C640.866 78.322 639.986 79.202 637.856 79.132C634.726 79.032 631.576 78.922 628.466 79.162C625.376 79.402 624.816 78.002 624.846 75.282C624.966 65.692 624.926 56.1019 624.886 46.5219C624.856 39.7019 621.776 36.422 615.436 36.332C609.156 36.252 605.976 39.532 605.916 46.432C605.836 55.652 605.746 64.872 605.966 74.092C606.056 77.732 605.336 79.262 601.206 79.222C590.166 79.102 590.166 79.302 590.166 68.252C590.166 54.792 590.366 41.322 590.056 27.872C589.956 23.572 591.326 22.252 595.326 22.852C596.586 23.042 597.926 23.032 599.186 22.852C603.796 22.222 607.196 22.932 605.696 30.392Z" fill="#00A759"/>
<path d="M492.406 34.862C492.406 24.922 492.516 14.972 492.346 5.03203C492.286 1.85203 492.886 0.522033 496.506 0.492033C508.136 0.372033 508.136 0.202024 508.136 11.842C508.136 26.762 508.156 41.672 508.126 56.592C508.116 60.832 507.956 65.042 514.106 64.842C515.976 64.782 515.746 66.372 515.886 67.642C517.096 78.692 514.316 81.112 503.326 78.542C496.186 76.872 492.536 72.392 492.446 64.692C492.306 54.752 492.406 44.812 492.406 34.862Z" fill="#01A859"/>
<path d="M410.536 50.7321C410.536 58.8221 410.436 66.9021 410.586 74.9821C410.636 77.9021 410.036 79.1421 406.696 79.2121C394.706 79.4621 394.716 79.6121 394.716 67.7021C394.716 54.1021 394.796 40.5021 394.656 26.9121C394.626 23.9021 395.326 22.8621 398.556 22.8121C410.536 22.6221 410.536 22.4921 410.536 34.2021C410.536 39.7121 410.536 45.2221 410.536 50.7321Z" fill="#00A759"/>
<path d="M671.006 51.0718C671.156 48.3318 670.926 45.5018 671.546 42.8618C672.716 37.8718 676.236 35.6718 681.326 35.9718C685.996 36.2518 688.816 38.5318 689.356 43.3418C689.926 48.4618 689.916 53.5718 689.386 58.6918C688.856 63.8018 685.766 65.9917 680.836 66.0517C675.616 66.1117 672.146 63.6018 671.436 58.7618C671.066 56.2518 671.376 53.6417 671.376 51.0817C671.246 51.0817 671.126 51.0818 671.006 51.0718Z" fill="#FDFEFD"/>
<path d="M548.346 68.222C546.436 68.052 545.336 68.032 544.256 67.842C541.086 67.272 537.686 66.502 537.826 62.452C537.976 58.272 541.106 57.162 544.806 57.202C548.106 57.232 551.426 57.002 554.696 57.292C556.366 57.442 559.116 55.702 559.566 58.942C559.996 62.072 560.066 65.482 556.166 66.672C553.396 67.492 550.456 67.812 548.346 68.222Z" fill="#FCFDFD"/>
<path d="M356.166 57.1918C357.626 57.1918 359.136 56.9718 360.546 57.2518C362.186 57.5718 364.966 55.7418 365.186 59.2018C365.356 61.9018 365.836 64.9717 362.546 66.3017C357.496 68.3317 352.286 68.7918 347.016 67.1318C344.646 66.3818 343.306 64.6918 343.506 62.2218C343.716 59.5818 345.286 57.7018 347.966 57.4318C350.676 57.1618 353.436 57.3718 356.176 57.3718C356.166 57.3118 356.166 57.2518 356.166 57.1918Z" fill="#FDFEFD"/>
</svg>
