<svg width="67" height="67" viewBox="0 0 67 67" fill="none" xmlns="http://www.w3.org/2000/svg">
<path d="M48.0963 33.5007C48.0959 36.33 47.2595 39.0961 45.6923 41.4517C44.125 43.8072 41.8967 45.6472 39.2872 46.7405C36.6777 47.8339 33.8033 48.1318 31.025 47.597C28.2467 47.0621 25.6884 45.7183 23.6713 43.7343C21.6543 41.7503 20.2683 39.2145 19.6876 36.4454C19.1069 33.6764 19.3573 30.7975 20.4074 28.1702C21.4575 25.543 23.2604 23.2846 25.5897 21.6786C27.919 20.0727 30.6709 19.1907 33.4998 19.1436C35.4053 19.1118 37.298 19.4597 39.0676 20.167C40.8372 20.8743 42.4483 21.9268 43.8069 23.2631C45.1655 24.5995 46.2445 26.193 46.981 27.9506C47.7174 29.7083 48.0965 31.595 48.0963 33.5007ZM48.0963 33.5007L48.0963 39.7221C48.0963 56.4243 74.2741 40.6793 60.5391 17.995C57.7734 13.2717 53.8261 9.34953 49.0852 6.61409C44.3444 3.87865 38.9732 2.42413 33.4998 2.39355C28.9016 2.40776 24.3636 3.44122 20.2127 5.41955C16.0617 7.39788 12.4009 10.2719 9.49389 13.8347C6.58686 17.3975 4.50584 21.5604 3.40064 26.0239C2.29544 30.4874 2.19353 35.1405 3.10227 39.6481C4.011 44.1557 5.90777 48.4058 8.65604 52.0924C11.4043 55.7791 14.9357 58.8106 18.9961 60.9687C23.0565 63.1269 27.5448 64.358 32.1381 64.5735C36.7313 64.789 41.3152 63.9835 45.5598 62.215" stroke="#59058D" stroke-width="6" stroke-linecap="round" stroke-linejoin="round"/>
</svg>
