<svg width="18" height="16" viewBox="0 0 18 16" fill="none" xmlns="http://www.w3.org/2000/svg">
<path d="M0.5 14.4998V1.49981C0.5 1.13314 0.65 0.853807 0.95 0.661807C1.25 0.469807 1.56667 0.440807 1.9 0.574807L17.3 7.07481C17.7167 7.25814 17.925 7.56647 17.925 7.99981C17.925 8.43314 17.7167 8.74147 17.3 8.92481L1.9 15.4248C1.56667 15.5581 1.25 15.5288 0.95 15.3368C0.65 15.1448 0.5 14.8658 0.5 14.4998ZM2.5 12.9998L14.35 7.99981L2.5 2.99981V6.49981L8.5 7.99981L2.5 9.49981V12.9998ZM2.5 7.99981V2.99981V12.9998V7.99981Z" fill="#488948"/>
</svg>
