<svg width="53" height="66" viewBox="0 0 53 66" fill="none" xmlns="http://www.w3.org/2000/svg">
<path d="M26.4998 33.5002C28.3103 33.5002 29.8606 32.855 31.151 31.5647C32.4413 30.2743 33.0854 28.7251 33.0832 26.9168C33.0832 25.1064 32.438 23.556 31.1477 22.2657C29.8573 20.9754 28.3081 20.3313 26.4998 20.3335C24.6894 20.3335 23.139 20.9787 21.8487 22.269C20.5584 23.5593 19.9143 25.1086 19.9165 26.9168C19.9165 28.7272 20.5617 30.2776 21.852 31.568C23.1423 32.8583 24.6916 33.5024 26.4998 33.5002ZM26.4998 57.6939C33.1929 51.5495 38.1578 45.9668 41.3946 40.9459C44.6314 35.925 46.2498 31.4681 46.2498 27.5752C46.2498 21.5953 44.3429 16.6995 40.5289 12.8877C36.715 9.076 32.0386 7.16902 26.4998 7.16683C20.9589 7.16683 16.2814 9.0738 12.4675 12.8877C8.65352 16.7017 6.74764 21.5975 6.74984 27.5752C6.74984 31.4703 8.36824 35.9283 11.605 40.9492C14.8419 45.9701 19.8068 51.5517 26.4998 57.6939ZM26.4998 65.1825C26.0609 65.1825 25.6221 65.1002 25.1832 64.9356C24.7443 64.771 24.3603 64.5516 24.0311 64.2772C16.0214 57.2002 10.0415 50.63 6.0915 44.5667C2.1415 38.5035 0.166504 32.8396 0.166504 27.5752C0.166504 19.346 2.8141 12.7901 8.1093 7.90745C13.4045 3.02482 19.5347 0.583496 26.4998 0.583496C33.4672 0.583496 39.5985 3.02482 44.8937 7.90745C50.1889 12.7901 52.8354 19.346 52.8332 27.5752C52.8332 32.8418 50.8582 38.5068 46.9082 44.57C42.9582 50.6333 36.9783 57.2024 28.9686 64.2772C28.6394 64.5516 28.2554 64.771 27.8165 64.9356C27.3776 65.1002 26.9387 65.1825 26.4998 65.1825Z" fill="#59058D"/>
</svg>
