<svg width="58" height="58" viewBox="0 0 58 58" fill="none" xmlns="http://www.w3.org/2000/svg">
<path d="M3.825 57.5C3.29722 57.5 2.74306 57.4863 2.1625 57.4588C1.58194 57.4314 1.02778 57.3923 0.5 57.3417V38.8167L16.3333 35.65L25.5167 44.8333C29.5278 42.4056 33.2096 39.5292 36.562 36.2042C39.9144 32.8792 42.6979 29.3167 44.9125 25.5167L35.8875 16.4125L38.8167 0.5H57.3417C57.4472 1.02778 57.5 1.58194 57.5 2.1625V3.825C57.5 10.6333 55.9832 17.2707 52.9495 23.737C49.9158 30.2033 45.9047 35.9424 40.9162 40.9542C35.9276 45.9681 30.2012 49.9792 23.737 52.9875C17.2728 55.9958 10.6354 57.5 3.825 57.5ZM47.9208 19.5C48.8181 17.4417 49.5042 15.3569 49.9792 13.2458C50.4542 11.1347 50.8236 8.99722 51.0875 6.83333H44.0417L42.6958 14.275L47.9208 19.5ZM19.5792 47.8417L14.275 42.5375L6.83333 44.0417V51.0083C8.99722 50.85 11.1484 50.5069 13.287 49.9792C15.4256 49.4514 17.5229 48.7389 19.5792 47.8417Z" fill="#59058D"/>
</svg>
