<svg width="19" height="19" viewBox="0 0 19 19" fill="none" xmlns="http://www.w3.org/2000/svg">
<path d="M5.59312 18.5418C5.09568 18.5418 4.66969 18.3646 4.31515 18.0102C3.96061 17.6557 3.78364 17.2302 3.78425 16.7335C3.78425 16.2362 3.96152 15.8103 4.31606 15.4559C4.67059 15.1015 5.09628 14.9246 5.59312 14.9252C6.09056 14.9252 6.51655 15.1024 6.87109 15.4568C7.22563 15.8112 7.40259 16.2368 7.40199 16.7335C7.40199 17.2308 7.22472 17.6566 6.87018 18.0111C6.51564 18.3655 6.08996 18.5424 5.59312 18.5418ZM14.6375 18.5418C14.14 18.5418 13.714 18.3646 13.3595 18.0102C13.005 17.6557 12.828 17.2302 12.8286 16.7335C12.8286 16.2362 13.0059 15.8103 13.3604 15.4559C13.715 15.1015 14.1406 14.9246 14.6375 14.9252C15.1349 14.9252 15.5609 15.1024 15.9154 15.4568C16.27 15.8112 16.447 16.2368 16.4463 16.7335C16.4463 17.2308 16.2691 17.6566 15.9145 18.0111C15.56 18.3655 15.1343 18.5424 14.6375 18.5418ZM4.82435 4.07516L6.99499 8.596H13.326L15.8132 4.07516H4.82435ZM5.59312 14.021C4.91479 14.021 4.40228 13.7232 4.05558 13.1277C3.70888 12.5321 3.6938 11.9408 4.01036 11.3537L5.23134 9.1385L1.97538 2.26683H1.04833C0.792072 2.26683 0.581037 2.18003 0.415224 2.00643C0.249411 1.83283 0.166504 1.61824 0.166504 1.36267C0.166504 1.10649 0.25333 0.891595 0.426981 0.717995C0.600633 0.544395 0.815286 0.457896 1.07094 0.458499H2.54065C2.70646 0.458499 2.86474 0.503708 3.01548 0.594124C3.16622 0.684541 3.27927 0.812631 3.35464 0.978395L3.96513 2.26683H17.3056C17.7126 2.26683 17.9914 2.41753 18.1422 2.71892C18.2929 3.0203 18.2854 3.33676 18.1196 3.66829L14.9088 9.45496C14.743 9.75634 14.5244 9.98992 14.2531 10.1557C13.9818 10.3214 13.6727 10.4043 13.326 10.4043H6.588L5.59312 12.2127H15.5645C15.8208 12.2127 16.0318 12.2995 16.1976 12.4731C16.3634 12.6467 16.4463 12.8613 16.4463 13.1168C16.4463 13.373 16.3595 13.5879 16.1859 13.7615C16.0122 13.9351 15.7976 14.0216 15.5419 14.021H5.59312Z" fill="#1B2C19"/>
</svg>
